<?xml version="1.0" encoding="utf-8"?><!-- Uploaded to: SVG Repo, www.svgrepo.com, Generator: SVG Repo Mixer Tools -->
<svg fill="#000000" width="800px" height="800px" viewBox="0 0 24 24" id="appartment-2" data-name="Flat Color" xmlns="http://www.w3.org/2000/svg" class="icon flat-color"><path id="secondary" d="M20.63,6.82,15.32,5.05a1,1,0,0,0-.9.14A1,1,0,0,0,14,6V21a1,1,0,0,0,1,1h6a1,1,0,0,0,1-1V8.72A2,2,0,0,0,20.63,6.82Z" style="fill: rgb(44, 169, 188);"></path><path id="primary" d="M14,2H4A2,2,0,0,0,2,4V21a1,1,0,0,0,1,1H16V4A2,2,0,0,0,14,2Z" style="fill: rgb(0, 0, 0);"></path><path id="secondary-2" data-name="secondary" d="M6,7A1,1,0,0,1,7,6h4a1,1,0,0,1,0,2H7A1,1,0,0,1,6,7Zm5,7H7a1,1,0,0,0-1,1v7h6V15A1,1,0,0,0,11,14Zm0-4H7a1,1,0,0,0,0,2h4a1,1,0,0,0,0-2Z" style="fill: rgb(44, 169, 188);"></path></svg>