<!DOCTYPE svg PUBLIC "-//W3C//DTD SVG 1.1//EN" "http://www.w3.org/Graphics/SVG/1.1/DTD/svg11.dtd">
<!-- Uploaded to: SVG Repo, www.svgrepo.com, Transformed by: SVG Repo Mixer Tools -->
<svg fill="#3f3b3b" version="1.1" id="Layer_1" xmlns="http://www.w3.org/2000/svg" xmlns:xlink="http://www.w3.org/1999/xlink" width="800px" height="800px" viewBox="0 0 300 300" enable-background="new 0 0 300 300" xml:space="preserve" stroke="#3f3b3b">
<g id="SVGRepo_bgCarrier" stroke-width="0"/>
<g id="SVGRepo_tracerCarrier" stroke-linecap="round" stroke-linejoin="round"/>
<g id="SVGRepo_iconCarrier"> <g> <path d="M129.418,231.852c-1.145,0.848-2.487,1.45-4.015,1.45H97.342c-3.804,0-6.877-3.074-6.877-6.868v-28.061 c0-3.794,3.073-6.869,6.877-6.869h23.695c0.346-6.269,1.348-12.413,3.099-18.308H97.342c-3.804,0-6.877-3.077-6.877-6.875v-28.055 c0-3.8,3.073-6.875,6.877-6.875h28.062c3.785,0,6.853,3.074,6.853,6.875v16.755c3.304-5.458,7.206-10.598,11.839-15.225 c15.011-15.008,34.957-23.277,56.19-23.277c5.35,0,10.619,0.532,15.74,1.568l-70.131-60.511c-2.573-2.22-6.401-2.22-8.969,0 l-90.548,78.119c-1.516,1.308-2.394,3.201-2.394,5.205v112.966c0,3.788,3.074,6.862,6.878,6.862h103.499 c-3.612-2.573-7.082-5.396-10.267-8.591C138.058,246.108,133.185,239.243,129.418,231.852z"/> <path d="M288.489,264.759l-18.79-18.806c-3.588-3.59-8.653-4.725-13.236-3.516l-5.121-5.118 c20.911-25.785,19.39-63.832-4.589-87.817c-12.413-12.41-28.915-19.248-46.468-19.248s-34.073,6.838-46.475,19.248 c-12.419,12.419-19.26,28.915-19.26,46.461c0,17.556,6.841,34.054,19.26,46.464c12.401,12.426,28.922,19.267,46.475,19.267 c15.228,0,29.675-5.171,41.347-14.668l5.127,5.13c-1.206,4.568-0.08,9.624,3.501,13.208l18.79,18.802 c2.678,2.694,6.197,4.03,9.716,4.03c3.514,0,7.033-1.333,9.711-4.02C293.839,278.82,293.839,270.124,288.489,264.759z M163.521,232.721c-9.828-9.822-15.228-22.872-15.228-36.757c0-13.876,5.399-26.926,15.228-36.748 c9.821-9.813,22.872-15.224,36.764-15.224c13.885,0,26.923,5.412,36.764,15.224c20.255,20.262,20.255,53.228,0.006,73.49 c0,0.003-0.006,0.003-0.006,0.013c0,0.003,0,0.006-0.013,0.006c-9.834,9.819-22.872,15.233-36.751,15.233 C186.399,247.957,173.343,242.542,163.521,232.721z"/> <path d="M252.635,139.291c2.585,2.229,5.776,3.321,8.949,3.321c3.859,0,7.7-1.624,10.409-4.778 c4.948-5.758,4.299-14.427-1.453-19.375L150.359,15.124c-5.146-4.429-12.759-4.429-17.898,0L12.286,118.459 c-5.764,4.948-6.407,13.616-1.466,19.375c4.954,5.752,13.619,6.389,19.365,1.457L141.41,43.649L252.635,139.291z"/> </g> </g>
</svg>