<svg width="800" height="800" viewBox="0 0 800 800" fill="none" xmlns="http://www.w3.org/2000/svg">
<path d="M223.125 433.75C190.625 433.75 163.75 406.875 163.75 373.125C163.75 339.375 190.625 312.5 223.125 312.5C255.625 312.5 282.5 339.375 282.5 373.125C282.5 406.875 256.25 433.75 223.125 433.75ZM400.625 433.75C368.125 433.75 341.25 406.875 341.25 373.125C341.25 339.375 368.125 312.5 400.625 312.5C433.125 312.5 460 339.375 460 373.125C460 406.875 433.125 433.75 400.625 433.75ZM577.5 433.75C545 433.75 518.125 406.875 518.125 373.125C518.125 339.375 545 312.5 577.5 312.5C610 312.5 636.875 339.375 636.875 373.125C636.875 406.875 610 433.75 577.5 433.75ZM240 723.125C235.625 723.125 230.625 721.875 226.25 720C216.25 715.625 209.375 706.25 207.5 695.625L191.875 599.375L225 591.875L241.25 687.5L345 626.875L346.875 662.5L256.875 718.75C251.875 721.25 245.625 723.125 240 723.125Z" fill="white"/>
<path d="M400 45C187.5 45 14.375 183.75 14.375 355C14.375 476.875 102.5 583.125 230.625 633.125L225 591.875C120.625 544.375 50.625 455.625 50.625 355C50.625 203.75 207.5 81.25 400 81.25C592.5 81.25 749.375 203.75 749.375 355C749.375 506.25 592.5 628.75 400 628.75C389.375 628.75 355 626.875 345 626.25L313.125 656.875C341.25 661.875 370.625 665 400 665C612.5 665 785.625 526.25 785.625 355C785.625 183.75 612.5 45 400 45Z" fill="white"/>
</svg>
