<?xml version="1.0" encoding="utf-8"?>
<!-- Uploaded to: SVG Repo, www.svgrepo.com, Generator: SVG Repo Mixer Tools -->
<svg width="800px" height="800px" viewBox="0 0 24 24" xmlns="http://www.w3.org/2000/svg">
<defs>
<style>.cls-1,.cls-2{fill:none;stroke:#000000;stroke-linecap:round;stroke-width:1.5px;}.cls-1{stroke-linejoin:bevel;fill-rule:evenodd;}.cls-2{stroke-linejoin:round;}</style>
</defs>
<g id="ic-contact-edit-contact">
<path class="cls-1" d="M22,12.27v4.37a2,2,0,0,1-2,2H4a2,2,0,0,1-2-2V7.36a2,2,0,0,1,2-2h6.76"/>
<path class="cls-2" d="M19.3,4.25a1,1,0,0,0-1.42,0l-6,6h0l-.1,3a.21.21,0,0,0,.23.22l3-.1h0l6-6A1,1,0,0,0,21,6Z"/>
</g>
</svg>