<svg width="342" height="294" viewBox="0 0 342 294" fill="none" xmlns="http://www.w3.org/2000/svg">
<path d="M140.651 39.984L75.541 112.702L250.645 75.2817L153.113 37.2969C150.989 36.4678 148.6 36.2822 146.337 36.7702C144.073 37.2582 142.069 38.3911 140.651 39.984Z" fill="#EBEBEB"/>
<path d="M74.6172 113.219L140.363 39.8017C141.829 38.1508 143.906 36.9783 146.251 36.477C148.595 35.9758 151.069 36.1758 153.264 37.044L251.76 75.3993L74.6172 113.219ZM148.831 36.7794C147.302 36.7803 145.793 37.0855 144.424 37.671C143.055 38.2565 141.861 39.1065 140.938 40.1545L76.4571 112.19L249.55 75.1993L152.969 37.5673C151.669 37.0633 150.258 36.8047 148.831 36.8088V36.7794Z" fill="#E0E0E0"/>
<path d="M75.5352 112.705L251.256 75.1537L274.93 157.022C275.399 158.643 275.099 160.358 274.097 161.789C273.095 163.22 271.473 164.25 269.588 164.653L108.086 199.166C106.2 199.569 104.206 199.311 102.541 198.45C100.877 197.589 99.678 196.194 99.2093 194.573L75.5352 112.705Z" fill="#F0F0F0"/>
<path d="M240.44 79.6387L179.564 133.106L87.5519 115.301L77.0251 73.3471C76.4425 71.1831 76.8725 68.9088 78.2224 67.0148C79.5723 65.1207 81.7339 63.7585 84.2413 63.2218L217.348 34.7802C218.603 34.5111 219.907 34.4574 221.186 34.6222C222.465 34.7869 223.694 35.1669 224.802 35.7404C225.91 36.3138 226.875 37.0695 227.643 37.9642C228.411 38.8589 228.966 39.8749 229.277 40.9542L240.44 79.6387Z" fill="white"/>
<path d="M171.204 128.901L98.9121 193.84C99.1674 194.723 99.6225 195.554 100.252 196.286C100.881 197.018 101.671 197.636 102.578 198.105C103.486 198.574 104.491 198.885 105.538 199.02C106.585 199.155 107.652 199.111 108.68 198.891L268.941 164.64C271.014 164.197 272.798 163.064 273.9 161.49C275.001 159.917 275.331 158.032 274.816 156.249L274.666 155.732L180.137 127.067C178.601 126.6 176.94 126.525 175.356 126.85C173.771 127.176 172.329 127.888 171.204 128.901Z" fill="#E0E0E0"/>
<path d="M148.108 69.4156L96.0352 80.5516L97.3578 85.1222L149.43 73.9861L148.108 69.4156Z" fill="#E0E0E0"/>
<path d="M214.924 67.4316L99.3887 92.1396L100.883 97.3036L216.419 72.5956L214.924 67.4316Z" fill="#E0E0E0"/>
<path d="M218.579 80.0478L103.043 104.756L104.537 109.92L220.073 85.2118L218.579 80.0478Z" fill="#E0E0E0"/>
<path d="M221.007 96.7672L217.389 99.8777L120.397 121.675L107.723 119.129L107.244 117.947L222.409 93.3215L222.909 95.0326L221.007 96.7672Z" fill="#E0E0E0"/>
<path d="M196.199 118.494L152.505 127.831L139.146 125.209L204.448 111.244L196.199 118.494Z" fill="#E0E0E0"/>
<path d="M168.564 131.265C168.564 131.265 168.516 131.33 168.4 131.442L167.88 131.93L165.869 133.782L158.421 140.561C152.114 146.271 143.373 154.162 133.694 162.811C124.015 171.461 115.123 179.222 108.639 184.785C105.397 187.566 102.757 189.812 100.924 191.347L98.81 193.111L98.2491 193.564C98.1906 193.62 98.124 193.669 98.0508 193.711C98.1013 193.649 98.1586 193.592 98.2218 193.54L98.7553 193.064L100.807 191.259L108.448 184.632C114.884 179.028 123.728 171.249 133.427 162.594C143.126 153.938 151.895 146.13 158.222 140.409L165.746 133.699L167.798 131.888L168.345 131.424C168.496 131.312 168.564 131.265 168.564 131.265Z" fill="#FAFAFA"/>
<path d="M274.667 155.72C274.633 155.802 254.475 149.787 229.646 142.284C204.817 134.781 184.714 128.631 184.748 128.549C184.782 128.466 204.94 134.476 229.769 141.978C254.598 149.481 274.701 155.632 274.667 155.72Z" fill="#FAFAFA"/>
<path d="M243.333 77.0633C243.295 77.1157 243.252 77.1649 243.203 77.2103L242.82 77.616L241.199 79.1625L235.159 84.8014C230.043 89.5465 222.916 96.0498 214.927 103.147C206.938 110.244 199.564 116.577 194.215 121.128L187.847 126.491L186.096 127.931L185.638 128.302C185.528 128.384 185.474 128.425 185.467 128.419C185.51 128.369 185.558 128.322 185.61 128.278L186.041 127.884L187.745 126.402L194.024 120.969C199.331 116.377 206.63 110.015 214.619 102.924C222.608 95.8323 229.763 89.376 234.934 84.672L241.055 79.1037L242.731 77.5984L243.176 77.2103C243.221 77.1559 243.274 77.1065 243.333 77.0633Z" fill="#FAFAFA"/>
<path d="M168.565 131.265C168.484 131.261 168.404 131.249 168.326 131.23L167.642 131.089L164.906 130.501C162.566 129.995 159.167 129.284 154.96 128.437C146.554 126.726 134.892 124.521 122.005 122.122C109.119 119.723 97.4632 117.482 89.0705 115.713C84.8708 114.831 81.4781 114.09 79.1457 113.549L76.4576 112.92L75.7736 112.749C75.6928 112.734 75.6146 112.711 75.541 112.678L75.7804 112.72L76.4644 112.855L79.2004 113.443C81.5465 113.949 84.946 114.654 89.1526 115.507C97.559 117.218 109.214 119.423 122.108 121.822C135.001 124.221 146.65 126.461 155.042 128.231C159.242 129.113 162.635 129.848 164.967 130.395L167.648 131.024L168.332 131.195L168.565 131.265Z" fill="#FAFAFA"/>
<path d="M240.44 79.6387C240.44 79.6387 240.371 79.4447 240.255 79.0507L239.756 77.3867C239.318 75.9108 238.682 73.7529 237.861 70.9716L230.973 47.3811C230.608 46.1345 230.237 44.8585 229.858 43.5532C229.674 42.9064 229.482 42.2419 229.284 41.5775C229.188 41.2423 229.092 40.9072 228.969 40.5838C228.862 40.2536 228.725 39.9312 228.559 39.6195C227.881 38.3003 226.814 37.1559 225.465 36.299C224.116 35.4422 222.53 34.9025 220.864 34.7332C219.999 34.6304 219.122 34.6304 218.258 34.7332C217.396 34.8625 216.52 35.0683 215.638 35.2506L210.268 36.4266L199.044 38.808L149.174 49.5096L99.2416 60.1642L88.0309 62.5515L85.2949 63.1395C84.4068 63.2981 83.537 63.5244 82.6957 63.8157C81.073 64.4203 79.6729 65.3941 78.6464 66.6322C78.1496 67.2338 77.745 67.888 77.4425 68.5785C77.1605 69.2606 76.9745 69.9692 76.8885 70.6894C76.6901 72.13 77.1553 73.5177 77.4836 74.8877C78.1676 77.6317 78.8219 80.2601 79.4467 82.7728C81.9433 92.8217 83.9611 100.948 85.3564 106.575C86.0404 109.386 86.5808 111.561 86.9501 113.043C87.1211 113.778 87.2579 114.342 87.3537 114.731C87.4495 115.119 87.4768 115.319 87.4768 115.319C87.4768 115.319 87.4153 115.125 87.3127 114.731C87.2101 114.337 87.0664 113.784 86.8749 113.055C86.4919 111.567 85.9378 109.392 85.2196 106.587C83.7901 100.965 81.7312 92.8393 79.1867 82.8081C78.5575 80.2973 77.8871 77.6689 77.1963 74.923C76.868 73.5706 76.3892 72.1359 76.5944 70.6482C76.673 69.9036 76.8615 69.1705 77.1553 68.4667C77.4678 67.7543 77.8837 67.0786 78.3933 66.4558C78.9115 65.8219 79.5309 65.2538 80.2333 64.7682C80.9365 64.2641 81.7225 63.852 82.5657 63.5452C83.4216 63.2449 84.3076 63.0127 85.2128 62.8513L87.9488 62.2633L99.1801 59.8761L149.112 49.198L199.044 38.5434L210.255 36.1561L215.624 35.0154C216.507 34.8273 217.368 34.6273 218.271 34.4921C219.59 34.3228 220.934 34.3812 222.226 34.6639C223.518 34.9466 224.731 35.4479 225.795 36.1385C227.149 37.0194 228.218 38.1833 228.901 39.5195C229.072 39.8406 229.214 40.1729 229.325 40.5132C229.448 40.8484 229.544 41.1835 229.639 41.5187C229.831 42.1831 230.016 42.8476 230.207 43.5003C230.583 44.8056 230.946 46.0816 231.308 47.3281L238.08 70.9599C238.867 73.747 239.482 75.9108 239.899 77.3867C240.105 78.1217 240.262 78.6803 240.365 79.0625C240.467 79.4447 240.44 79.6387 240.44 79.6387Z" fill="#E0E0E0"/>
<path d="M309.168 264.012C309.168 264.1 247.307 264.171 171 264.171C94.693 264.171 32.832 264.106 32.832 264.012C32.832 263.918 94.6862 263.847 171 263.847C247.314 263.847 309.168 263.93 309.168 264.012Z" fill="#263238"/>
<path d="M163.961 48.6041L157.196 53.0317L157.524 61.4871L151.334 57.2594L147.914 59.7761L134.918 45.9816L163.961 48.6041Z" fill="#183044"/>
<path d="M154.651 54.831C154.651 55.0897 157.524 61.4872 157.524 61.4872L151.334 57.2594L154.651 54.831Z" fill="#183044"/>
<g opacity="0.3">
<path d="M154.651 54.831C154.651 55.0897 157.524 61.4872 157.524 61.4872L151.334 57.2594L154.651 54.831Z" fill="black"/>
</g>
<path d="M134.918 45.9816L154.651 54.831L157.524 61.4871L157.196 53.0317L134.918 45.9816Z" fill="#183044"/>
<path opacity="0.1" d="M134.918 45.9816L154.651 54.831L157.524 61.4871L157.196 53.0317L134.918 45.9816Z" fill="black"/>
<path d="M189.638 160.065C188.422 160.031 187.227 159.781 186.129 159.33C187.345 159.365 188.54 159.615 189.638 160.065Z" fill="#263238"/>
<path d="M195.232 161.241C195.232 161.33 194.719 161.3 194.145 161.183C193.57 161.065 193.119 160.889 193.139 160.8C193.16 160.712 193.652 160.742 194.234 160.865C194.815 160.988 195.26 161.153 195.232 161.241Z" fill="#263238"/>
<path d="M172.142 60.3817C171.535 60.3893 170.931 60.3078 170.356 60.1406C169.754 60.077 169.17 59.9196 168.633 59.6761C169.243 59.6073 169.863 59.6596 170.445 59.829C171.054 59.8931 171.636 60.0828 172.142 60.3817Z" fill="#263238"/>
<path d="M178.763 62.8219C177.615 62.4982 176.53 62.0306 175.541 61.4342C176.152 61.4841 176.74 61.6574 177.258 61.9399C178.154 62.328 178.817 62.7454 178.763 62.8219Z" fill="#263238"/>
<path d="M184.502 66.5616C184.426 66.6262 183.818 66.1852 183.051 65.6325C182.285 65.0798 181.683 64.6094 181.772 64.533C182.356 64.7101 182.883 65.0021 183.311 65.3856C184.057 65.95 184.577 66.5028 184.502 66.5616Z" fill="#263238"/>
<path d="M188.878 71.4714C188.782 71.5125 188.331 70.9422 187.784 70.2366C187.401 69.8322 187.1 69.3749 186.895 68.8842C186.97 68.8312 187.544 69.3369 188.098 70.0602C188.484 70.471 188.752 70.9546 188.878 71.4714Z" fill="#263238"/>
<path d="M191.361 77.2749C191.067 76.8189 190.864 76.3242 190.759 75.8108C190.53 75.3262 190.403 74.8106 190.383 74.2879C190.752 74.7112 191.003 75.2022 191.115 75.7226C191.345 76.2146 191.429 76.748 191.361 77.2749Z" fill="#263238"/>
<path d="M191.731 83.4489C191.609 82.9383 191.583 82.4142 191.655 81.8966C191.604 81.3768 191.659 80.8533 191.82 80.3502C192.028 80.8467 192.101 81.3779 192.032 81.9025C192.075 82.4312 191.971 82.9611 191.731 83.4489Z" fill="#263238"/>
<path d="M189.863 89.4112C189.937 88.895 190.108 88.3925 190.369 87.9236C190.509 87.4194 190.74 86.9372 191.053 86.4948C191.087 87.0245 190.962 87.5528 190.691 88.0294C190.552 88.5416 190.267 89.0163 189.863 89.4112Z" fill="#263238"/>
<path d="M185.686 94.4328C185.617 94.3622 186.151 93.8448 186.801 93.2097C187.45 92.5747 187.97 92.0337 188.059 92.0984C187.865 92.602 187.529 93.0565 187.081 93.4214C186.417 94.08 185.754 94.4974 185.686 94.4328Z" fill="#263238"/>
<path d="M179.652 97.7726C180.114 97.4366 180.636 97.1666 181.198 96.9729C181.703 96.685 182.26 96.4704 182.847 96.3379C182.449 96.7447 181.942 97.0617 181.369 97.2611C180.855 97.5507 180.265 97.7264 179.652 97.7726Z" fill="#263238"/>
<path d="M172.635 99.0721C173.207 98.8912 173.81 98.7938 174.42 98.784C175.012 98.6671 175.622 98.6334 176.226 98.684C175.689 98.9457 175.085 99.0891 174.468 99.1015C173.864 99.2258 173.233 99.2157 172.635 99.0721Z" fill="#263238"/>
<path d="M165.588 97.9255C166.757 98.1348 167.902 98.436 169.008 98.8251C168.395 98.8909 167.772 98.8179 167.202 98.6134C166.603 98.5099 166.046 98.2726 165.588 97.9255Z" fill="#263238"/>
<path d="M160.596 93.6684C160.698 93.639 161.013 94.2564 161.574 94.9502C162.135 95.644 162.675 96.1262 162.6 96.2144C162.525 96.3026 161.854 95.8616 161.266 95.1384C160.852 94.7294 160.615 94.2101 160.596 93.6684Z" fill="#263238"/>
<path d="M163.632 88.8527C163.632 88.9467 162.886 89.1525 162.107 89.6288C161.327 90.1051 160.91 90.699 160.814 90.6519C160.718 90.6049 161.019 89.8993 161.888 89.3701C162.371 89.013 162.995 88.8279 163.632 88.8527Z" fill="#263238"/>
<path d="M169.817 91.0577C169.721 91.1047 169.283 90.5285 168.572 89.964C167.86 89.3995 167.135 89.1173 167.204 89.0291C167.839 89.0721 168.431 89.3224 168.859 89.7288C169.35 90.061 169.689 90.5316 169.817 91.0577Z" fill="#263238"/>
<path d="M170.049 97.0612C170.1 96.5489 170.212 96.0424 170.384 95.55C170.435 95.0358 170.547 94.5275 170.719 94.033C170.903 94.5464 170.903 95.0954 170.719 95.6088C170.672 96.1401 170.438 96.6467 170.049 97.0612Z" fill="#263238"/>
<path d="M165.364 101.677C165.302 101.6 165.924 101.159 166.67 100.613C167.416 100.066 168.038 99.5954 168.086 99.6542C168.134 99.713 167.689 100.289 166.916 100.83C166.143 101.371 165.418 101.753 165.364 101.677Z" fill="#263238"/>
<path d="M158.967 104.535C159.419 104.183 159.95 103.913 160.526 103.741C161.052 103.474 161.637 103.304 162.243 103.241C161.268 103.864 160.152 104.304 158.967 104.535Z" fill="#263238"/>
<path d="M152.531 107.345C152.476 107.269 153.126 106.851 153.987 106.404C154.49 106.103 155.065 105.902 155.67 105.816C155.725 105.905 155.027 106.263 154.172 106.687C153.684 107.001 153.125 107.226 152.531 107.345Z" fill="#263238"/>
<path d="M147.059 111.391C146.983 111.332 147.455 110.756 148.174 110.15C148.57 109.747 149.068 109.427 149.63 109.215C149.699 109.286 149.145 109.803 148.44 110.391C147.736 110.979 147.168 111.449 147.059 111.391Z" fill="#263238"/>
<path d="M142.955 116.459C143.07 115.94 143.323 115.451 143.694 115.03C144.22 114.295 144.761 113.766 144.843 113.819C144.665 114.319 144.385 114.787 144.015 115.201C143.495 115.924 143.051 116.5 142.955 116.459Z" fill="#263238"/>
<path d="M140.328 122.222C140.294 121.695 140.406 121.169 140.657 120.687C140.786 120.17 141.055 119.686 141.443 119.276C141.243 120.298 140.867 121.289 140.328 122.216V122.222Z" fill="#263238"/>
<path d="M139.385 128.36C139.137 127.329 139.222 126.26 139.631 125.267C139.735 125.781 139.735 126.306 139.631 126.82C139.655 127.342 139.572 127.863 139.385 128.36Z" fill="#263238"/>
<path d="M140.328 134.493C140.021 134.039 139.828 133.534 139.76 133.011C139.559 132.511 139.507 131.975 139.61 131.453C139.875 131.924 140.05 132.428 140.13 132.947C140.319 133.445 140.387 133.971 140.328 134.493Z" fill="#263238"/>
<path d="M143.112 140.197C143.023 140.244 142.538 139.679 142.093 138.903C141.763 138.457 141.564 137.948 141.512 137.421C141.906 137.819 142.216 138.273 142.428 138.762C142.753 139.202 142.984 139.688 143.112 140.197Z" fill="#263238"/>
<path d="M147.435 145.154C147.367 145.212 146.751 144.766 146.067 144.107C145.627 143.738 145.29 143.288 145.082 142.79C145.171 142.731 145.711 143.249 146.354 143.895C146.997 144.542 147.51 145.089 147.435 145.154Z" fill="#263238"/>
<path d="M152.99 149.093C152.395 148.956 151.847 148.7 151.389 148.347C150.582 147.841 150.021 147.335 150.076 147.265C150.641 147.46 151.161 147.739 151.615 148.088C152.408 148.588 153.045 149.017 152.99 149.093Z" fill="#263238"/>
<path d="M159.487 151.763C158.872 151.759 158.267 151.628 157.723 151.381C157.129 151.238 156.587 150.971 156.143 150.604C156.742 150.68 157.322 150.841 157.859 151.081C158.441 151.232 158.99 151.463 159.487 151.763Z" fill="#263238"/>
<path d="M163.105 152.557C163.105 152.639 163.044 152.709 163.01 152.704C162.975 152.698 162.962 152.621 163.01 152.533C163.057 152.445 163.071 152.38 163.105 152.386C163.139 152.392 163.126 152.468 163.105 152.557Z" fill="#263238"/>
<path d="M157.876 137.158L150.396 135.046L148.868 139.046L156.348 141.158L157.876 137.158Z" fill="#183044"/>
<g opacity="0.3">
<path d="M157.876 137.158L150.396 135.046L148.868 139.046L156.348 141.158L157.876 137.158Z" fill="black"/>
</g>
<path d="M157.859 137.169C156.46 137.771 155.011 138.283 153.522 138.697L153.392 138.739L153.31 138.644L153.18 138.503C152.143 137.419 151.207 136.264 150.383 135.052C151.51 136.068 152.546 137.157 153.481 138.309L153.604 138.45L153.392 138.398C154.84 137.885 156.334 137.474 157.859 137.169Z" fill="#183044"/>
<g opacity="0.1">
<path d="M157.859 137.169C156.46 137.771 155.011 138.283 153.522 138.697L153.392 138.739L153.31 138.644L153.18 138.503C152.143 137.419 151.207 136.264 150.383 135.052C151.51 136.068 152.546 137.157 153.481 138.309L153.604 138.45L153.392 138.398C154.84 137.885 156.334 137.474 157.859 137.169Z" fill="black"/>
</g>
<path d="M152.531 137.504C152.016 137.902 151.42 138.215 150.773 138.427C150.177 138.731 149.524 138.943 148.844 139.056C149.363 138.66 149.961 138.348 150.608 138.133C151.203 137.831 151.853 137.618 152.531 137.504Z" fill="#183044"/>
<g opacity="0.1">
<path d="M152.531 137.504C152.016 137.902 151.42 138.215 150.773 138.427C150.177 138.731 149.524 138.943 148.844 139.056C149.363 138.66 149.961 138.348 150.608 138.133C151.203 137.831 151.853 137.618 152.531 137.504Z" fill="black"/>
</g>
<path d="M156.464 141.202C156.045 140.759 155.721 140.255 155.506 139.715C155.055 138.839 154.754 138.086 154.891 138.098C155.31 138.542 155.637 139.045 155.855 139.585C156.174 140.087 156.38 140.635 156.464 141.202Z" fill="#183044"/>
<g opacity="0.1">
<path d="M156.464 141.202C156.045 140.759 155.721 140.255 155.506 139.715C155.055 138.839 154.754 138.086 154.891 138.098C155.31 138.542 155.637 139.045 155.855 139.585C156.174 140.087 156.38 140.635 156.464 141.202Z" fill="black"/>
</g>
<path d="M188.376 152.827L169.141 147.397L165.21 157.687L184.445 163.117L188.376 152.827Z" fill="#183044"/>
<path d="M188.36 152.839C188.086 152.974 187.797 153.086 187.498 153.174L185.104 153.98C183.052 154.644 180.255 155.55 177.101 156.543L176.971 156.584L176.889 156.49L176.568 156.126C174.475 153.774 172.587 151.581 171.24 149.999L169.632 148.123C169.427 147.899 169.246 147.658 169.092 147.406C169.343 147.6 169.572 147.815 169.776 148.047L171.452 149.864C172.854 151.404 174.769 153.55 176.869 155.932L177.19 156.29L176.978 156.237C180.125 155.25 182.963 154.379 185.015 153.768L187.45 153.056C187.745 152.96 188.05 152.887 188.36 152.839Z" fill="#183044"/>
<g opacity="0.2">
<path d="M188.36 152.839C188.086 152.974 187.797 153.086 187.498 153.174L185.104 153.98C183.052 154.644 180.255 155.55 177.101 156.543L176.971 156.584L176.889 156.49L176.568 156.126C174.475 153.774 172.587 151.581 171.24 149.999L169.632 148.123C169.427 147.899 169.246 147.658 169.092 147.406C169.343 147.6 169.572 147.815 169.776 148.047L171.452 149.864C172.854 151.404 174.769 153.55 176.869 155.932L177.19 156.29L176.978 156.237C180.125 155.25 182.963 154.379 185.015 153.768L187.45 153.056C187.745 152.96 188.05 152.887 188.36 152.839Z" fill="black"/>
</g>
<path d="M174.678 153.715C173.183 154.518 171.624 155.232 170.014 155.849C168.457 156.559 166.846 157.176 165.191 157.696C166.681 156.885 168.238 156.17 169.849 155.555C171.405 154.841 173.019 154.226 174.678 153.715Z" fill="#183044"/>
<g opacity="0.2">
<path d="M174.678 153.715C173.183 154.518 171.624 155.232 170.014 155.849C168.457 156.559 166.846 157.176 165.191 157.696C166.681 156.885 168.238 156.17 169.849 155.555C171.405 154.841 173.019 154.226 174.678 153.715Z" fill="black"/>
</g>
<path d="M184.775 163.223C183.933 161.961 183.199 160.648 182.579 159.295C181.848 157.981 181.231 156.623 180.732 155.232C181.575 156.495 182.309 157.81 182.928 159.166C183.659 160.477 184.277 161.833 184.775 163.223Z" fill="#183044"/>
<g opacity="0.2">
<path d="M184.775 163.223C183.933 161.961 183.199 160.648 182.579 159.295C181.848 157.981 181.231 156.623 180.732 155.232C181.575 156.495 182.309 157.81 182.928 159.166C183.659 160.477 184.277 161.833 184.775 163.223Z" fill="black"/>
</g>
<path d="M170.177 149.94C169.699 150.242 169.127 150.415 168.533 150.438C167.94 150.46 167.353 150.331 166.845 150.066C166.337 149.802 165.932 149.414 165.681 148.951C165.429 148.489 165.343 147.973 165.433 147.468C165.523 146.964 165.785 146.493 166.185 146.117C166.586 145.74 167.108 145.474 167.684 145.352C168.261 145.23 168.867 145.258 169.425 145.432C169.983 145.606 170.469 145.918 170.82 146.33C171.054 146.603 171.223 146.913 171.317 147.243C171.411 147.572 171.429 147.914 171.369 148.249C171.31 148.585 171.174 148.907 170.969 149.197C170.765 149.487 170.496 149.739 170.177 149.94Z" fill="#263238"/>
<path d="M170.316 147.382C169.68 147.788 169.005 148.146 168.298 148.452L167.819 148.682L167.73 148.723L167.682 148.652C167.358 148.211 167.084 147.744 166.861 147.259C167.242 147.666 167.575 148.105 167.853 148.57L167.723 148.535L168.202 148.299C168.874 147.941 169.581 147.634 170.316 147.382Z" fill="white"/>
<path d="M176.021 138.962L165.941 136.117L163.882 141.508L173.961 144.353L176.021 138.962Z" fill="#183044"/>
<g opacity="0.2">
<path d="M176.021 138.962L165.941 136.117L163.882 141.508L173.961 144.353L176.021 138.962Z" fill="black"/>
</g>
<path d="M176 138.968C175.86 139.04 175.711 139.099 175.556 139.144L174.297 139.568C173.237 139.915 171.759 140.391 170.104 140.908H170.036L169.995 140.855L169.83 140.667C168.729 139.421 167.778 138.286 167.033 137.457L166.212 136.498C166.106 136.38 166.012 136.254 165.932 136.122C166.058 136.224 166.173 136.336 166.274 136.457L167.156 137.41C167.888 138.215 168.893 139.338 169.988 140.585L170.159 140.779H170.049C171.698 140.261 173.182 139.803 174.263 139.485L175.535 139.115C175.683 139.051 175.839 139.002 176 138.968Z" fill="#183044"/>
<g opacity="0.2">
<path d="M176 138.968C175.86 139.04 175.711 139.099 175.556 139.144L174.297 139.568C173.237 139.915 171.759 140.391 170.104 140.908H170.036L169.995 140.855L169.83 140.667C168.729 139.421 167.778 138.286 167.033 137.457L166.212 136.498C166.106 136.38 166.012 136.254 165.932 136.122C166.058 136.224 166.173 136.336 166.274 136.457L167.156 137.41C167.888 138.215 168.893 139.338 169.988 140.585L170.159 140.779H170.049C171.698 140.261 173.182 139.803 174.263 139.485L175.535 139.115C175.683 139.051 175.839 139.002 176 138.968Z" fill="#183044"/>
</g>
<path d="M168.838 139.427C168.054 139.845 167.238 140.219 166.396 140.544C165.579 140.916 164.733 141.24 163.865 141.514C164.646 141.089 165.462 140.713 166.307 140.391C167.123 140.017 167.968 139.695 168.838 139.427Z" fill="#183044"/>
<g opacity="0.2">
<path d="M168.838 139.427C168.054 139.845 167.238 140.219 166.396 140.544C165.579 140.916 164.733 141.24 163.865 141.514C164.646 141.089 165.462 140.713 166.307 140.391C167.123 140.017 167.968 139.695 168.838 139.427Z" fill="#183044"/>
</g>
<path d="M174.124 144.407C173.683 143.746 173.299 143.058 172.975 142.349C172.595 141.659 172.27 140.948 172.004 140.22C172.834 141.567 173.543 142.967 174.124 144.407Z" fill="#183044"/>
<g opacity="0.2">
<path d="M174.124 144.407C173.683 143.746 173.299 143.058 172.975 142.349C172.595 141.659 172.27 140.948 172.004 140.22C172.834 141.567 173.543 142.967 174.124 144.407Z" fill="#183044"/>
</g>
<path d="M95.0752 71.4831C94.3797 73.8365 92.888 75.9597 90.7888 77.5843C88.6896 79.2089 86.0772 80.2619 83.2818 80.6102C80.4865 80.9585 77.6338 80.5865 75.0844 79.5411C72.535 78.4957 70.4034 76.824 68.9592 74.7373C67.515 72.6505 66.823 70.2425 66.9707 67.8177C67.1184 65.3929 68.0992 63.0602 69.789 61.1146C71.4789 59.1689 73.8019 57.6977 76.4643 56.8869C79.1268 56.0762 82.0091 55.9623 84.7468 56.5597C88.4178 57.3623 91.5678 59.3851 93.5045 62.1835C95.4413 64.9819 96.0062 68.3268 95.0752 71.4831Z" fill="#263238"/>
<path d="M86.5044 61.8047C86.7575 61.8929 85.1364 66.003 82.8792 70.9892C82.544 71.7125 82.1952 72.4063 81.9147 73.0884L81.7437 73.4588L81.3128 73.3177C76.6821 71.783 73.2963 70.5188 73.3784 70.3366C73.4605 70.1543 76.9763 71.1068 81.6411 72.5592L81.0392 72.7944C81.3402 72.1123 81.6548 71.4126 81.9763 70.6894C84.2267 65.6972 86.2581 61.74 86.5044 61.8047Z" fill="white"/>
<path d="M270.624 245.249C273.183 244.216 276.059 243.915 278.832 244.39C280.323 244.602 281.876 244.978 282.895 245.943C283.914 246.907 284.099 248.6 282.936 249.43C282.183 249.863 281.28 250.06 280.378 249.988C278.203 249.988 275.795 249.635 274.058 250.758C273.066 251.399 272.409 252.464 271.226 252.781C270.634 252.897 270.014 252.845 269.459 252.633C268.904 252.421 268.444 252.061 268.148 251.605C267.584 250.669 267.459 249.584 267.799 248.571C267.939 247.867 268.267 247.201 268.758 246.625C269.248 246.048 269.887 245.577 270.624 245.249Z" fill="#183044"/>
<g opacity="0.2">
<path d="M270.624 245.249C273.183 244.216 276.059 243.915 278.832 244.39C280.323 244.602 281.876 244.978 282.895 245.943C283.914 246.907 284.099 248.6 282.936 249.43C282.183 249.863 281.28 250.06 280.378 249.988C278.203 249.988 275.795 249.635 274.058 250.758C273.066 251.399 272.409 252.464 271.226 252.781C270.634 252.897 270.014 252.845 269.459 252.633C268.904 252.421 268.444 252.061 268.148 251.605C267.584 250.669 267.459 249.584 267.799 248.571C267.939 247.867 268.267 247.201 268.758 246.625C269.248 246.048 269.887 245.577 270.624 245.249Z" fill="white"/>
</g>
<path d="M264.898 235.747C266.43 237.623 269.399 236.999 270.774 235.853C272.149 234.706 272.737 233.048 273.264 231.466C274.474 227.85 275.692 224.057 274.796 220.376C274.575 219.261 274.005 218.218 273.147 217.36C272.711 216.938 272.154 216.622 271.531 216.443C270.908 216.265 270.241 216.23 269.597 216.343C268.099 216.684 267.169 217.948 266.499 219.148C264.518 222.689 263.478 226.566 263.455 230.496C263.455 232.325 263.701 234.242 264.898 235.753" fill="#183044"/>
<path d="M260.706 238.44C262.362 236.746 262.676 234.277 261.937 232.154C261.099 230.048 259.604 228.181 257.615 226.756C255.349 225.037 252.717 223.711 249.865 222.852C248.758 222.468 247.569 222.293 246.376 222.34C245.781 222.371 245.204 222.526 244.694 222.791C244.184 223.056 243.757 223.424 243.449 223.863C242.635 225.198 243.415 226.803 244.263 228.144C245.754 230.477 247.456 232.707 249.352 234.812C250.877 236.5 252.628 238.169 254.954 238.928C257.279 239.686 259.694 239.604 260.925 238.216" fill="#183044"/>
<g opacity="0.1">
<path d="M260.706 238.44C262.362 236.746 262.676 234.277 261.937 232.154C261.099 230.048 259.604 228.181 257.615 226.756C255.349 225.037 252.717 223.711 249.865 222.852C248.758 222.468 247.569 222.293 246.376 222.34C245.781 222.371 245.204 222.526 244.694 222.791C244.184 223.056 243.757 223.424 243.449 223.863C242.635 225.198 243.415 226.803 244.263 228.144C245.754 230.477 247.456 232.707 249.352 234.812C250.877 236.5 252.628 238.169 254.954 238.928C257.279 239.686 259.694 239.604 260.925 238.216" fill="black"/>
</g>
<path d="M264.796 264.047C264.876 263.768 264.921 263.482 264.933 263.195C265.008 262.571 265.09 261.795 265.2 260.843C265.334 259.698 265.537 258.559 265.808 257.432C266.162 256.058 266.645 254.711 267.252 253.404C267.845 252.098 268.651 250.871 269.646 249.759C270.453 248.853 271.486 248.113 272.669 247.595C273.471 247.256 274.329 247.025 275.213 246.913C275.546 246.903 275.876 246.864 276.198 246.795C275.867 246.76 275.531 246.76 275.2 246.795C274.279 246.855 273.379 247.054 272.539 247.383C271.296 247.891 270.206 248.637 269.352 249.565C268.315 250.692 267.479 251.944 266.869 253.281C266.255 254.615 265.776 255.992 265.439 257.397C265.182 258.537 265.006 259.69 264.912 260.849C264.823 261.836 264.789 262.613 264.776 263.201C264.749 263.483 264.756 263.766 264.796 264.047Z" fill="#263238"/>
<path d="M264.981 262.248C265.001 262.117 265.001 261.985 264.981 261.854V260.725C264.981 259.743 264.981 258.32 265.035 256.568C265.138 253.04 265.487 248.212 266.171 242.891C266.855 237.57 267.758 232.777 268.585 229.367C268.777 228.509 268.975 227.732 269.16 227.056C269.345 226.38 269.488 225.786 269.632 225.292C269.775 224.798 269.858 224.481 269.94 224.193C269.986 224.065 270.014 223.932 270.022 223.799C269.952 223.916 269.9 224.041 269.864 224.169L269.481 225.257C269.31 225.727 269.139 226.309 268.941 226.986C268.743 227.662 268.517 228.432 268.298 229.296C267.182 233.771 266.344 238.293 265.788 242.844C265.104 248.177 264.803 253.034 264.775 256.55C264.775 258.314 264.775 259.731 264.844 260.713C264.876 261.172 264.903 261.548 264.926 261.842C264.929 261.979 264.947 262.115 264.981 262.248Z" fill="#263238"/>
<path d="M265.008 252.887C265.045 252.496 265.045 252.102 265.008 251.711C264.931 250.639 264.789 249.572 264.584 248.512C263.904 245.01 262.737 241.591 261.109 238.328C259.537 235.03 257.279 232.005 254.447 229.402C253.957 228.956 253.434 228.538 252.88 228.15C252.641 227.973 252.429 227.803 252.196 227.662L251.594 227.303C251.226 227.065 250.837 226.85 250.432 226.662C251.765 227.565 253.033 228.537 254.228 229.573C256.966 232.197 259.164 235.204 260.726 238.463C261.624 240.241 262.385 242.068 263.004 243.932C263.599 245.643 263.995 247.219 264.296 248.548C264.597 249.876 264.741 250.964 264.844 251.717C264.866 252.11 264.921 252.501 265.008 252.887Z" fill="#263238"/>
<path d="M160.979 175.371H189.618L200.958 148.135H199.371L188.126 174.042L160.979 174.177V175.371Z" fill="#455A64"/>
<path d="M148.324 178.811L149.384 264.124H152.298L151.115 178.182L148.324 178.811Z" fill="#263238"/>
<path d="M209.625 177.982C209.235 179.61 212.251 264.318 212.251 264.318H214.987L212.764 177.982H209.625Z" fill="#263238"/>
<path d="M243.107 175.371H121.334V179.687H131.382L124.843 263.847L127.702 263.983L134.248 179.687H232.86L237.641 264.018H240.507L235.726 179.687H243.107V175.371Z" fill="#263238"/>
<path d="M174.419 260.913V254.445L160.321 254.322L160.164 263.789L161.04 263.841C164.925 264.065 180.821 264.724 183.427 264.071C186.327 263.342 174.419 260.913 174.419 260.913Z" fill="#183044"/>
<path d="M165.267 263.736C165.073 262.711 164.444 261.785 163.502 261.137C162.577 260.493 161.407 260.168 160.219 260.225L160.178 263.612L165.267 263.736Z" fill="#F5F5F5"/>
<path d="M180.22 262.277C180.22 262.277 184.406 263.359 183.872 263.947C183.339 264.535 167.251 264.388 160.158 263.789V263.518L178.927 263.83C178.927 263.83 179.399 262.301 180.22 262.277Z" fill="#F5F5F5"/>
<path d="M160.206 263.506L160.89 263.553L163.448 263.671C165.61 263.759 168.599 263.841 171.903 263.877C175.206 263.912 178.202 263.877 180.364 263.836L182.929 263.771L183.613 263.742H183.852C183.773 263.733 183.692 263.733 183.613 263.742H182.929H180.364C178.202 263.742 175.206 263.742 171.909 263.742C168.613 263.742 165.617 263.636 163.455 263.577L160.89 263.506H160.206Z" fill="#263238"/>
<path d="M178.947 264.012C179.063 263.648 179.229 263.297 179.44 262.965C179.694 262.658 179.991 262.378 180.322 262.13C179.899 262.288 179.541 262.552 179.297 262.888C179.053 263.224 178.933 263.616 178.954 264.012H178.947Z" fill="#263238"/>
<path d="M174.809 262.166C174.85 262.166 175.055 261.978 175.26 261.701C175.465 261.425 175.609 261.184 175.568 261.16C175.527 261.137 175.328 261.348 175.116 261.625C174.969 261.784 174.864 261.968 174.809 262.166Z" fill="#263238"/>
<path d="M173.673 261.66C173.707 261.689 173.933 261.566 174.179 261.378C174.425 261.19 174.596 261.019 174.562 260.99C174.528 260.96 174.309 261.084 174.063 261.266C173.816 261.448 173.645 261.607 173.673 261.66Z" fill="#263238"/>
<path d="M172.969 260.484C173.201 260.562 173.452 260.592 173.701 260.572C173.949 260.6 174.201 260.58 174.439 260.513C174.207 260.436 173.956 260.405 173.707 260.425C173.459 260.398 173.207 260.418 172.969 260.484Z" fill="#263238"/>
<path d="M172.73 259.678C172.984 259.797 173.263 259.869 173.55 259.89C173.837 259.911 174.126 259.881 174.399 259.802C173.843 259.765 173.286 259.724 172.73 259.678Z" fill="#263238"/>
<path d="M175.301 261.113C175.602 261.158 175.909 261.158 176.21 261.113C176.538 261.084 176.861 261.026 177.175 260.943C177.368 260.896 177.553 260.831 177.729 260.749C177.783 260.724 177.831 260.691 177.869 260.651C177.908 260.61 177.937 260.564 177.955 260.513C177.97 260.455 177.966 260.395 177.943 260.339C177.92 260.283 177.879 260.233 177.825 260.196C177.481 260.05 177.09 260.01 176.716 260.083C176.343 260.156 176.009 260.337 175.773 260.596C175.629 260.748 175.524 260.924 175.465 261.113C175.465 261.248 175.465 261.325 175.465 261.325C175.555 261.085 175.697 260.862 175.882 260.666C176.088 260.461 176.359 260.311 176.662 260.237C176.839 260.188 177.026 260.17 177.211 260.183C177.397 260.196 177.577 260.24 177.743 260.314C177.886 260.408 177.825 260.549 177.667 260.631C177.504 260.706 177.332 260.767 177.154 260.813C176.849 260.901 176.535 260.968 176.217 261.013C175.65 261.072 175.301 261.072 175.301 261.113Z" fill="#263238"/>
<path d="M175.534 261.154C175.648 260.992 175.689 260.8 175.65 260.613C175.625 260.404 175.543 260.203 175.411 260.025C175.335 259.908 175.227 259.81 175.095 259.739C174.964 259.668 174.813 259.627 174.658 259.62C174.566 259.635 174.484 259.682 174.432 259.749C174.379 259.816 174.36 259.899 174.378 259.978C174.396 260.101 174.445 260.22 174.521 260.325C174.642 260.497 174.785 260.656 174.945 260.802C175.082 260.943 175.259 261.053 175.458 261.119C175.458 261.119 175.281 260.978 175.034 260.731C174.892 260.586 174.768 260.428 174.665 260.261C174.542 260.096 174.46 259.796 174.665 259.767C174.87 259.737 175.123 259.943 175.26 260.102C175.381 260.254 175.465 260.426 175.506 260.607C175.54 260.788 175.549 260.972 175.534 261.154Z" fill="#263238"/>
<path d="M160.295 260.196C160.295 260.196 160.698 260.167 161.335 260.237C162.163 260.328 162.946 260.612 163.599 261.06C164.233 261.53 164.706 262.14 164.967 262.824C165.172 263.342 165.192 263.695 165.22 263.689C165.247 263.683 165.22 263.6 165.22 263.448C165.196 263.225 165.148 263.004 165.076 262.789C164.83 262.076 164.339 261.442 163.668 260.973C162.997 260.503 162.177 260.218 161.314 260.155C161.055 260.13 160.793 260.13 160.534 260.155C160.452 260.155 160.371 260.169 160.295 260.196Z" fill="#263238"/>
<path d="M161.821 255.192C161.657 256.846 161.611 258.507 161.684 260.166C161.792 259.341 161.843 258.51 161.835 257.679C161.884 256.851 161.88 256.02 161.821 255.192Z" fill="#263238"/>
<path d="M167.059 262.571C167.729 262.715 168.42 262.78 169.111 262.765C169.798 262.804 170.488 262.762 171.163 262.642C171.163 262.601 170.239 262.642 169.111 262.642C167.982 262.642 167.065 262.53 167.059 262.571Z" fill="#263238"/>
<path d="M164.297 262.542C164.297 262.571 164.372 262.713 164.461 262.895C164.55 263.077 164.605 263.236 164.653 263.236C164.7 263.236 164.728 263.042 164.618 262.836C164.509 262.63 164.331 262.513 164.297 262.542Z" fill="#263238"/>
<path d="M163.27 261.419C163.27 261.448 163.324 261.572 163.468 261.701C163.612 261.831 163.755 261.913 163.789 261.883C163.824 261.854 163.735 261.731 163.591 261.601C163.447 261.472 163.304 261.39 163.27 261.419Z" fill="#263238"/>
<path d="M161.786 260.896C161.786 260.937 161.984 260.937 162.189 261.001C162.395 261.066 162.545 261.166 162.579 261.137C162.613 261.107 162.504 260.943 162.244 260.866C161.984 260.79 161.772 260.86 161.786 260.896Z" fill="#263238"/>
<path d="M160.738 260.649C160.738 260.684 160.8 260.749 160.916 260.79C161.032 260.831 161.142 260.831 161.156 260.79C161.169 260.749 161.094 260.69 160.978 260.649C160.861 260.608 160.738 260.608 160.738 260.649Z" fill="#263238"/>
<path d="M202.135 254.386L199.044 248.477L186.137 253.352L190.521 262.03L191.342 261.772C194.995 260.596 209.81 255.58 211.862 254.063C214.181 252.37 202.135 254.386 202.135 254.386Z" fill="#183044"/>
<path d="M195.18 260.178C194.514 259.306 193.495 258.677 192.32 258.414C191.171 258.158 189.953 258.277 188.9 258.749L190.48 261.848L195.18 260.178Z" fill="#F5F5F5"/>
<path d="M208.106 253.563C208.106 253.563 212.436 253.063 212.21 253.793C211.984 254.522 197.272 260.072 190.521 262.025L190.418 261.772L207.668 255.415C207.668 255.415 207.367 253.875 208.106 253.563Z" fill="#F5F5F5"/>
<path d="M190.227 261.848L190.459 261.784L191.143 261.578L193.537 260.778C195.548 260.09 198.325 259.114 201.342 257.973C204.358 256.833 207.08 255.757 209.03 254.945L211.335 253.981L211.957 253.704C212.032 253.679 212.104 253.645 212.169 253.604L211.944 253.681L211.307 253.928L208.982 254.857C207.019 255.633 204.296 256.703 201.273 257.838C198.25 258.973 195.487 259.972 193.489 260.684L191.123 261.525L190.48 261.754L190.227 261.848Z" fill="#263238"/>
<path d="M207.778 255.598C207.706 255.225 207.688 254.846 207.723 254.469C207.813 254.099 207.949 253.738 208.127 253.393C207.791 253.671 207.587 254.046 207.552 254.445C207.461 254.84 207.541 255.25 207.778 255.598Z" fill="#263238"/>
<path d="M203.148 255.368C203.195 255.368 203.278 255.116 203.339 254.78C203.401 254.445 203.408 254.192 203.339 254.192C203.271 254.192 203.209 254.445 203.148 254.78C203.091 254.973 203.091 255.175 203.148 255.368Z" fill="#263238"/>
<path d="M201.834 255.292C201.875 255.292 202.018 255.11 202.155 254.857C202.292 254.604 202.36 254.381 202.319 254.363C202.278 254.345 202.135 254.539 201.998 254.798C201.861 255.057 201.779 255.274 201.834 255.292Z" fill="#263238"/>
<path d="M200.638 254.492C200.878 254.472 201.111 254.41 201.322 254.31C201.698 254.175 202.006 254.034 201.965 253.998C201.924 253.963 201.629 254.04 201.281 254.175C200.932 254.31 200.617 254.451 200.638 254.492Z" fill="#263238"/>
<path d="M200.035 253.84C200.323 253.88 200.619 253.845 200.883 253.74C201.164 253.68 201.417 253.549 201.608 253.363C201.338 253.423 201.075 253.504 200.822 253.604C200.551 253.661 200.288 253.74 200.035 253.84Z" fill="#263238"/>
<path d="M203.065 254.239C203.359 254.174 203.639 254.067 203.893 253.922C204.174 253.776 204.439 253.609 204.686 253.422C204.84 253.312 204.98 253.188 205.103 253.052C205.175 252.965 205.207 252.858 205.192 252.752C205.18 252.694 205.148 252.641 205.101 252.599C205.053 252.557 204.992 252.529 204.925 252.517C204.678 252.508 204.431 252.546 204.203 252.63C203.975 252.713 203.772 252.839 203.607 252.998C203.443 253.157 203.322 253.346 203.253 253.551C203.184 253.755 203.169 253.97 203.209 254.181C203.216 254.253 203.242 254.323 203.284 254.386C203.259 254.134 203.282 253.88 203.352 253.634C203.442 253.375 203.618 253.144 203.858 252.969C204.137 252.755 204.503 252.643 204.877 252.658C205.055 252.687 205.069 252.84 204.96 252.975C204.847 253.101 204.721 253.217 204.583 253.322C204.344 253.507 204.09 253.678 203.824 253.834C203.366 254.098 203.051 254.216 203.065 254.239Z" fill="#263238"/>
<path d="M203.298 254.192C203.319 254.006 203.264 253.818 203.14 253.663C203.017 253.486 202.849 253.335 202.648 253.222C202.524 253.143 202.378 253.093 202.225 253.076C202.072 253.058 201.916 253.074 201.772 253.122C201.696 253.169 201.643 253.239 201.627 253.318C201.61 253.397 201.631 253.479 201.684 253.546C201.758 253.653 201.861 253.744 201.985 253.81C202.176 253.927 202.382 254.024 202.6 254.098C202.794 254.178 203.008 254.214 203.223 254.204C203.223 254.204 202.99 254.139 202.648 253.998C202.446 253.919 202.256 253.821 202.08 253.704C201.889 253.599 201.677 253.357 201.868 253.246C201.983 253.217 202.104 253.21 202.223 253.226C202.341 253.243 202.454 253.281 202.552 253.34C202.74 253.434 202.901 253.562 203.024 253.716C203.131 253.868 203.222 254.027 203.298 254.192Z" fill="#263238"/>
<path d="M188.948 258.72C188.948 258.72 189.297 258.55 189.912 258.391C190.709 258.176 191.561 258.159 192.368 258.344C193.176 258.528 193.906 258.905 194.474 259.432C194.912 259.837 195.097 260.149 195.124 260.131C195.098 260.052 195.059 259.977 195.008 259.908C194.883 259.714 194.734 259.533 194.563 259.367C194 258.799 193.252 258.389 192.416 258.191C191.578 258.005 190.695 258.036 189.878 258.279C189.639 258.354 189.409 258.451 189.194 258.567C189.016 258.649 188.941 258.72 188.948 258.72Z" fill="#263238"/>
<path d="M187.928 253.587C188.218 254.389 188.567 255.175 188.974 255.939C189.329 256.712 189.733 257.468 190.185 258.203C189.888 257.411 189.536 256.636 189.132 255.88C188.78 255.097 188.378 254.331 187.928 253.587Z" fill="#263238"/>
<path d="M196.246 258.485C196.927 258.373 197.589 258.187 198.216 257.932C198.864 257.725 199.477 257.442 200.036 257.091C200.036 257.056 199.194 257.415 198.148 257.797C197.101 258.179 196.233 258.444 196.246 258.485Z" fill="#263238"/>
<path d="M193.715 259.432C193.715 259.473 193.865 259.561 194.036 259.696C194.207 259.831 194.33 259.961 194.371 259.937C194.413 259.914 194.371 259.737 194.153 259.584C193.934 259.432 193.729 259.396 193.715 259.432Z" fill="#263238"/>
<path d="M192.244 258.773C192.244 258.814 192.367 258.896 192.559 258.961C192.75 259.026 192.921 259.049 192.942 259.014C192.962 258.979 192.819 258.891 192.627 258.826C192.436 258.761 192.258 258.72 192.244 258.773Z" fill="#263238"/>
<path d="M190.643 258.82C190.643 258.855 190.841 258.791 191.06 258.779C191.279 258.767 191.457 258.779 191.477 258.779C191.498 258.779 191.313 258.626 191.047 258.649C190.78 258.673 190.609 258.791 190.643 258.82Z" fill="#263238"/>
<path d="M189.557 258.967C189.557 259.008 189.666 259.038 189.789 259.032C189.912 259.026 190.015 258.991 190.015 258.949C190.015 258.908 189.905 258.879 189.782 258.885C189.659 258.891 189.557 258.926 189.557 258.967Z" fill="#263238"/>
<path d="M74.22 211.163L64.0421 145.783C63.9787 145.376 64.0217 144.962 64.1681 144.571C64.3144 144.18 64.5605 143.823 64.8882 143.524C65.2159 143.225 65.6171 142.993 66.0624 142.845C66.5077 142.697 66.9859 142.636 67.4621 142.666L91.9972 144.43C93.0916 144.51 94.1179 144.92 94.8932 145.589C95.6686 146.257 96.1427 147.141 96.2312 148.082L102.209 209.981L74.22 211.163Z" fill="#183044"/>
<g opacity="0.2">
<path d="M74.22 211.163L64.0421 145.783C63.9787 145.376 64.0217 144.962 64.1681 144.571C64.3144 144.18 64.5605 143.823 64.8882 143.524C65.2159 143.225 65.6171 142.993 66.0624 142.845C66.5077 142.697 66.9859 142.636 67.4621 142.666L91.9972 144.43C93.0916 144.51 94.1179 144.92 94.8932 145.589C95.6686 146.257 96.1427 147.141 96.2312 148.082L102.209 209.981L74.22 211.163Z" fill="black"/>
</g>
<path d="M97.8867 115.078C97.6815 112.584 96.9223 110.156 96.5187 107.686C96.1152 105.217 96.0331 102.618 97.1685 100.319C97.8635 99.037 98.846 97.8859 100.06 96.9313C101.273 95.9768 102.694 95.2376 104.241 94.7562C107.348 93.8086 110.665 93.4828 113.94 93.8037C114.532 93.8191 115.115 93.9329 115.657 94.1388C115.925 94.2453 116.155 94.4097 116.327 94.6158C116.498 94.8219 116.604 95.0628 116.635 95.3148C116.642 95.4399 116.618 95.5649 116.566 95.6818C116.514 95.7988 116.435 95.9053 116.333 95.9947C116.231 96.0841 116.108 96.1544 115.973 96.2014C115.838 96.2483 115.693 96.2707 115.548 96.2674C116.797 96.3771 118.029 96.6038 119.221 96.9436C119.705 97.0615 120.126 97.3216 120.411 97.6786C120.526 97.9022 120.572 98.1478 120.543 98.3912C120.514 98.6345 120.412 98.8672 120.247 99.0663C119.907 99.4602 119.487 99.7987 119.009 100.066C119.155 100.041 119.306 100.041 119.452 100.067C119.598 100.092 119.737 100.142 119.861 100.213C119.985 100.285 120.091 100.377 120.174 100.484C120.257 100.59 120.314 100.71 120.342 100.836C120.386 101.093 120.367 101.355 120.286 101.605C120.204 101.855 120.063 102.088 119.87 102.289C119.522 102.712 119.07 103.059 118.708 103.465C117.23 105.152 117.518 107.498 117.873 109.591" fill="#263238"/>
<path d="M98.1525 129.683L111.976 129.472C112.161 128.096 112.428 122.745 112.428 122.745C112.428 122.745 118.207 122.286 118.631 117.371C119.056 112.455 118.878 101.107 118.878 101.107C115.711 99.7324 112.175 99.1098 108.635 99.3031C105.095 99.4964 101.68 100.499 98.7408 102.206L97.8516 102.724L98.1525 129.683Z" fill="#B78876"/>
<path d="M116.964 109.633C116.847 109.532 116.768 109.404 116.736 109.265C116.705 109.126 116.721 108.982 116.785 108.851C116.848 108.72 116.955 108.609 117.092 108.53C117.229 108.451 117.39 108.409 117.555 108.409C117.72 108.409 117.881 108.451 118.018 108.53C118.155 108.609 118.262 108.72 118.326 108.851C118.389 108.982 118.406 109.126 118.374 109.265C118.342 109.404 118.263 109.532 118.147 109.633C118.07 109.7 117.978 109.754 117.876 109.791C117.775 109.828 117.665 109.847 117.555 109.847C117.445 109.847 117.336 109.828 117.234 109.791C117.133 109.754 117.041 109.7 116.964 109.633Z" fill="#263238"/>
<path d="M118.419 108.439C118.324 108.521 117.79 108.121 117.003 108.074C116.217 108.027 115.635 108.351 115.533 108.257C115.43 108.163 115.594 108.069 115.854 107.916C116.208 107.728 116.621 107.642 117.035 107.668C117.449 107.694 117.842 107.833 118.159 108.063C118.392 108.245 118.467 108.404 118.419 108.439Z" fill="#263238"/>
<path d="M109.296 108.551C109.432 108.632 109.537 108.746 109.597 108.879C109.657 109.012 109.669 109.156 109.633 109.295C109.597 109.434 109.514 109.561 109.394 109.659C109.274 109.757 109.123 109.822 108.96 109.846C108.797 109.87 108.629 109.852 108.478 109.794C108.327 109.736 108.199 109.64 108.112 109.52C108.024 109.399 107.98 109.259 107.985 109.117C107.99 108.975 108.044 108.837 108.14 108.721C108.203 108.645 108.283 108.579 108.375 108.529C108.467 108.479 108.57 108.445 108.677 108.43C108.785 108.414 108.895 108.416 109.001 108.437C109.107 108.458 109.208 108.496 109.296 108.551Z" fill="#263238"/>
<path d="M109.815 108.586C109.719 108.662 109.186 108.263 108.399 108.216C107.612 108.169 107.031 108.492 106.935 108.404C106.839 108.316 106.99 108.21 107.257 108.063C107.608 107.872 108.02 107.784 108.434 107.81C108.848 107.837 109.241 107.977 109.555 108.21C109.787 108.386 109.863 108.551 109.815 108.586Z" fill="#263238"/>
<path d="M112.579 114.343C112.994 114.225 113.429 114.169 113.865 114.178C114.077 114.178 114.242 114.137 114.262 114.043C114.28 113.865 114.242 113.686 114.153 113.525C113.982 113.067 113.804 112.602 113.626 112.114C112.908 110.109 112.415 108.457 112.538 108.427C112.662 108.398 113.332 109.997 114.057 112.002C114.228 112.49 114.385 112.961 114.549 113.419C114.662 113.657 114.681 113.919 114.604 114.166C114.57 114.232 114.518 114.291 114.453 114.337C114.387 114.383 114.31 114.415 114.228 114.431C114.112 114.441 113.995 114.441 113.879 114.431C113.443 114.465 113.004 114.435 112.579 114.343Z" fill="#263238"/>
<path d="M109.958 114.954C109.171 114.489 112.147 116.13 113.754 116.13C113.46 116.469 113.04 116.712 112.564 116.819C112.088 116.926 111.584 116.89 111.135 116.718C109.438 116.101 109.958 114.954 109.958 114.954Z" fill="white"/>
<path d="M112.45 122.674C109.803 122.579 107.25 121.808 105.117 120.458C105.117 120.458 106.629 124.092 112.368 123.95L112.45 122.674Z" fill="#A36957"/>
<path d="M97.6668 106.428L97.9609 112.808C97.9609 112.808 100.567 112.126 100.738 112.061C100.909 111.996 100.69 104.247 100.69 104.247C100.69 104.247 100.328 101.307 102.544 100.63C104.876 99.9071 105.889 101.359 109.192 101.806C120.088 103.388 119.343 100.513 119.343 100.513C119.343 100.513 120.711 99.2485 117.913 97.8608C115.116 96.4732 108.118 96.0028 104.288 97.1376C96.7639 99.3661 96.3125 101.583 96.3125 103.541C96.3125 106.334 97.6668 106.428 97.6668 106.428Z" fill="#263238"/>
<path d="M98.9473 107.087C98.8241 107.045 94.7065 106.587 95.0963 110.767C95.4862 114.948 100.267 113.231 100.267 113.119C100.267 113.008 98.9473 107.087 98.9473 107.087Z" fill="#B78876"/>
<path d="M98.6396 111.72C98.6396 111.72 98.5575 111.779 98.4207 111.843C98.2246 111.931 97.9967 111.95 97.7846 111.896C97.4529 111.75 97.1738 111.529 96.9774 111.256C96.7809 110.984 96.6746 110.67 96.6697 110.35C96.6224 109.991 96.6691 109.627 96.8065 109.286C96.843 109.154 96.9154 109.033 97.0177 108.93C97.12 108.828 97.2493 108.748 97.3947 108.698C97.4902 108.669 97.5941 108.67 97.6888 108.7C97.7836 108.73 97.8633 108.788 97.9146 108.862C97.9898 108.974 97.9625 109.062 97.9898 109.068C98.0172 109.074 98.0856 108.986 98.0309 108.821C97.9972 108.718 97.9221 108.628 97.8188 108.568C97.6746 108.495 97.5043 108.47 97.34 108.498C97.1433 108.544 96.9638 108.634 96.8188 108.757C96.6739 108.881 96.5684 109.035 96.5124 109.203C96.34 109.577 96.2766 109.98 96.3277 110.379C96.4371 111.22 97.0117 111.973 97.6957 112.102C97.8296 112.126 97.9679 112.123 98.1004 112.094C98.233 112.066 98.3564 112.012 98.4618 111.938C98.6396 111.849 98.6533 111.749 98.6396 111.72Z" fill="#A36957"/>
<path d="M153.27 163.464C153.27 163.464 160.11 163.182 161.478 163.717C163.844 164.605 170.889 174.101 170.534 174.101C169.467 174.101 167.271 174.101 167.271 174.101L156.327 170.532L153.748 171.09L153.27 163.464Z" fill="#B78876"/>
<path d="M182.683 190.73C182.683 190.73 203.148 251.664 203.196 251.364C203.244 251.064 184.851 258.967 184.851 258.967L172.443 214.902L182.683 190.73Z" fill="#263238"/>
<path d="M184.447 259.337L203.831 251.205L202.99 248.977L183.455 257.121L184.447 259.337Z" fill="#455A64"/>
<path d="M181.903 236.923C181.8 236.923 181.588 236.564 181.417 236.076C181.246 235.588 181.191 235.159 181.294 235.135C181.396 235.112 181.609 235.488 181.78 235.982C181.951 236.476 181.998 236.893 181.903 236.923Z" fill="#455A64"/>
<path d="M183.167 240.492C183.064 240.492 182.839 240.139 182.668 239.651C182.497 239.163 182.428 238.74 182.524 238.71C182.62 238.681 182.846 239.063 183.023 239.551C183.201 240.039 183.263 240.451 183.167 240.492Z" fill="#455A64"/>
<path d="M184.487 244.02C184.384 244.049 184.159 243.673 183.974 243.185C183.789 242.697 183.721 242.28 183.817 242.25C183.912 242.221 184.145 242.597 184.33 243.085C184.514 243.573 184.583 244.02 184.487 244.02Z" fill="#455A64"/>
<path d="M185.869 247.548C185.767 247.577 185.534 247.207 185.342 246.719C185.151 246.231 185.069 245.813 185.171 245.784C185.274 245.755 185.507 246.125 185.698 246.613C185.89 247.101 185.965 247.548 185.869 247.548Z" fill="#455A64"/>
<path d="M187.305 251.076C187.209 251.076 186.963 250.735 186.765 250.253C186.566 249.771 186.477 249.353 186.58 249.324C186.683 249.294 186.915 249.659 187.12 250.147C187.326 250.635 187.415 251.029 187.305 251.076Z" fill="#455A64"/>
<path d="M188.783 254.551C188.68 254.551 188.434 254.216 188.229 253.734C188.024 253.252 187.928 252.834 188.024 252.805C188.119 252.775 188.372 253.14 188.578 253.622C188.783 254.104 188.899 254.522 188.783 254.551Z" fill="#455A64"/>
<path d="M187.709 256.015C187.541 255.82 187.403 255.606 187.299 255.38C187.06 254.957 186.731 254.339 186.355 253.569C185.596 252.029 184.659 249.859 183.715 247.442C182.771 245.026 181.977 242.815 181.417 241.215C181.157 240.463 180.938 239.828 180.733 239.316C180.633 239.087 180.569 238.848 180.541 238.605C180.675 238.819 180.785 239.043 180.869 239.275C181.061 239.716 181.321 240.351 181.635 241.145L184.036 247.336C184.973 249.753 185.869 251.929 186.567 253.487L187.402 255.327C187.532 255.547 187.635 255.777 187.709 256.015Z" fill="#455A64"/>
<path d="M87.2016 186.496C87.3726 183.268 85.2385 204.212 103.966 204.765C122.694 205.318 160.957 205.077 160.957 205.077L156.477 258.191H178.947L183.639 201.684C183.639 201.684 186.033 185.314 173.003 183.227C164.849 181.915 114.144 181.498 114.144 181.498L87.2016 186.496Z" fill="#263238"/>
<path d="M155.965 258.303H179.624V255.139L155.965 255.168V258.303Z" fill="#455A64"/>
<path d="M118.953 202.272C119.033 202.263 119.113 202.263 119.193 202.272L119.877 202.237L122.613 202.131L132.77 201.796L167.031 200.784H167.25V200.973C166.943 203.136 166.683 205.424 166.464 207.746C166.163 211.068 165.876 214.308 165.595 217.437C165.315 220.565 164.911 223.575 164.562 226.445C163.878 232.172 163.235 237.334 162.702 241.68C162.168 246.025 161.724 249.506 161.416 251.946C161.259 253.122 161.135 254.087 161.046 254.739C161.005 255.045 160.971 255.286 160.944 255.462C160.935 255.546 160.919 255.628 160.896 255.709C160.885 255.627 160.885 255.545 160.896 255.462C160.896 255.28 160.937 255.039 160.964 254.733C161.033 254.075 161.135 253.134 161.265 251.934C161.539 249.494 161.949 245.984 162.435 241.656C162.921 237.329 163.543 232.148 164.213 226.409C164.542 223.54 164.897 220.529 165.219 217.407C165.54 214.285 165.787 211.039 166.081 207.723C166.3 205.371 166.56 203.107 166.874 200.931L167.066 201.114L132.797 202.013L122.64 202.254L119.904 202.301H119.22C119.13 202.303 119.04 202.293 118.953 202.272Z" fill="#455A64"/>
<path d="M121.115 199.973C121.115 200.061 120.636 200.143 120.034 200.155C119.432 200.167 118.953 200.108 118.953 200.02C118.953 199.932 119.432 199.844 120.027 199.832C120.622 199.82 121.115 199.885 121.115 199.973Z" fill="#455A64"/>
<path d="M125.446 199.885C125.446 199.973 124.967 200.055 124.365 200.067C123.763 200.079 123.284 200.02 123.277 199.932C123.271 199.844 123.763 199.761 124.358 199.744C124.953 199.726 125.446 199.797 125.446 199.885Z" fill="#455A64"/>
<path d="M129.774 199.797C129.774 199.891 129.295 199.967 128.693 199.985C128.091 200.002 127.612 199.932 127.606 199.844C127.599 199.755 128.091 199.673 128.686 199.661C129.281 199.65 129.774 199.708 129.774 199.797Z" fill="#455A64"/>
<path d="M134.104 199.708C134.104 199.802 133.625 199.885 133.023 199.897C132.421 199.908 131.942 199.844 131.936 199.755C131.929 199.667 132.421 199.585 133.016 199.573C133.611 199.561 134.104 199.62 134.104 199.708Z" fill="#455A64"/>
<path d="M138.434 199.626C138.434 199.714 137.955 199.797 137.353 199.808C136.751 199.82 136.273 199.755 136.266 199.667C136.259 199.579 136.751 199.497 137.346 199.485C137.941 199.473 138.434 199.532 138.434 199.626Z" fill="#455A64"/>
<path d="M142.764 199.538C142.764 199.626 142.285 199.708 141.683 199.72C141.081 199.732 140.603 199.667 140.596 199.579C140.589 199.491 141.081 199.408 141.676 199.397C142.272 199.385 142.757 199.45 142.764 199.538Z" fill="#455A64"/>
<path d="M147.094 199.45C147.094 199.538 146.615 199.62 146.013 199.632C145.411 199.644 144.933 199.579 144.926 199.491C144.919 199.403 145.405 199.32 146.007 199.309C146.608 199.297 147.06 199.361 147.094 199.45Z" fill="#455A64"/>
<path d="M151.422 199.361C151.422 199.45 150.943 199.532 150.342 199.544C149.74 199.555 149.261 199.497 149.254 199.403C149.247 199.309 149.733 199.232 150.335 199.22C150.937 199.209 151.415 199.273 151.422 199.361Z" fill="#455A64"/>
<path d="M155.752 199.273C155.752 199.361 155.274 199.444 154.672 199.456C154.07 199.467 153.591 199.408 153.584 199.32C153.577 199.232 154.063 199.144 154.665 199.132C155.267 199.12 155.746 199.185 155.752 199.273Z" fill="#455A64"/>
<path d="M160.055 199.185C160.055 199.273 159.569 199.356 158.974 199.367C158.379 199.379 157.894 199.32 157.887 199.232C157.88 199.144 158.366 199.056 158.968 199.044C159.569 199.032 160.055 199.097 160.055 199.185Z" fill="#455A64"/>
<path d="M164.412 199.097C164.412 199.185 163.927 199.267 163.332 199.279C162.737 199.291 162.251 199.232 162.244 199.144C162.237 199.056 162.723 198.973 163.325 198.962C163.927 198.95 164.406 199.009 164.412 199.097Z" fill="#455A64"/>
<path d="M168.742 199.009C168.742 199.103 168.257 199.185 167.662 199.197C167.067 199.209 166.574 199.144 166.574 199.056C166.574 198.967 167.053 198.885 167.655 198.873C168.257 198.862 168.736 198.92 168.742 199.009Z" fill="#455A64"/>
<path d="M168.736 202.384C168.626 202.384 168.592 201.955 168.653 201.443C168.715 200.931 168.838 200.526 168.941 200.532C169.043 200.537 169.084 200.961 169.023 201.472C168.961 201.984 168.838 202.396 168.736 202.384Z" fill="#455A64"/>
<path d="M168.31 206.088C168.208 206.088 168.167 205.659 168.228 205.147C168.29 204.636 168.42 204.23 168.522 204.236C168.625 204.242 168.659 204.665 168.604 205.177C168.55 205.688 168.413 206.1 168.31 206.088Z" fill="#455A64"/>
<path d="M167.886 209.793C167.784 209.793 167.743 209.363 167.804 208.852C167.866 208.34 167.996 207.934 168.098 207.94C168.201 207.946 168.235 208.375 168.181 208.887C168.126 209.399 167.989 209.804 167.886 209.793Z" fill="#455A64"/>
<path d="M167.463 213.497C167.361 213.497 167.327 213.068 167.381 212.556C167.436 212.045 167.573 211.639 167.675 211.645C167.778 211.651 167.812 212.08 167.758 212.591C167.703 213.103 167.58 213.509 167.463 213.497Z" fill="#455A64"/>
<path d="M167.04 217.207C166.937 217.207 166.903 216.772 166.958 216.261C167.012 215.749 167.149 215.343 167.252 215.355C167.354 215.367 167.395 215.784 167.334 216.296C167.272 216.807 167.142 217.213 167.04 217.207Z" fill="#455A64"/>
<path d="M166.616 220.912C166.513 220.912 166.479 220.476 166.54 219.965C166.602 219.453 166.725 219.048 166.828 219.059C166.93 219.071 166.971 219.489 166.91 220C166.848 220.512 166.725 220.917 166.616 220.912Z" fill="#455A64"/>
<path d="M166.212 224.616C166.103 224.616 166.068 224.187 166.13 223.675C166.192 223.164 166.315 222.752 166.424 222.764C166.534 222.776 166.561 223.193 166.499 223.705C166.438 224.216 166.301 224.616 166.212 224.616Z" fill="#455A64"/>
<path d="M165.773 228.32C165.671 228.32 165.629 227.891 165.691 227.38C165.753 226.868 165.883 226.456 165.985 226.468C166.088 226.48 166.122 226.897 166.067 227.409C166.013 227.921 165.876 228.326 165.773 228.32Z" fill="#455A64"/>
<path d="M165.35 232.025C165.248 232.025 165.213 231.596 165.268 231.084C165.323 230.572 165.46 230.167 165.562 230.173C165.665 230.178 165.699 230.602 165.644 231.113C165.59 231.625 165.453 232.037 165.35 232.025Z" fill="#455A64"/>
<path d="M164.924 235.729C164.822 235.729 164.788 235.3 164.842 234.788C164.897 234.277 165.034 233.871 165.136 233.877C165.239 233.883 165.273 234.306 165.218 234.818C165.164 235.329 165.027 235.741 164.924 235.729Z" fill="#455A64"/>
<path d="M164.501 239.434C164.398 239.434 164.364 239.004 164.418 238.493C164.473 237.981 164.61 237.576 164.713 237.581C164.815 237.587 164.856 238.011 164.795 238.522C164.733 239.034 164.603 239.445 164.501 239.434Z" fill="#455A64"/>
<path d="M164.083 243.138C163.974 243.138 163.94 242.709 164.001 242.197C164.063 241.686 164.186 241.28 164.288 241.286C164.391 241.292 164.432 241.721 164.37 242.233C164.309 242.744 164.158 243.15 164.083 243.138Z" fill="#455A64"/>
<path d="M163.66 246.842C163.557 246.842 163.516 246.413 163.578 245.902C163.639 245.39 163.762 244.984 163.872 244.99C163.981 244.996 164.009 245.425 163.947 245.937C163.886 246.448 163.762 246.854 163.66 246.842Z" fill="#455A64"/>
<path d="M163.236 250.553C163.133 250.553 163.092 250.118 163.154 249.606C163.215 249.094 163.345 248.689 163.448 248.701C163.551 248.712 163.585 249.13 163.53 249.641C163.475 250.153 163.339 250.559 163.236 250.553Z" fill="#455A64"/>
<path d="M162.792 254.257C162.689 254.257 162.655 253.828 162.709 253.316C162.764 252.805 162.901 252.393 163.004 252.405C163.106 252.417 163.14 252.834 163.086 253.346C163.031 253.857 162.915 254.263 162.792 254.257Z" fill="#455A64"/>
<path d="M162.586 256.221C162.484 256.221 162.402 256.18 162.409 256.15C162.415 256.121 162.498 256.098 162.6 256.109C162.703 256.121 162.785 256.15 162.785 256.18C162.785 256.209 162.689 256.227 162.586 256.221Z" fill="#455A64"/>
<path d="M164.021 202.601C163.628 203.132 163.131 203.6 162.551 203.983C162.052 204.444 161.467 204.829 160.82 205.124C161.711 204.132 162.794 203.278 164.021 202.601Z" fill="#263238"/>
<path d="M165.574 203.319C164.831 203.78 164.019 204.154 163.16 204.43C162.35 204.8 161.484 205.073 160.588 205.241C161.331 204.78 162.143 204.406 163.002 204.13C163.813 203.761 164.678 203.488 165.574 203.319Z" fill="#263238"/>
<path d="M119.883 161.171C119.883 161.171 117.592 140.068 113.522 130.83L114.329 130.307L113.119 126.667L97.8928 125.079L98.1254 127.919C95.8785 128.789 94.0428 130.291 92.9202 132.177C87.4482 142.137 90.1842 153.768 87.2498 175.318C87.2498 175.318 83.8298 185.426 87.3592 188.589L120.581 181.933L119.015 175.418C133.516 175.183 157.36 172.89 157.36 172.89L156.676 161.094C156.676 161.094 121.046 161.277 119.883 161.171Z" fill="#455A64"/>
<path d="M113.091 126.649C113.574 127.389 113.944 128.18 114.192 129.001C114.341 129.322 114.442 129.658 114.493 130.001C114.503 130.179 114.435 130.353 114.302 130.489C114.192 130.6 114.05 130.685 113.891 130.736C113.317 130.889 112.988 130.783 112.988 130.736C112.988 130.689 113.344 130.683 113.775 130.507C113.89 130.462 113.988 130.389 114.055 130.297C114.122 130.205 114.155 130.098 114.151 129.989C114.073 129.679 113.968 129.374 113.836 129.078C113.471 128.298 113.221 127.482 113.091 126.649Z" fill="#E0E0E0"/>
<path d="M116.723 142.361C116.723 142.455 110.567 142.525 103.043 142.525C95.5193 142.525 89.3633 142.455 89.3633 142.361C89.3633 142.267 95.5193 142.202 103.043 142.202C110.567 142.202 116.723 142.296 116.723 142.361Z" fill="#263238"/>
<path d="M115.294 136.416C115.294 136.504 109.863 136.581 103.173 136.581C96.4837 136.581 91.0527 136.504 91.0527 136.416C91.0527 136.328 96.4769 136.257 103.173 136.257C109.87 136.257 115.294 136.328 115.294 136.416Z" fill="#263238"/>
<path d="M113.296 131.189C113.296 131.277 108.809 131.347 103.269 131.347C97.7282 131.347 93.248 131.277 93.248 131.189C93.248 131.1 97.7351 131.024 103.269 131.024C108.802 131.024 113.296 131.124 113.296 131.189Z" fill="#263238"/>
<path d="M113.099 127.496C110.543 127.662 107.98 127.717 105.418 127.661C102.856 127.717 100.292 127.662 97.7363 127.496C97.7363 127.408 101.156 127.337 105.418 127.337C109.679 127.337 113.099 127.408 113.099 127.496Z" fill="#263238"/>
<path d="M117.689 148.082C117.689 148.17 111.212 148.241 103.222 148.241C95.2333 148.241 88.7559 148.17 88.7559 148.082C88.7559 147.994 95.2333 147.917 103.222 147.917C111.212 147.917 117.689 147.988 117.689 148.082Z" fill="#263238"/>
<path d="M118.866 153.827C118.866 153.915 112.128 153.985 103.818 153.985C95.5069 153.985 88.7695 153.915 88.7695 153.827C88.7695 153.738 95.5069 153.662 103.818 153.662C112.128 153.662 118.866 153.738 118.866 153.827Z" fill="#263238"/>
<path d="M119.604 159.119C119.604 159.213 112.696 159.283 104.18 159.283C95.6643 159.283 88.7559 159.213 88.7559 159.119C88.7559 159.025 95.6643 158.96 104.18 158.96C112.696 158.96 119.604 159.031 119.604 159.119Z" fill="#263238"/>
<path d="M153.27 164.91C153.27 164.999 138.701 165.069 120.732 165.069C102.764 165.069 88.1875 164.999 88.1875 164.91C88.1875 164.822 102.757 164.746 120.732 164.746C138.708 164.746 153.27 164.822 153.27 164.91Z" fill="#263238"/>
<path d="M153.522 169.544C153.522 169.638 138.844 169.709 120.738 169.709C102.633 169.709 87.9473 169.638 87.9473 169.544C87.9473 169.45 102.626 169.385 120.738 169.385C138.851 169.385 153.522 169.456 153.522 169.544Z" fill="#263238"/>
<path d="M118.496 175.259C118.496 175.353 111.485 175.424 102.833 175.424C94.1799 175.424 87.1621 175.353 87.1621 175.259C87.1621 175.165 94.1731 175.101 102.833 175.101C111.492 175.101 118.496 175.171 118.496 175.259Z" fill="#263238"/>
<path d="M120.089 180.563C120.089 180.651 112.462 180.728 103.057 180.728C93.652 180.728 86.0254 180.651 86.0254 180.563C86.0254 180.475 93.652 180.404 103.057 180.404C112.462 180.404 120.089 180.475 120.089 180.563Z" fill="#263238"/>
<path d="M91.088 181.968C90.9786 181.968 90.8965 171.684 90.8965 159.001C90.8965 146.318 90.9786 136.034 91.088 136.034C91.1974 136.034 91.2727 146.318 91.2727 159.001C91.2727 171.684 91.1906 181.968 91.088 181.968Z" fill="#263238"/>
<path d="M99.3019 181.404C99.1993 181.404 99.1172 168.832 99.1172 153.327C99.1172 137.821 99.1787 125.244 99.3019 125.244C99.425 125.244 99.4934 137.81 99.4934 153.321C99.4934 168.832 99.4113 181.404 99.3019 181.404Z" fill="#263238"/>
<path d="M108.378 180.563C108.275 180.563 108.193 168.444 108.193 153.515C108.193 138.586 108.275 126.467 108.378 126.467C108.481 126.467 108.57 138.586 108.57 153.515C108.57 168.444 108.487 180.563 108.378 180.563Z" fill="#263238"/>
<path d="M116.005 181.951C115.902 181.951 115.82 172.437 115.82 160.706C115.82 148.976 115.902 139.456 116.005 139.456C116.108 139.456 116.197 148.97 116.197 160.706C116.197 172.443 116.108 181.951 116.005 181.951Z" fill="#263238"/>
<path d="M124.083 161.141C124.172 161.829 124.197 162.521 124.158 163.211C124.158 164.487 124.158 166.245 124.076 168.186C123.994 170.126 123.953 171.89 123.884 173.16C123.878 173.851 123.814 174.541 123.693 175.224C123.603 174.539 123.578 173.849 123.618 173.16C123.618 171.884 123.618 170.126 123.7 168.18C123.782 166.233 123.823 164.475 123.891 163.199C123.889 162.51 123.953 161.822 124.083 161.141Z" fill="#263238"/>
<path d="M132.694 161.388C132.779 162.032 132.804 162.681 132.769 163.329C132.769 164.505 132.769 166.169 132.701 167.986C132.633 169.803 132.578 171.455 132.516 172.649C132.519 173.295 132.455 173.94 132.325 174.577C132.24 173.937 132.215 173.292 132.25 172.649C132.25 171.473 132.25 169.803 132.325 167.98C132.4 166.157 132.441 164.511 132.51 163.317C132.503 162.671 132.565 162.025 132.694 161.388Z" fill="#263238"/>
<path d="M141.259 161.259C141.352 161.881 141.38 162.509 141.341 163.135C141.341 164.311 141.341 165.892 141.272 167.656C141.204 169.42 141.156 171.02 141.088 172.172C141.095 172.801 141.033 173.429 140.903 174.048C140.817 173.428 140.79 172.802 140.821 172.178C140.821 171.002 140.821 169.42 140.896 167.656C140.971 165.892 141.013 164.287 141.074 163.135C141.076 162.506 141.138 161.879 141.259 161.259Z" fill="#263238"/>
<path d="M149.858 161.053C149.952 161.655 149.979 162.264 149.94 162.87C149.94 163.993 149.94 165.546 149.871 167.257C149.803 168.968 149.762 170.52 149.693 171.637C149.695 172.246 149.636 172.854 149.516 173.454C149.421 172.852 149.391 172.244 149.427 171.637C149.427 170.514 149.427 168.962 149.495 167.251C149.563 165.54 149.611 163.981 149.673 162.864C149.67 162.257 149.732 161.651 149.858 161.053Z" fill="#263238"/>
<path d="M116.902 163.799C117.521 162.492 118.648 161.41 120.09 160.736C119.588 161.269 119.046 161.774 118.469 162.247C117.985 162.792 117.462 163.31 116.902 163.799Z" fill="#263238"/>
<path d="M118.864 163.94C118.721 163.35 118.773 162.736 119.015 162.17C119.257 161.603 119.678 161.107 120.232 160.736C120.314 160.8 119.74 161.4 119.37 162.282C119.001 163.164 119.015 163.94 118.864 163.94Z" fill="#263238"/>
<path d="M153.899 172.825C153.516 170.959 153.256 169.077 153.119 167.186C152.859 165.303 152.722 163.408 152.709 161.512C153.101 163.378 153.364 165.263 153.496 167.157C153.756 169.038 153.89 170.93 153.899 172.825Z" fill="#263238"/>
<path d="M154.33 163.734C154.33 163.776 154.139 163.893 154.111 164.187C154.105 164.265 154.117 164.343 154.147 164.417C154.176 164.49 154.222 164.558 154.282 164.616C154.359 164.676 154.456 164.714 154.558 164.725C154.661 164.737 154.765 164.721 154.857 164.681C154.954 164.649 155.037 164.594 155.098 164.522C155.159 164.45 155.194 164.364 155.199 164.275C155.19 164.198 155.163 164.122 155.119 164.054C155.076 163.985 155.017 163.924 154.946 163.876C154.679 163.693 154.426 163.752 154.412 163.705C154.399 163.658 154.665 163.493 155.096 163.705C155.223 163.763 155.33 163.847 155.409 163.95C155.487 164.053 155.535 164.171 155.548 164.293C155.558 164.446 155.511 164.597 155.416 164.726C155.32 164.854 155.179 164.954 155.014 165.01C154.852 165.076 154.67 165.097 154.493 165.07C154.317 165.042 154.155 164.968 154.029 164.858C153.94 164.765 153.878 164.655 153.848 164.537C153.818 164.42 153.822 164.298 153.858 164.181C153.981 163.752 154.337 163.693 154.33 163.734Z" fill="#263238"/>
<path d="M119.844 161.112H120.015L120.514 161.147C120.958 161.188 121.615 161.224 122.477 161.247C124.201 161.306 126.731 161.335 129.953 161.312C136.389 161.277 145.589 161.071 156.629 160.724H156.786V160.859C157.005 164.522 157.238 168.503 157.47 172.725V172.86H157.327C155.576 173.142 153.804 173.26 151.992 173.419L146.465 173.83C142.71 174.095 138.845 174.342 134.912 174.583L120.452 175.418C116.259 175.189 112.19 173.895 109.344 171.52C107.945 170.374 106.847 168.985 106.122 167.445C105.442 165.991 104.9 164.493 104.501 162.964C102.812 157.084 101.765 151.728 100.91 147.282C100.5 145.06 100.151 143.055 99.857 141.302C99.5454 139.811 99.3421 138.305 99.2483 136.792C99.1925 135.832 99.4282 134.875 99.9323 134.017C100.105 133.724 100.337 133.459 100.616 133.235C100.377 133.489 100.164 133.76 99.9801 134.046C99.5136 134.903 99.3065 135.848 99.3782 136.792C99.5018 138.298 99.7302 139.796 100.062 141.279C100.384 143.043 100.746 145.03 101.17 147.253C102.032 151.686 103.127 157.008 104.83 162.894C105.233 164.408 105.775 165.892 106.451 167.333C107.163 168.835 108.24 170.188 109.611 171.302C112.347 173.613 116.376 174.877 120.493 175.106L134.946 174.26L146.492 173.513L152.019 173.107C153.818 172.948 155.624 172.831 157.299 172.56L157.163 172.719C156.93 168.515 156.711 164.517 156.479 160.847L156.65 160.983C145.617 161.33 136.417 161.494 129.974 161.482C126.752 161.482 124.221 161.43 122.497 161.341C121.636 161.3 120.972 161.253 120.528 161.194L120.028 161.141C119.965 161.139 119.903 161.129 119.844 161.112Z" fill="#263238"/>
<path d="M119.844 161.112C119.693 160.814 119.574 160.505 119.488 160.189C119.29 159.601 119.016 158.719 118.688 157.637C118.004 155.479 117.217 152.474 116.342 149.158C115.466 145.842 114.666 142.837 114.064 140.667L113.38 138.098C113.273 137.787 113.202 137.468 113.168 137.145C113.315 137.444 113.434 137.753 113.524 138.068C113.736 138.656 114.009 139.532 114.344 140.614C115.028 142.766 115.863 145.765 116.738 149.087C117.614 152.41 118.332 155.355 118.948 157.584C119.221 158.631 119.454 159.495 119.632 160.159C119.73 160.472 119.801 160.79 119.844 161.112Z" fill="#263238"/>
<path d="M113.139 126.896C113.145 127.114 113.12 127.331 113.064 127.543C112.995 127.961 112.886 128.554 112.735 129.307C112.67 129.718 112.574 130.124 112.448 130.524C112.406 130.657 112.329 130.779 112.222 130.881C112.115 130.984 111.981 131.063 111.832 131.112C111.532 131.18 111.216 131.18 110.916 131.112C109.787 130.912 108.556 130.654 107.27 130.354C104.705 129.766 102.421 129.113 100.758 128.672L98.7953 128.143C98.5571 128.091 98.3274 128.014 98.1113 127.914C98.3642 127.92 98.615 127.955 98.8569 128.019C99.3357 128.113 100.02 128.255 100.861 128.455C102.544 128.837 104.842 129.436 107.4 130.042C108.679 130.342 109.897 130.63 111.018 130.824C111.259 130.892 111.515 130.906 111.764 130.865C111.866 130.833 111.958 130.781 112.031 130.712C112.105 130.644 112.159 130.561 112.188 130.471C112.339 130.095 112.4 129.66 112.503 129.295C112.681 128.566 112.838 127.978 112.947 127.567C112.973 127.336 113.038 127.111 113.139 126.896Z" fill="#263238"/>
<path d="M101.17 208.299L105.951 264.083L107.948 263.683L107.203 209.475L101.17 208.299Z" fill="#263238"/>
<path d="M80.91 210.239L66.3887 264.018H69.0152L89.802 210.239H80.91Z" fill="#263238"/>
<path d="M119.316 210.239L139.125 264.018H141.245L125.507 210.239H119.316Z" fill="#263238"/>
<path d="M121.97 213.85L77.5781 238.787V240.151L123.208 213.85H121.97Z" fill="#263238"/>
<path d="M84.3027 213.85L132.402 241.674V239.545L85.7118 212.633L84.3027 213.85Z" fill="#263238"/>
<path d="M74.275 211.163L131.471 210.275C131.983 210.266 132.488 210.166 132.952 209.979C133.416 209.793 133.83 209.525 134.166 209.192C134.501 208.859 134.752 208.47 134.902 208.049C135.052 207.627 135.097 207.184 135.035 206.747C134.931 205.973 134.496 205.26 133.815 204.747C133.133 204.234 132.254 203.957 131.348 203.971L73.3379 204.771L74.275 211.163Z" fill="#183044"/>
<g opacity="0.2">
<path d="M74.275 211.163L131.471 210.275C131.983 210.266 132.488 210.166 132.952 209.979C133.416 209.793 133.83 209.525 134.166 209.192C134.501 208.859 134.752 208.47 134.902 208.049C135.052 207.627 135.097 207.184 135.035 206.747C134.931 205.973 134.496 205.26 133.815 204.747C133.133 204.234 132.254 203.957 131.348 203.971L73.3379 204.771L74.275 211.163Z" fill="black"/>
</g>
<path d="M68.4469 173.154L74.2198 211.163L119.316 210.239L119.2 187.155C119.216 186.247 119.009 185.348 118.594 184.513C118.179 183.679 117.565 182.93 116.791 182.313C116.017 181.696 115.1 181.227 114.101 180.934C113.102 180.642 112.043 180.533 110.992 180.616L76.607 183.286L72.0789 143.002L67.5098 142.666C67.0326 142.636 66.5536 142.698 66.1077 142.848C65.6619 142.997 65.2605 143.23 64.9328 143.53C64.6051 143.83 64.3593 144.189 64.2135 144.58C64.0677 144.972 64.0254 145.387 64.0898 145.795L68.4469 173.154Z" fill="#183044"/>
</svg>
