<svg width="342" height="294" viewBox="0 0 342 294" fill="none" xmlns="http://www.w3.org/2000/svg">
<path d="M129.6 224.851H0V224.998H129.6V224.851Z" fill="#EBEBEB"/>
<path d="M81.8219 228.855H75.2227V229.002H81.8219V228.855Z" fill="#EBEBEB"/>
<path d="M118.05 232.037H102.412V232.184H118.05V232.037Z" fill="#EBEBEB"/>
<path d="M73.818 228.926H57.6621V229.073H73.818V228.926Z" fill="#EBEBEB"/>
<path d="M47.1847 233.324H43.8047V233.471H47.1847V233.324Z" fill="#EBEBEB"/>
<path d="M65.86 233.324H50.4688V233.471H65.86V233.324Z" fill="#EBEBEB"/>
<path d="M23.5639 230.843H13.5977V230.99H23.5639V230.843Z" fill="#EBEBEB"/>
<path d="M61.4307 198.626H11.3817C10.9897 198.625 10.6139 198.27 10.3369 197.641C10.0599 197.011 9.9043 196.158 9.9043 195.269V35.668C9.90771 34.7837 10.0648 33.9381 10.3414 33.315C10.6181 32.6919 10.9919 32.3415 11.3817 32.34H61.4307C61.8232 32.34 62.1996 32.6937 62.4772 33.3233C62.7548 33.953 62.9107 34.807 62.9107 35.6974V195.269C62.9107 196.159 62.7548 197.013 62.4772 197.643C62.1996 198.273 61.8232 198.626 61.4307 198.626ZM11.3817 32.4576C11.0068 32.4591 10.6475 32.7981 10.3827 33.4C10.1178 34.0019 9.9691 34.8176 9.9691 35.668V195.269C9.9691 196.119 10.1178 196.935 10.3827 197.537C10.6475 198.139 11.0068 198.478 11.3817 198.479H61.4307C61.8058 198.478 62.1654 198.139 62.4306 197.537C62.6959 196.936 62.8452 196.12 62.8459 195.269V35.668C62.8452 34.8171 62.6959 34.0014 62.4306 33.3996C62.1654 32.7979 61.8058 32.4591 61.4307 32.4576H11.3817Z" fill="#EBEBEB"/>
<path d="M117.498 198.626H67.4468C67.0545 198.625 66.6785 198.271 66.401 197.641C66.1236 197.012 65.9675 196.159 65.9668 195.269V35.668C65.9709 34.7832 66.1285 33.9376 66.4056 33.3146C66.6826 32.6917 67.0567 32.3415 67.4468 32.34H117.498C117.888 32.343 118.261 32.6941 118.537 33.3171C118.813 33.94 118.97 34.7847 118.973 35.668V195.269C118.973 196.157 118.818 197.01 118.542 197.639C118.265 198.268 117.89 198.623 117.498 198.626ZM67.4468 32.4576C67.0717 32.4591 66.7121 32.7979 66.4469 33.3996C66.1816 34.0014 66.0323 34.8171 66.0316 35.668V195.269C66.0323 196.12 66.1816 196.936 66.4469 197.537C66.7121 198.139 67.0717 198.478 67.4468 198.479H117.498C117.873 198.478 118.233 198.139 118.498 197.537C118.764 196.936 118.913 196.12 118.914 195.269V35.668C118.913 34.8171 118.764 34.0014 118.498 33.3996C118.233 32.7979 117.873 32.4591 117.498 32.4576H67.4468Z" fill="#EBEBEB"/>
<path d="M50.7926 173.854H33.5817L32.5371 146.512H49.748L50.7926 173.854Z" fill="#E6E6E6"/>
<path d="M51.6851 173.854H34.4743L33.4297 146.512H50.6406L51.6851 173.854Z" fill="#F0F0F0"/>
<path d="M36.8274 167.98L36.252 152.38H48.2866L48.862 167.98H36.8274Z" fill="white"/>
<path d="M54.6617 173.854H52.6426V224.851H54.6617V173.854Z" fill="#E6E6E6"/>
<path d="M55.3007 173.854H53.8984V224.851H55.3007V173.854Z" fill="#F0F0F0"/>
<path d="M35.7545 179.481H55.3008V173.854H35.7545V179.481Z" fill="#F0F0F0"/>
<path d="M36.443 179.481H34.4238V224.851H36.443V179.481Z" fill="#E6E6E6"/>
<path d="M37.082 179.481H35.6797V224.851H37.082V179.481Z" fill="#F0F0F0"/>
<path d="M22.0699 179.481H20.0508V224.851H22.0699V179.481Z" fill="#E6E6E6"/>
<path d="M22.7089 179.481H21.3066V224.851H22.7089V179.481Z" fill="#F0F0F0"/>
<path d="M41.8844 179.481H39.8652V224.851H41.8844V179.481Z" fill="#E6E6E6"/>
<path d="M42.5195 179.481H41.1172V224.851H42.5195V179.481Z" fill="#F0F0F0"/>
<path d="M35.7531 173.854H20.0508V179.481H35.7531V173.854Z" fill="#E6E6E6"/>
<path d="M94.3067 46.6931H33.5684V123.404H94.3067V46.6931Z" fill="#E0E0E0"/>
<path d="M97.6434 46.6931H33.875V123.404H97.6434V46.6931Z" fill="#F5F5F5"/>
<path d="M96.6016 121.04V49.0568L34.9171 49.0568V121.04L96.6016 121.04Z" fill="white"/>
<path d="M59.8935 121.04L71.5394 49.0568H52.3197L40.6738 121.04H59.8935Z" fill="#F5F5F5"/>
<path d="M78.3922 121.04L90.0381 49.0568H75.5384L63.8926 121.04H78.3922Z" fill="#F5F5F5"/>
<path d="M113.558 151.586H108.395V224.851H113.558V151.586Z" fill="#E6E6E6"/>
<path d="M112.2 224.851H113.559V219.212H110.777L112.2 224.851Z" fill="#FAFAFA"/>
<path d="M65.9543 151.586H60.791V224.851H65.9543V151.586Z" fill="#E6E6E6"/>
<path d="M113.559 151.586H64.7695V223.328H113.559V151.586Z" fill="#FAFAFA"/>
<path d="M112.634 174.736H65.6934V154.473H112.634V174.736ZM65.9526 174.148H112.375V155.061H65.9526V174.148Z" fill="#E6E6E6"/>
<path d="M104.372 164.311H74.8673C73.4987 164.311 72.1794 161.806 71.2385 157.431L71.1504 157.014H108.086L107.998 157.431C107.05 161.806 105.754 164.311 104.372 164.311ZM71.5755 157.584C72.4516 161.482 73.6491 163.705 74.8673 163.705H104.372C105.595 163.705 106.788 161.482 107.664 157.584H71.5755Z" fill="#E6E6E6"/>
<path d="M66.1277 224.851H64.7695V219.212H67.5507L66.1277 224.851Z" fill="#FAFAFA"/>
<path d="M112.634 197.568H65.6934V177.329H112.634V197.568ZM65.9526 196.98H112.375V177.917H65.9526V196.98Z" fill="#E6E6E6"/>
<path d="M104.372 187.166H74.8673C73.4987 187.166 72.1794 184.655 71.2385 180.287L71.1504 179.863H108.086L107.998 180.287C107.05 184.632 105.754 187.166 104.372 187.166ZM71.5755 180.451C72.4516 184.35 73.6491 186.578 74.8673 186.578H104.372C105.595 186.578 106.788 184.35 107.664 180.451H71.5755Z" fill="#E6E6E6"/>
<path d="M112.634 220.441H65.6934V200.179H112.634V220.441ZM65.9526 219.853H112.375V200.767H65.9526V219.853Z" fill="#E6E6E6"/>
<path d="M104.372 210.016H74.8673C73.4987 210.016 72.1794 207.511 71.2385 203.142L71.1504 202.719H108.086L107.998 203.142C107.05 207.511 105.754 210.016 104.372 210.016ZM71.5755 203.307C72.4516 207.205 73.6491 209.428 74.8673 209.428H104.372C105.595 209.428 106.788 207.205 107.664 203.307H71.5755Z" fill="#E6E6E6"/>
<path d="M31.3589 161.277V162.7H30.9597L30.6279 173.854H25.7446L25.4154 162.7H25.0137V161.277H31.3589Z" fill="#E6E6E6"/>
<path d="M29.7507 133.599C29.3515 126.955 25.3987 125.062 20.3832 124.815C15.6113 124.585 14.082 120.758 14.082 120.758C14.082 120.758 14.0976 136.263 20.9742 141.884C27.5034 147.212 30.1524 140.256 29.7507 133.599Z" fill="#E6E6E6"/>
<path d="M27.3141 148.658C27.3971 145.93 29.3203 140.908 33.9471 143.19C37.2907 144.842 38.5349 140.908 38.5349 140.908C38.5349 140.908 38.2239 152.01 33.1954 155.344C28.4183 158.513 27.1664 153.468 27.3141 148.658Z" fill="#E6E6E6"/>
<path d="M28.3691 165.463C28.3952 165.464 28.421 165.451 28.4447 165.427C28.4684 165.403 28.4895 165.367 28.5065 165.322C28.8409 164.422 28.5661 162.27 28.1877 159.289C27.7004 155.467 27.0939 150.704 27.6071 147.253C27.8915 145.43 28.2239 143.647 28.6024 141.914C29.3282 138.433 29.9554 135.446 29.4318 132.282C29.4237 132.232 29.4112 132.186 29.3951 132.147C29.379 132.107 29.3597 132.076 29.3382 132.053C29.3166 132.031 29.2934 132.019 29.2698 132.017C29.2461 132.015 29.2226 132.024 29.2005 132.043C29.1784 132.062 29.1582 132.091 29.141 132.128C29.1239 132.165 29.1101 132.209 29.1005 132.258C29.0909 132.307 29.0857 132.36 29.0852 132.414C29.0847 132.467 29.0889 132.521 29.0975 132.57C29.5666 135.387 28.999 138.115 28.2784 141.573C27.8951 143.334 27.5576 145.144 27.2675 146.994C26.7206 150.687 27.3427 155.585 27.8429 159.513C28.1384 161.865 28.4443 164.217 28.2343 164.805C28.2177 164.845 28.2049 164.893 28.1969 164.946C28.1888 164.998 28.1857 165.054 28.1876 165.109C28.1896 165.164 28.1966 165.218 28.2082 165.267C28.2198 165.316 28.2358 165.359 28.2551 165.393C28.2882 165.446 28.3286 165.471 28.3691 165.463Z" fill="#E6E6E6"/>
<path d="M171 251.405C244.244 251.405 303.62 248.425 303.62 244.749C303.62 241.073 244.244 238.093 171 238.093C97.7552 238.093 38.3789 241.073 38.3789 244.749C38.3789 248.425 97.7552 251.405 171 251.405Z" fill="#F5F5F5"/>
<path d="M170.972 212.297H73.844L68.5293 78.0158H165.657L170.972 212.297Z" fill="#183044"/>
<path d="M175.821 208.128H78.6926L73.3711 73.8469H170.499L175.821 208.128Z" fill="#183044"/>
<path opacity="0.3" d="M175.821 208.128H78.6926L73.3711 73.8469H170.499L175.821 208.128Z" fill="white"/>
<path d="M143.278 129.104C153.677 120.009 153.235 105.139 142.29 95.8889C131.344 86.6392 114.04 86.5133 103.641 95.6075C93.2411 104.702 93.6836 119.573 104.629 128.822C115.574 138.072 132.878 138.198 143.278 129.104Z" fill="#183044"/>
<path d="M146.013 112.361C146.153 115.561 145.34 118.738 143.653 121.593C141.832 124.669 139.049 127.248 135.618 129.04C132.187 130.833 128.242 131.768 124.227 131.741C120.118 131.722 116.086 130.775 112.538 128.993C108.989 127.212 106.047 124.66 104.008 121.593C102.107 118.782 101.045 115.61 100.917 112.361C100.79 109.841 101.261 107.326 102.301 104.968C103.341 102.61 104.927 100.458 106.964 98.6429C109.001 96.8281 111.446 95.3882 114.15 94.4107C116.854 93.4333 119.762 92.9386 122.695 92.9569C128.738 92.9937 134.533 95.0303 138.875 98.6437C143.217 102.257 145.774 107.17 146.013 112.361Z" fill="white"/>
<path opacity="0.6" d="M143.639 121.593C141.818 124.669 139.035 127.248 135.604 129.04C132.173 130.833 128.228 131.768 124.213 131.741C120.104 131.722 116.072 130.775 112.524 128.993C108.975 127.212 106.033 124.66 103.994 121.593C109.779 118.202 116.624 116.4 123.625 116.424C130.739 116.437 137.694 118.233 143.639 121.593Z" fill="#183044"/>
<path opacity="0.6" d="M130.487 111.877C134.311 108.533 134.149 103.065 130.124 99.664C126.099 96.2629 119.736 96.2166 115.912 99.5606C112.088 102.905 112.251 108.373 116.276 111.774C120.3 115.175 126.663 115.221 130.487 111.877Z" fill="#183044"/>
<path d="M156.308 159.501H94.3508L93.9336 148.917H155.89L156.308 159.501Z" fill="white"/>
<path d="M157.059 178.417H95.095L94.6777 167.833H156.641L157.059 178.417Z" fill="white"/>
<path d="M133.147 169.291L118.215 171.055C118.072 171.069 117.935 171.108 117.811 171.17C117.687 171.232 117.579 171.315 117.494 171.415C117.409 171.514 117.349 171.627 117.318 171.748C117.287 171.868 117.285 171.992 117.312 172.113L119.275 180.716C119.339 180.968 119.511 181.191 119.757 181.34C120.002 181.489 120.304 181.554 120.602 181.521L135.534 179.757C135.676 179.742 135.813 179.702 135.936 179.639C136.059 179.576 136.166 179.492 136.25 179.392C136.334 179.293 136.394 179.179 136.425 179.059C136.455 178.939 136.457 178.814 136.43 178.693L134.474 170.091C134.409 169.839 134.237 169.617 133.991 169.469C133.746 169.32 133.444 169.257 133.147 169.291ZM128.858 178.005L126.122 178.317L125.855 175.542C125.573 175.437 125.325 175.275 125.131 175.07C124.937 174.866 124.803 174.624 124.74 174.366C124.69 174.165 124.689 173.958 124.738 173.758C124.787 173.557 124.884 173.368 125.023 173.201C125.162 173.035 125.341 172.896 125.546 172.792C125.752 172.689 125.981 172.624 126.218 172.602C126.704 172.548 127.195 172.653 127.595 172.895C127.996 173.138 128.275 173.501 128.379 173.913C128.438 174.161 128.42 174.419 128.327 174.659C128.233 174.9 128.067 175.115 127.846 175.283L128.858 178.005Z" fill="#183044"/>
<path d="M131.669 168.827C131.405 168.855 131.138 168.799 130.921 168.667C130.703 168.535 130.55 168.338 130.493 168.115L130.301 167.274C130.028 166.127 129.28 165.104 128.196 164.394C127.111 163.685 125.765 163.338 124.405 163.417C123.719 163.451 123.05 163.611 122.442 163.887C121.835 164.162 121.303 164.547 120.884 165.015C120.465 165.483 120.168 166.023 120.013 166.599C119.858 167.174 119.849 167.772 119.987 168.35L120.206 169.321C120.231 169.428 120.23 169.539 120.203 169.646C120.176 169.753 120.123 169.854 120.047 169.943C119.972 170.032 119.876 170.106 119.765 170.16C119.655 170.215 119.532 170.25 119.405 170.261C119.141 170.293 118.872 170.237 118.654 170.105C118.435 169.973 118.283 169.775 118.229 169.55L118.044 168.733C117.856 167.969 117.85 167.18 118.026 166.414C118.202 165.648 118.556 164.921 119.067 164.275C119.578 163.63 120.235 163.08 121 162.659C121.765 162.237 122.621 161.953 123.516 161.824C125.458 161.543 127.451 161.916 129.081 162.866C130.711 163.815 131.854 165.267 132.271 166.921L132.49 167.886C132.516 167.995 132.514 168.107 132.486 168.215C132.457 168.324 132.402 168.425 132.325 168.514C132.247 168.603 132.149 168.677 132.036 168.731C131.923 168.784 131.798 168.817 131.669 168.827Z" fill="#183044"/>
<path d="M146.833 193.24H106.497L106.23 186.349H146.559L146.833 193.24Z" fill="#183044"/>
<path d="M127.375 154.209C127.387 154.46 127.339 154.711 127.235 154.946C127.131 155.181 126.973 155.396 126.769 155.577C126.566 155.758 126.322 155.901 126.052 155.998C125.782 156.096 125.492 156.145 125.199 156.143C124.596 156.139 124.018 155.936 123.584 155.576C123.15 155.216 122.893 154.727 122.867 154.209C122.855 153.958 122.902 153.707 123.007 153.472C123.111 153.236 123.269 153.022 123.473 152.841C123.676 152.66 123.92 152.517 124.19 152.419C124.46 152.322 124.75 152.273 125.042 152.274C125.646 152.277 126.225 152.479 126.659 152.84C127.094 153.2 127.35 153.69 127.375 154.209Z" fill="#263238"/>
<path d="M117.647 154.209C117.66 154.46 117.613 154.712 117.51 154.947C117.406 155.183 117.247 155.397 117.044 155.579C116.84 155.76 116.596 155.903 116.326 156C116.055 156.097 115.765 156.146 115.472 156.143C114.87 156.139 114.292 155.936 113.859 155.576C113.426 155.216 113.171 154.726 113.146 154.209C113.134 153.958 113.182 153.707 113.286 153.472C113.39 153.236 113.548 153.022 113.752 152.841C113.955 152.66 114.199 152.517 114.469 152.419C114.739 152.322 115.029 152.273 115.321 152.274C115.924 152.277 116.503 152.48 116.936 152.84C117.37 153.201 117.624 153.691 117.647 154.209Z" fill="#263238"/>
<path d="M107.983 154.209C107.995 154.46 107.948 154.711 107.844 154.946C107.739 155.181 107.581 155.396 107.378 155.577C107.174 155.758 106.93 155.901 106.66 155.998C106.391 156.096 106.101 156.145 105.808 156.143C105.205 156.141 104.627 155.938 104.193 155.578C103.76 155.217 103.505 154.727 103.482 154.209C103.47 153.958 103.518 153.707 103.622 153.472C103.726 153.236 103.884 153.022 104.088 152.841C104.291 152.66 104.535 152.517 104.805 152.419C105.075 152.322 105.365 152.273 105.657 152.274C106.26 152.277 106.839 152.48 107.272 152.84C107.705 153.201 107.96 153.691 107.983 154.209Z" fill="#263238"/>
<path d="M137.066 154.209C137.079 154.46 137.031 154.711 136.927 154.946C136.823 155.181 136.664 155.396 136.461 155.577C136.258 155.758 136.014 155.901 135.744 155.999C135.474 156.096 135.184 156.145 134.891 156.143C134.288 156.141 133.71 155.938 133.277 155.578C132.843 155.217 132.589 154.727 132.566 154.209C132.556 153.958 132.605 153.709 132.71 153.475C132.815 153.241 132.975 153.028 133.179 152.849C133.383 152.669 133.627 152.528 133.897 152.432C134.167 152.336 134.456 152.289 134.748 152.292C135.346 152.296 135.92 152.497 136.351 152.853C136.783 153.21 137.039 153.695 137.066 154.209Z" fill="#263238"/>
<path d="M146.758 154.209C146.771 154.46 146.725 154.712 146.621 154.947C146.517 155.183 146.359 155.397 146.155 155.579C145.952 155.76 145.707 155.903 145.437 156C145.167 156.097 144.876 156.146 144.583 156.143C143.981 156.139 143.403 155.936 142.97 155.576C142.537 155.216 142.282 154.726 142.258 154.209C142.246 153.958 142.293 153.707 142.397 153.472C142.501 153.236 142.66 153.022 142.863 152.841C143.067 152.66 143.311 152.517 143.58 152.419C143.85 152.322 144.14 152.273 144.433 152.274C145.036 152.277 145.614 152.48 146.048 152.84C146.481 153.201 146.736 153.691 146.758 154.209Z" fill="#263238"/>
<path d="M228.395 102.477C229.305 103.735 230.064 104.934 230.844 106.187C231.624 107.439 232.328 108.698 233.019 109.985C234.429 112.593 235.595 115.292 236.508 118.059C236.631 118.406 236.72 118.776 236.822 119.135L236.973 119.681L237.048 119.952L237.137 120.399C237.291 121.413 237.219 122.442 236.925 123.433C236.453 124.971 235.734 126.445 234.791 127.814C233.103 130.3 231.063 132.597 228.717 134.652L225.837 132.782C227.283 130.498 228.568 128.142 229.688 125.726C230.187 124.662 230.538 123.551 230.735 122.416C230.797 122.069 230.779 121.715 230.68 121.375L230.406 120.658C230.297 120.364 230.194 120.07 230.064 119.77C229.024 117.344 227.82 114.972 226.46 112.667C225.092 110.315 223.621 107.963 222.15 105.717L228.395 102.477Z" fill="#FF8B7B"/>
<path d="M226.568 131.965L223.422 133.394L227.033 137.028C227.033 137.028 229.291 135.716 229.393 133.717L226.568 131.965Z" fill="#FF8B7B"/>
<path d="M219.201 135.634L223.066 138.274L227.033 137.028L223.421 133.394L219.201 135.634Z" fill="#FF8B7B"/>
<path d="M205.987 83.2373C205.912 83.5666 205.645 83.7959 205.399 83.7547C205.153 83.7136 205.009 83.4078 205.084 83.0844C205.16 82.761 205.427 82.4964 205.68 82.567C205.933 82.6375 206.063 82.908 205.987 83.2373Z" fill="#263238"/>
<path d="M205.679 83.8018C204.99 84.7228 204.157 85.5577 203.203 86.2831C203.428 86.4839 203.702 86.6403 204.004 86.7418C204.306 86.8433 204.63 86.8874 204.954 86.8711L205.679 83.8018Z" fill="#FF5652"/>
<path d="M204.447 95.3383V91.481L210.384 92.069C210.384 92.069 210.289 95.3853 206.964 96.3614L204.447 95.3383Z" fill="#FF8B7B"/>
<path d="M206.157 88.7057L210.336 89.7406L210.412 92.0985L204.475 91.481L206.157 88.7057Z" fill="#FF8B7B"/>
<path opacity="0.2" d="M210.337 89.7406L206.158 88.7057L205.344 90.0463C205.388 91.1027 205.772 92.1278 206.453 93.008C207.134 93.8881 208.085 94.5889 209.202 95.0326C209.92 94.1703 210.339 93.1511 210.412 92.0926L210.337 89.7406Z" fill="black"/>
<path d="M207.807 81.6673C207.851 81.6663 207.893 81.6546 207.93 81.6337C207.966 81.6128 207.995 81.5834 208.013 81.5489C208.031 81.5145 208.037 81.4764 208.031 81.4391C208.025 81.4018 208.006 81.3668 207.978 81.338C207.738 81.1048 207.436 80.9244 207.098 80.8118C206.76 80.6993 206.396 80.6579 206.035 80.6912C205.977 80.6998 205.924 80.7282 205.889 80.7701C205.855 80.812 205.841 80.864 205.851 80.9147C205.861 80.9657 205.894 81.0114 205.942 81.0421C205.991 81.0728 206.051 81.0861 206.111 81.0793C206.396 81.0552 206.684 81.0901 206.951 81.1812C207.217 81.2722 207.454 81.4167 207.643 81.6026C207.664 81.6223 207.689 81.6381 207.717 81.6492C207.746 81.6603 207.776 81.6665 207.807 81.6673Z" fill="#263238"/>
<path d="M216.549 89.1878C215.865 92.216 215.441 96.4084 217.917 98.4253C217.917 98.4253 216.959 101.495 210.393 101.495C203.204 101.495 206.938 98.8016 206.938 98.8016C209.928 98.0019 209.9 95.0796 209.216 92.7276L216.549 89.1878Z" fill="#FF8B7B"/>
<path d="M219.25 100.448C219.893 99.6719 219.866 97.2082 219.182 96.773C218.08 96.0733 213.354 95.9087 206.999 97.167C207.683 99.5543 206.213 100.801 206.213 100.801L219.25 100.448Z" fill="#183044"/>
<path d="M240.631 240.045C240.436 240.104 240.229 240.129 240.023 240.119C239.816 240.109 239.614 240.064 239.428 239.986C239.357 239.93 239.309 239.856 239.289 239.775C239.269 239.694 239.28 239.61 239.318 239.534C239.34 239.47 239.377 239.411 239.428 239.361C239.479 239.312 239.542 239.272 239.612 239.246C240.262 238.975 241.753 239.498 241.822 239.522C241.842 239.529 241.859 239.541 241.872 239.557C241.884 239.573 241.89 239.591 241.89 239.61C241.89 239.629 241.884 239.647 241.873 239.664C241.863 239.68 241.847 239.694 241.828 239.704C241.443 239.85 241.042 239.964 240.631 240.045ZM239.845 239.381C239.8 239.39 239.756 239.404 239.715 239.422C239.672 239.435 239.634 239.457 239.603 239.486C239.572 239.514 239.549 239.549 239.537 239.587C239.475 239.763 239.537 239.822 239.578 239.839C239.838 240.028 240.796 239.839 241.473 239.622C240.958 239.439 240.402 239.356 239.845 239.381Z" fill="#183044"/>
<path d="M241.802 239.71H241.747C241.2 239.575 240.037 238.863 240.023 238.399C240.023 238.325 240.052 238.253 240.105 238.195C240.159 238.138 240.234 238.097 240.318 238.081C240.399 238.055 240.485 238.045 240.572 238.051C240.658 238.057 240.742 238.079 240.817 238.116C241.46 238.399 241.87 239.539 241.884 239.592C241.894 239.607 241.899 239.623 241.899 239.639C241.899 239.656 241.894 239.672 241.884 239.686C241.873 239.696 241.86 239.703 241.846 239.707C241.832 239.711 241.817 239.712 241.802 239.71ZM240.434 238.246H240.379C240.242 238.287 240.242 238.346 240.242 238.375C240.242 238.652 241.022 239.21 241.61 239.434C241.467 239.104 241.152 238.452 240.735 238.258C240.642 238.221 240.537 238.217 240.441 238.246H240.434Z" fill="#183044"/>
<path d="M205.104 240.739C204.488 240.739 203.893 240.663 203.695 240.427C203.643 240.365 203.615 240.29 203.615 240.213C203.615 240.136 203.643 240.061 203.695 239.998C203.734 239.941 203.786 239.891 203.849 239.851C203.911 239.812 203.982 239.784 204.057 239.769C204.858 239.581 206.54 240.404 206.609 240.439C206.63 240.448 206.647 240.463 206.657 240.481C206.667 240.499 206.669 240.52 206.663 240.539C206.661 240.559 206.651 240.578 206.635 240.593C206.619 240.608 206.598 240.618 206.575 240.621C206.089 240.698 205.597 240.737 205.104 240.739ZM204.345 239.933C204.272 239.923 204.198 239.923 204.126 239.933C204.08 239.942 204.036 239.958 203.997 239.981C203.958 240.004 203.925 240.034 203.9 240.069C203.818 240.192 203.852 240.251 203.9 240.286C204.126 240.557 205.337 240.563 206.233 240.451C205.648 240.176 205.007 240 204.345 239.933Z" fill="#183044"/>
<path d="M206.569 240.621H206.521C205.94 240.398 204.791 239.504 204.88 239.034C204.88 238.922 204.989 238.787 205.304 238.763C205.416 238.752 205.53 238.761 205.639 238.789C205.747 238.817 205.847 238.865 205.933 238.928C206.372 239.378 206.635 239.936 206.686 240.521C206.685 240.538 206.681 240.555 206.673 240.57C206.665 240.585 206.653 240.599 206.638 240.61C206.617 240.619 206.593 240.623 206.569 240.621ZM205.393 238.946H205.324C205.119 238.946 205.106 239.028 205.106 239.051C205.051 239.334 205.831 240.039 206.426 240.345C206.373 239.873 206.151 239.427 205.79 239.069C205.677 238.987 205.534 238.943 205.386 238.946H205.393Z" fill="#183044"/>
<path d="M211.85 240.527H207.041L206.562 230.949H211.371L211.85 240.527Z" fill="#FF8B7B"/>
<path d="M247.164 238.61L242.465 239.487L237.738 230.567L242.444 229.69L247.164 238.61Z" fill="#FF8B7B"/>
<path d="M242.007 239.081L247.295 238.099C247.387 238.082 247.483 238.093 247.568 238.129C247.652 238.165 247.72 238.225 247.76 238.299L249.593 241.721C249.642 241.804 249.667 241.895 249.666 241.988C249.666 242.081 249.64 242.173 249.591 242.255C249.541 242.338 249.47 242.409 249.382 242.464C249.295 242.518 249.193 242.553 249.087 242.568C247.24 242.879 246.316 242.956 243.998 243.385C242.568 243.655 239.34 244.332 237.363 244.696C235.386 245.061 234.709 243.432 235.482 243.132C238.936 241.774 240.372 240.58 241.31 239.469C241.479 239.27 241.727 239.132 242.007 239.081Z" fill="#263238"/>
<path d="M207.075 240.045H212.328C212.424 240.046 212.516 240.074 212.59 240.125C212.665 240.176 212.717 240.247 212.739 240.327L213.689 244.002C213.717 244.091 213.721 244.184 213.699 244.274C213.677 244.365 213.631 244.449 213.565 244.521C213.498 244.593 213.413 244.651 213.316 244.689C213.219 244.728 213.112 244.746 213.005 244.743C211.111 244.714 208.375 244.62 205.994 244.62C203.204 244.62 200.803 244.749 197.533 244.749C195.557 244.749 195.009 243.032 195.837 242.873C199.599 242.168 202.677 242.091 205.926 240.369C206.267 240.172 206.665 240.06 207.075 240.045Z" fill="#263238"/>
<path d="M226.521 99.372C231.028 100.26 234.729 110.156 234.729 110.156L225.72 116.077C223.382 113.928 221.732 111.294 220.932 108.433C219.339 103.247 221.911 98.4547 226.521 99.372Z" fill="#183044"/>
<path opacity="0.4" d="M226.521 99.372C231.028 100.26 234.729 110.156 234.729 110.156L225.72 116.077C223.382 113.928 221.732 111.294 220.932 108.433C219.339 103.247 221.911 98.4547 226.521 99.372Z" fill="black"/>
<path d="M202.807 111.173C201.685 112.214 200.563 113.143 199.387 114.113C198.805 114.584 198.217 115.054 197.615 115.507L196.705 116.195L196.48 116.365L196.09 116.636C195.688 116.911 195.244 117.137 194.77 117.306C194.242 117.499 193.674 117.599 193.101 117.6C192.611 117.602 192.124 117.528 191.664 117.382C191.154 117.215 190.689 116.961 190.296 116.636C189.795 116.215 189.428 115.69 189.229 115.113C189.125 114.828 189.059 114.534 189.031 114.237C188.995 113.888 188.995 113.538 189.031 113.19C189.065 112.908 189.106 112.661 189.161 112.431C189.348 111.63 189.613 110.843 189.954 110.079C190.262 109.354 190.616 108.643 191.014 107.951C191.452 107.204 191.869 106.657 192.287 106.034C193.981 103.647 195.915 101.393 198.066 99.2956C200.196 97.2108 202.543 95.2977 205.077 93.5802L207.595 95.8087C205.83 97.8432 204.092 100.025 202.485 102.171C200.885 104.305 199.424 106.513 198.107 108.786C197.813 109.339 197.423 109.962 197.239 110.409C196.994 110.928 196.782 111.458 196.603 111.996C196.43 112.481 196.3 112.977 196.213 113.478C196.208 113.556 196.208 113.635 196.213 113.713C196.213 113.76 196.213 113.784 196.213 113.66C196.202 113.528 196.172 113.398 196.124 113.272C195.976 112.855 195.705 112.479 195.337 112.179C195.01 111.92 194.626 111.72 194.209 111.591C193.841 111.471 193.452 111.409 193.06 111.408C192.682 111.404 192.307 111.466 191.958 111.591C191.84 111.632 191.726 111.681 191.616 111.738L191.876 111.532L192.704 110.885L194.339 109.568C195.419 108.692 196.507 107.757 197.533 106.887L202.807 111.173Z" fill="#FF8B7B"/>
<path opacity="0.2" d="M222.655 106.64C225.104 108.721 225.904 112.52 226.075 115.812L225.679 116.077C223.341 113.928 221.691 111.294 220.891 108.433C220.802 108.127 220.72 107.845 220.658 107.51L222.655 106.64Z" fill="black"/>
<path d="M198.026 103.488C197.041 107.957 196.426 117.135 199.278 135.305H225.038C225.215 131.912 222.732 115.342 226.542 99.3426C223.696 98.8727 220.817 98.5604 217.924 98.4077C214.279 98.228 210.625 98.228 206.98 98.4077C205.776 98.5017 204.586 98.6546 203.56 98.8134C202.195 99.0192 200.936 99.5763 199.948 100.411C198.959 101.246 198.29 102.319 198.026 103.488Z" fill="#183044"/>
<path opacity="0.4" d="M198.026 103.488C197.041 107.957 196.426 117.135 199.278 135.305H225.038C225.215 131.912 222.732 115.342 226.542 99.3426C223.696 98.8727 220.817 98.5604 217.924 98.4077C214.279 98.228 210.625 98.228 206.98 98.4077C205.776 98.5017 204.586 98.6546 203.56 98.8134C202.195 99.0192 200.936 99.5763 199.948 100.411C198.959 101.246 198.29 102.319 198.026 103.488Z" fill="black"/>
<path opacity="0.2" d="M201.965 110.115L197.314 109.156C197.171 111.579 197.157 114.578 197.362 118.288C199.503 116.195 202.239 112.925 201.965 110.115Z" fill="black"/>
<path opacity="0.2" d="M206.562 230.949L206.809 235.888H211.624L211.378 230.949H206.562Z" fill="black"/>
<path opacity="0.2" d="M242.444 229.69L237.738 230.567L240.173 235.165L244.879 234.289L242.444 229.69Z" fill="black"/>
<path d="M218.834 84.766C217.602 88.7292 217.11 91.1047 214.264 92.7511C209.989 95.256 204.654 92.3865 204.517 88.2C204.367 84.4191 206.412 78.5685 211.357 77.7688C212.444 77.5935 213.565 77.659 214.614 77.959C215.663 78.2591 216.606 78.7839 217.354 79.4839C218.102 80.184 218.631 81.0362 218.889 81.9604C219.148 82.8845 219.129 83.8501 218.834 84.766Z" fill="#FF8B7B"/>
<path d="M208.039 84.9131C207.807 84.3839 206.747 80.2855 207.745 79.2212C208.744 78.1569 220.133 78.9272 221.815 80.3502C224.613 82.7022 222.67 84.819 219.613 87.5414C217.315 89.5877 217.226 91.8926 216.063 92.2454C214.011 92.8334 210.878 92.2807 210.249 90.4168C209.62 88.5528 208.039 84.9131 208.039 84.9131Z" fill="#263238"/>
<path d="M220.434 75.6873C216.412 74.2173 208.867 75.8461 204.791 74.9994C204.739 76.3025 205.237 77.5777 206.194 78.5894C207.151 79.6011 208.501 80.2808 209.996 80.5031C213.378 81.0571 216.814 81.3308 220.256 81.3204C224.729 81.144 223.854 76.9398 220.434 75.6873Z" fill="#263238"/>
<path d="M221.062 80.4736C222.532 80.5979 224.011 80.3549 225.324 79.7739C226.076 81.338 221.938 81.7672 221.062 80.4736Z" fill="#263238"/>
<path d="M210.227 85.0777C210.135 86.0974 209.654 87.0626 208.859 87.8237C207.806 88.8174 206.711 88.1941 206.527 86.9887C206.362 85.895 206.704 84.0487 207.99 83.5195C209.276 82.9903 210.316 83.8488 210.227 85.0777Z" fill="#FF8B7B"/>
<path d="M208.408 135.322C208.408 135.322 213.88 166.927 216.869 178.77C220.146 191.735 237.752 234.63 237.752 234.63L246.363 233.024C246.363 233.024 234.051 198.062 231.315 179.934C229.195 166.01 225.029 135.311 225.029 135.311L208.408 135.322Z" fill="#183044"/>
<path d="M235.686 232.166C235.652 232.166 237.293 234.847 237.293 234.847L246.979 233.042L246.165 230.537L235.686 232.166Z" fill="#263238"/>
<path opacity="0.3" d="M211.862 146.582C218.175 147.647 217.505 167.886 216.746 178.299C214.926 170.937 212.259 156.778 210.439 146.729C210.88 146.542 211.382 146.491 211.862 146.582Z" fill="black"/>
<path d="M199.277 135.322C199.277 135.322 198.593 166.245 199.14 178.834C199.687 191.953 205.015 234.906 205.015 234.906H213.169C213.169 234.906 213.463 192.717 213.853 179.834C214.249 165.793 216.219 135.299 216.219 135.299L199.277 135.322Z" fill="#183044"/>
<path d="M203.45 232.142C203.409 232.142 203.908 235.047 203.908 235.047H213.819L214.093 232.454L203.45 232.142Z" fill="#263238"/>
<path d="M208.108 104.864C210.413 110.209 196.863 116.506 196.863 116.506L190.994 110.038C190.994 110.038 194.941 103.323 199.729 100.301C205.645 96.5731 206.35 100.795 208.108 104.864Z" fill="#183044"/>
<path opacity="0.4" d="M208.108 104.864C210.413 110.209 196.863 116.506 196.863 116.506L190.994 110.038C190.994 110.038 194.941 103.323 199.729 100.301C205.645 96.5731 206.35 100.795 208.108 104.864Z" fill="black"/>
<path d="M261.199 64.286C274.833 64.286 285.885 58.2311 285.885 50.762C285.885 43.2929 274.833 37.238 261.199 37.238C247.566 37.238 236.514 43.2929 236.514 50.762C236.514 58.2311 247.566 64.286 261.199 64.286Z" fill="#183044"/>
<path d="M252.292 57.5711C250.666 57.5665 249.094 57.0695 247.852 56.1673C246.61 55.265 245.777 54.0153 245.5 52.6377C245.228 51.1455 245.62 49.62 246.597 48.3648C247.574 47.1095 249.066 46.2167 250.774 45.864C252.176 45.5863 253.644 45.6933 254.971 46.17C256.299 46.6468 257.419 47.4692 258.175 48.5217L274.023 45.7111C274.632 45.5964 275.269 45.6835 275.807 45.9549C276.344 46.2263 276.743 46.6621 276.923 47.1752C277.006 47.445 277.024 47.7265 276.976 48.0024C276.929 48.2784 276.816 48.5431 276.645 48.7803C276.474 49.0175 276.248 49.2222 275.982 49.382C275.716 49.5418 275.415 49.6532 275.097 49.7095L274.687 49.7801C274.626 49.7895 274.568 49.8108 274.518 49.8424C274.468 49.874 274.428 49.915 274.399 49.9623C274.374 50.0104 274.361 50.0625 274.361 50.1152C274.361 50.1679 274.374 50.2201 274.399 50.2681L274.68 50.8914C274.774 51.0934 274.783 51.3173 274.705 51.5244C274.628 51.7316 274.469 51.909 274.256 52.0262C274.088 52.1155 273.945 52.2366 273.84 52.3803C273.734 52.5239 273.668 52.6864 273.647 52.8553C273.627 53.0491 273.536 53.2325 273.387 53.3793C273.239 53.5261 273.04 53.6288 272.819 53.6726L272.498 53.7314C272.275 53.7668 272.045 53.7403 271.841 53.6557C271.637 53.5712 271.469 53.4329 271.362 53.261C271.22 53.0559 271.008 52.894 270.753 52.7979C270.499 52.7018 270.217 52.6762 269.945 52.7247C269.673 52.7733 269.426 52.8935 269.237 53.0687C269.049 53.2439 268.928 53.4653 268.893 53.702C268.874 53.8946 268.784 54.077 268.637 54.2229C268.489 54.3687 268.292 54.4705 268.072 54.5135L267.751 54.5723C267.528 54.6067 267.298 54.5798 267.094 54.4953C266.891 54.4108 266.723 54.2731 266.615 54.1019C266.513 53.956 266.375 53.8311 266.211 53.7356C266.047 53.6402 265.86 53.5766 265.665 53.5491C265.402 53.5219 265.159 53.4131 264.983 53.2431C264.807 53.0732 264.709 52.8537 264.707 52.626V51.9557C264.704 51.9032 264.688 51.8519 264.66 51.8052C264.632 51.7586 264.593 51.7177 264.545 51.6853C264.497 51.6529 264.441 51.6298 264.382 51.6176C264.323 51.6054 264.261 51.6044 264.201 51.6146L259.146 52.5084C258.94 53.7122 258.307 54.8322 257.334 55.716C256.361 56.5998 255.095 57.2044 253.708 57.4476C253.242 57.5295 252.768 57.5708 252.292 57.5711ZM250.924 46.3991C249.373 46.7106 248.017 47.5158 247.128 48.6527C246.24 49.7896 245.885 51.1736 246.136 52.526C246.405 53.7843 247.189 54.9182 248.347 55.7227C249.504 56.5272 250.957 56.9492 252.445 56.9122C253.933 56.8753 255.356 56.3819 256.457 55.5213C257.558 54.6607 258.264 53.4897 258.448 52.2203V52.0086L264.023 51.0384C264.183 51.0051 264.35 51.0029 264.511 51.0319C264.672 51.0608 264.823 51.1203 264.954 51.2058C265.085 51.2914 265.192 51.401 265.268 51.5266C265.343 51.6523 265.386 51.7908 265.391 51.9321V52.6025C265.393 52.6823 265.426 52.7592 265.486 52.8202C265.546 52.8813 265.628 52.9227 265.719 52.9376C266.018 52.9744 266.304 53.0693 266.554 53.215C266.804 53.3606 267.012 53.5533 267.163 53.7785C267.199 53.8419 267.257 53.8941 267.33 53.9278C267.402 53.9615 267.485 53.9751 267.566 53.9666L267.881 53.9078C267.961 53.8902 268.032 53.8509 268.083 53.7958C268.135 53.7407 268.165 53.6728 268.168 53.6021C268.211 53.236 268.389 52.8912 268.675 52.6175C268.961 52.3439 269.34 52.1554 269.759 52.0795C270.178 52.0036 270.614 52.0441 271.004 52.1952C271.394 52.3463 271.719 52.6001 271.93 52.92C271.965 52.983 272.022 53.0349 272.093 53.0687C272.165 53.1024 272.246 53.1162 272.327 53.1081L272.655 53.0493C272.734 53.0306 272.803 52.9909 272.854 52.9359C272.904 52.8809 272.933 52.8135 272.936 52.7436C272.969 52.4854 273.071 52.2373 273.234 52.0182C273.396 51.7991 273.615 51.6148 273.873 51.4794C273.948 51.4326 274.003 51.3656 274.029 51.2889C274.055 51.2122 274.051 51.1303 274.016 51.056L273.736 50.4327C273.678 50.3042 273.653 50.1664 273.664 50.0289C273.674 49.8913 273.719 49.7574 273.796 49.6365C273.873 49.5155 273.98 49.4104 274.109 49.3286C274.238 49.2468 274.386 49.1901 274.543 49.1627L274.96 49.0862C275.186 49.0448 275.4 48.9647 275.589 48.8507C275.778 48.7366 275.938 48.591 276.06 48.4224C276.182 48.2539 276.263 48.066 276.299 47.8699C276.334 47.6737 276.323 47.4735 276.267 47.2811C276.133 46.911 275.842 46.5981 275.451 46.405C275.06 46.212 274.599 46.1531 274.16 46.2403L257.867 49.1509L257.744 48.9686C257.089 47.9668 256.073 47.1754 254.849 46.714C253.625 46.2525 252.259 46.1461 250.959 46.4108L250.924 46.3991ZM252.292 55.3837C251.443 55.3918 250.609 55.1875 249.892 54.7957C249.043 54.317 248.415 53.6002 248.112 52.7676C247.81 51.9349 247.853 51.038 248.234 50.2296C248.615 49.4212 249.311 48.7514 250.202 48.3344C251.093 47.9175 252.125 47.7791 253.122 47.943C254.118 48.1068 255.018 48.5628 255.667 49.233C256.316 49.9033 256.675 50.7464 256.682 51.6186C256.689 52.4908 256.344 53.3381 255.706 54.0161C255.068 54.6941 254.175 55.1608 253.182 55.3367C252.891 55.3819 252.595 55.4017 252.299 55.3955L252.292 55.3837ZM252.292 48.4394C252.038 48.4407 251.783 48.4623 251.533 48.5041C251.057 48.5913 250.605 48.7584 250.203 48.9958C249.802 49.2332 249.459 49.5362 249.194 49.8876C248.929 50.2389 248.747 50.6317 248.658 51.0436C248.569 51.4554 248.576 51.8782 248.678 52.2879C248.779 52.6975 248.973 53.086 249.25 53.431C249.526 53.7761 249.878 54.071 250.287 54.299C250.696 54.5269 251.153 54.6835 251.632 54.7596C252.111 54.8357 252.603 54.83 253.079 54.7428C253.794 54.6148 254.45 54.3075 254.962 53.8599C255.475 53.4122 255.822 52.8441 255.959 52.2272C256.097 51.6103 256.019 50.9722 255.735 50.3933C255.451 49.8145 254.975 49.3208 254.365 48.9745C253.759 48.6283 253.047 48.446 252.32 48.4512L252.292 48.4394Z" fill="white"/>
<path opacity="0.6" d="M241.108 72.2181C245.589 72.2181 249.221 70.2279 249.221 67.7729C249.221 65.3178 245.589 63.3276 241.108 63.3276C236.628 63.3276 232.996 65.3178 232.996 67.7729C232.996 70.2279 236.628 72.2181 241.108 72.2181Z" fill="#183044"/>
<path opacity="0.3" d="M228.202 74.041C230.042 74.041 231.533 73.2249 231.533 72.2182C231.533 71.2115 230.042 70.3954 228.202 70.3954C226.362 70.3954 224.871 71.2115 224.871 72.2182C224.871 73.2249 226.362 74.041 228.202 74.041Z" fill="#183044"/>
</svg>
