<!DOCTYPE svg PUBLIC "-//W3C//DTD SVG 1.1//EN" "http://www.w3.org/Graphics/SVG/1.1/DTD/svg11.dtd">
<!-- Uploaded to: SVG Repo, www.svgrepo.com, Transformed by: SVG Repo Mixer Tools -->
<svg width="800px" height="800px" viewBox="0 0 1024 1024" fill="#ffffff" class="icon" version="1.1" xmlns="http://www.w3.org/2000/svg" stroke="#ffffff">
<g id="SVGRepo_bgCarrier" stroke-width="0"/>
<g id="SVGRepo_tracerCarrier" stroke-linecap="round" stroke-linejoin="round"/>
<g id="SVGRepo_iconCarrier">
<path d="M504.486 847.862c-4.42 0-8.074-3.576-8.074-7.996s3.498-7.996 7.902-7.996h0.172c4.404 0 7.998 3.576 7.998 7.996s-3.594 7.996-7.998 7.996zM560.46 799.88c-4.42 0-8.074-3.576-8.074-7.996s3.498-7.996 7.902-7.996h0.172c4.404 0 7.998 3.576 7.998 7.996a8 8 0 0 1-7.998 7.996zM560.46 719.916c-4.42 0-8.074-3.578-8.074-7.998s3.498-7.996 7.902-7.996h0.172c4.404 0 7.998 3.576 7.998 7.996s-3.592 7.998-7.998 7.998zM595.072 779.89c-4.422 0-8.074-3.576-8.074-7.998 0-4.42 3.498-7.996 7.902-7.996h0.172a8 8 0 0 1 7.996 7.996 8 8 0 0 1-7.996 7.998zM525.818 739.906c-4.418 0-8.074-3.576-8.074-7.996s3.5-7.996 7.902-7.996h0.172a8 8 0 0 1 7.998 7.996 8 8 0 0 1-7.998 7.996zM595.072 739.906c-4.422 0-8.074-3.576-8.074-7.996s3.498-7.996 7.902-7.996h0.172a8 8 0 0 1 7.996 7.996 8 8 0 0 1-7.996 7.996zM525.818 779.89c-4.418 0-8.074-3.576-8.074-7.998 0-4.42 3.5-7.996 7.902-7.996h0.172a8 8 0 0 1 7.998 7.996 8.002 8.002 0 0 1-7.998 7.998zM184.136 991.8a7.99 7.99 0 0 1-7.996-7.996V472.026c0-4.42 3.576-7.998 7.996-7.998s7.996 3.578 7.996 7.998v511.778a7.99 7.99 0 0 1-7.996 7.996zM935.818 991.8a7.99 7.99 0 0 1-7.996-7.996V472.026a7.992 7.992 0 0 1 7.996-7.998 7.994 7.994 0 0 1 7.998 7.998v511.778a7.992 7.992 0 0 1-7.998 7.996z" fill=""/>
<path d="M184.136 480.022a8 8 0 0 1-7.122-4.358 7.992 7.992 0 0 1 3.484-10.76l375.84-191.918a8.04 8.04 0 0 1 10.762 3.482 7.99 7.99 0 0 1-3.484 10.76l-375.84 191.918a7.976 7.976 0 0 1-3.64 0.876z" fill=""/>
<path d="M935.818 480.022a8 8 0 0 1-3.638-0.876l-375.842-191.918a7.99 7.99 0 0 1-3.482-10.76 8.02 8.02 0 0 1 10.76-3.482l375.844 191.918a7.992 7.992 0 0 1 3.482 10.76 8.004 8.004 0 0 1-7.124 4.358zM120.164 488.02a8.004 8.004 0 0 1-7.076-4.264 8.002 8.002 0 0 1 3.342-10.806l439.814-231.904a8.034 8.034 0 0 1 10.808 3.342 8.004 8.004 0 0 1-3.344 10.808L123.896 487.098a8.01 8.01 0 0 1-3.732 0.922z" fill=""/>
<path d="M999.792 488.02a7.994 7.994 0 0 1-3.73-0.92L556.244 255.196a8.004 8.004 0 0 1-3.342-10.808 8.026 8.026 0 0 1 10.806-3.342l439.816 231.904a7.998 7.998 0 1 1-3.732 15.07zM272.098 384.064a7.992 7.992 0 0 1-7.996-7.998V296.1c0-4.42 3.576-7.998 7.996-7.998s7.998 3.578 7.998 7.998v79.966a7.994 7.994 0 0 1-7.998 7.998zM320.08 352.078a7.994 7.994 0 0 1-7.998-7.998v-47.98c0-4.42 3.578-7.998 7.998-7.998s7.996 3.578 7.996 7.998v47.98a7.992 7.992 0 0 1-7.996 7.998z" fill=""/>
<path d="M320.08 304.096h-47.98c-4.42 0-7.996-3.576-7.996-7.996s3.576-7.998 7.996-7.998h47.98c4.42 0 7.996 3.578 7.996 7.998s-3.576 7.996-7.996 7.996zM983.798 1023.788H136.156c-4.42 0-7.996-3.576-7.996-7.996s3.576-7.996 7.996-7.996H983.8c4.42 0 7.996 3.576 7.996 7.996s-3.578 7.996-7.998 7.996zM679.928 991.8h-239.9c-4.42 0-7.996-3.576-7.996-7.996s3.576-7.998 7.996-7.998h239.9c4.418 0 7.996 3.578 7.996 7.998s-3.578 7.996-7.996 7.996zM663.934 959.814H456.022c-4.42 0-7.998-3.576-7.998-7.996s3.578-7.996 7.998-7.996h207.912c4.42 0 7.996 3.576 7.996 7.996s-3.576 7.996-7.996 7.996z" fill=""/>
<path d="M472.014 959.814a7.99 7.99 0 0 1-7.996-7.996V663.94c0-4.422 3.576-7.998 7.996-7.998s7.998 3.576 7.998 7.998v287.878a7.992 7.992 0 0 1-7.998 7.996z" fill=""/>
<path d="M647.94 671.936h-175.924a7.99 7.99 0 0 1-7.996-7.996 7.992 7.992 0 0 1 7.996-7.998h175.924a7.992 7.992 0 0 1 7.996 7.998 7.99 7.99 0 0 1-7.996 7.996z" fill=""/>
<path d="M647.94 959.814a7.99 7.99 0 0 1-7.996-7.996V663.94c0-4.422 3.576-7.998 7.996-7.998s7.996 3.576 7.996 7.998v287.878a7.99 7.99 0 0 1-7.996 7.996zM871.846 831.87h-159.934a7.994 7.994 0 0 1-7.996-7.998V663.94a7.992 7.992 0 0 1 7.996-7.998h159.934a7.992 7.992 0 0 1 7.996 7.998v159.932a7.992 7.992 0 0 1-7.996 7.998z m-151.936-15.994h143.94v-143.94h-143.94v143.94zM866.364 514.76c-11.12 0-24.538-2.048-36.672-9.482-13.542-8.278-22.85-21.508-27.77-39.406-9.95 2.204-27.598 4.874-47.152 2.078-26.598-3.796-61.49-18.57-80.06-66.738-26.27 3.842-69.578-3.466-82.512-55.196a8.01 8.01 0 0 1 5.826-9.7c4.202-1.046 8.622 1.532 9.7 5.826 13.87 55.54 67.956 42.732 70.268 42.154 4.044-0.938 8.214 1.28 9.528 5.232 12.228 36.688 35.61 57.742 69.502 62.584 25.864 3.716 48.104-3.592 48.322-3.67a8.116 8.116 0 0 1 6.592 0.704 8.004 8.004 0 0 1 3.794 5.42c3.266 17.508 10.73 29.956 22.226 37.016 20.302 12.51 47.354 4.84 47.62 4.764a7.982 7.982 0 0 1 9.934 5.418 8.012 8.012 0 0 1-5.388 9.916c-0.752 0.22-10.64 3.08-23.758 3.08z" fill=""/>
<path d="M831.864 520.006a7.994 7.994 0 0 1-5.654-13.65l9.808-9.808a7.994 7.994 0 0 1 11.308 0 7.994 7.994 0 0 1 0 11.308l-9.808 9.81a7.98 7.98 0 0 1-5.654 2.34zM623.952 408.054a7.994 7.994 0 0 1-5.654-13.652l11.51-11.51a7.994 7.994 0 0 1 11.308 0 7.994 7.994 0 0 1 0 11.308l-11.512 11.51a7.97 7.97 0 0 1-5.652 2.344zM759.892 480.366a7.99 7.99 0 0 1-7.996-7.996v-11.84c0-4.42 3.576-7.996 7.996-7.996s7.996 3.576 7.996 7.996v11.84a7.99 7.99 0 0 1-7.996 7.996zM687.924 440.04a7.968 7.968 0 0 1-5.654-2.344 7.992 7.992 0 0 1 0-11.306l7.996-7.998a7.996 7.996 0 1 1 11.308 11.308l-7.998 7.996a7.968 7.968 0 0 1-5.652 2.344zM253.59 514.76c-13.12 0-23.006-2.86-23.756-3.08a8.012 8.012 0 0 1-5.388-9.916 7.976 7.976 0 0 1 9.934-5.418c0.25 0.078 27.3 7.746 47.622-4.764 11.496-7.06 18.96-19.508 22.224-37.016a8.042 8.042 0 0 1 3.796-5.42 8.046 8.046 0 0 1 6.576-0.704c3.576 1.188 88.822 28.144 117.842-58.914 1.31-3.952 5.388-6.216 9.51-5.232 2.28 0.592 56.476 13.104 70.284-42.154 1.062-4.294 5.356-6.858 9.7-5.826a8.01 8.01 0 0 1 5.824 9.7c-12.948 51.712-56.21 59.022-82.51 55.196-18.57 48.168-53.462 62.942-80.06 66.738-19.57 2.794-37.218 0.124-47.152-2.078-4.92 17.898-14.228 31.128-27.77 39.406-12.138 7.434-25.554 9.482-36.676 9.482z" fill=""/>
<path d="M288.092 520.006a7.97 7.97 0 0 1-5.654-2.342l-9.808-9.81c-3.124-3.124-3.124-8.184 0-11.308s8.184-3.124 11.308 0l9.808 9.808a7.994 7.994 0 0 1-5.654 13.652zM496.004 408.054a7.972 7.972 0 0 1-5.654-2.344l-11.51-11.51a7.994 7.994 0 0 1 0-11.308 7.992 7.992 0 0 1 11.306 0l11.512 11.51a7.994 7.994 0 0 1-5.654 13.652zM360.062 480.366a7.99 7.99 0 0 1-7.996-7.996v-11.84c0-4.42 3.576-7.996 7.996-7.996s7.998 3.576 7.998 7.996v11.84a7.994 7.994 0 0 1-7.998 7.996zM432.032 440.04a7.972 7.972 0 0 1-5.654-2.344l-7.996-7.996a7.994 7.994 0 0 1 0-11.308 7.992 7.992 0 0 1 11.306 0l7.998 7.998a7.992 7.992 0 0 1 0 11.306 7.972 7.972 0 0 1-5.654 2.344z" fill=""/>
<path d="M559.976 224.13a7.99 7.99 0 0 1-7.996-7.996V184.148c0-4.42 3.576-7.998 7.996-7.998s7.998 3.578 7.998 7.998v31.986a7.992 7.992 0 0 1-7.998 7.996z" fill=""/>
<path d="M615.954 192.144H504c-4.42 0-7.996-3.576-7.996-7.996s3.576-7.998 7.996-7.998h111.952c4.42 0 7.998 3.578 7.998 7.998s-3.576 7.996-7.996 7.996z" fill=""/>
<path d="M615.954 192.144a8.014 8.014 0 0 1-7.152-4.42l-31.986-63.972a8.004 8.004 0 0 1 3.576-10.73 7.988 7.988 0 0 1 10.728 3.576l31.988 63.974a8.004 8.004 0 0 1-3.578 10.73 7.974 7.974 0 0 1-3.576 0.842zM504 192.144a8.004 8.004 0 0 1-7.152-11.574l31.986-63.974c1.984-3.936 6.792-5.544 10.73-3.576a8.006 8.006 0 0 1 3.576 10.73l-31.986 63.972A8.012 8.012 0 0 1 504 192.144zM599.958 96.184h-79.964c-4.42 0-7.996-3.578-7.996-7.998s3.576-7.998 7.996-7.998h79.964c4.422 0 7.998 3.578 7.998 7.998s-3.576 7.998-7.998 7.998z" fill=""/>
<path d="M599.958 96.184a8.016 8.016 0 0 1-7.152-4.42L552.824 11.798A8.004 8.004 0 0 1 556.4 1.068a7.99 7.99 0 0 1 10.73 3.578l39.982 79.966a8.004 8.004 0 0 1-3.576 10.73 7.982 7.982 0 0 1-3.578 0.842z" fill=""/>
<path d="M519.994 93.684c-1.234 0-2.5-0.282-3.672-0.89a8.002 8.002 0 0 1-3.434-10.776l39.984-77.468c2.03-3.92 6.872-5.482 10.776-3.436a8.004 8.004 0 0 1 3.438 10.778L527.1 89.358a7.996 7.996 0 0 1-7.106 4.326z" fill=""/>
<path d="M559.976 815.876c-35.282 0-63.972-28.692-63.972-63.972 0-35.284 28.69-63.974 63.972-63.974 35.284 0 63.974 28.692 63.974 63.974 0.002 35.28-28.69 63.972-63.974 63.972z m0-111.954c-26.458 0-47.978 21.522-47.978 47.98s21.522 47.978 47.978 47.978c26.458 0 47.98-21.522 47.98-47.978 0.002-26.458-21.52-47.98-47.98-47.98z" fill=""/>
<path d="M559.976 783.888c-17.632 0-31.986-14.354-31.986-31.986 0-17.634 14.354-31.986 31.986-31.986 17.634 0 31.986 14.352 31.986 31.986s-14.35 31.986-31.986 31.986z m0-47.98c-8.824 0-15.992 7.168-15.992 15.994 0 8.824 7.168 15.992 15.992 15.992s15.994-7.168 15.994-15.992c0-8.826-7.17-15.994-15.994-15.994z" fill=""/>
<path d="M791.878 799.88a7.99 7.99 0 0 1-7.996-7.996v-95.958c0-4.42 3.576-7.998 7.996-7.998s7.998 3.578 7.998 7.998v95.958a7.992 7.992 0 0 1-7.998 7.996z" fill=""/>
<path d="M839.86 751.902h-95.96a7.992 7.992 0 0 1-7.998-7.998 7.992 7.992 0 0 1 7.998-7.996h95.958a7.99 7.99 0 0 1 7.996 7.996 7.988 7.988 0 0 1-7.994 7.998z" fill=""/>
<path d="M408.042 831.87h-159.934a7.992 7.992 0 0 1-7.996-7.998V663.94a7.992 7.992 0 0 1 7.996-7.998h159.934a7.992 7.992 0 0 1 7.996 7.998v159.932a7.992 7.992 0 0 1-7.996 7.998z m-151.936-15.994h143.94v-143.94h-143.94v143.94z" fill=""/>
<path d="M328.076 799.88a7.99 7.99 0 0 1-7.996-7.996v-95.958c0-4.42 3.576-7.998 7.996-7.998s7.996 3.578 7.996 7.998v95.958a7.99 7.99 0 0 1-7.996 7.996z" fill=""/>
<path d="M376.056 751.902h-95.96a7.994 7.994 0 0 1-7.998-7.998 7.992 7.992 0 0 1 7.998-7.996h95.96a7.99 7.99 0 0 1 7.996 7.996 7.992 7.992 0 0 1-7.996 7.998z" fill=""/>
<path d="M559.976 607.962c-44.09 0-79.964-35.876-79.964-79.966 0-44.084 35.876-79.96 79.964-79.96 44.092 0 79.966 35.876 79.966 79.96 0.002 44.09-35.874 79.966-79.966 79.966z m0-143.932c-35.282 0-63.972 28.692-63.972 63.966 0 35.282 28.69 63.972 63.972 63.972 35.284 0 63.974-28.692 63.974-63.972 0.002-35.276-28.69-63.966-63.974-63.966z" fill=""/>
<path d="M871.846 639.95h-159.934a7.992 7.992 0 0 1-7.996-7.998 7.994 7.994 0 0 1 7.996-7.996h159.934a7.992 7.992 0 0 1 7.996 7.996 7.992 7.992 0 0 1-7.996 7.998z" fill=""/>
<path d="M727.906 639.95a7.992 7.992 0 0 1-7.996-7.998v-7.996c0-4.42 3.576-7.996 7.996-7.996s7.996 3.576 7.996 7.996v7.996a7.992 7.992 0 0 1-7.996 7.998zM759.892 639.95a7.992 7.992 0 0 1-7.996-7.998v-7.996c0-4.42 3.576-7.996 7.996-7.996s7.996 3.576 7.996 7.996v7.996a7.992 7.992 0 0 1-7.996 7.998zM791.878 639.95a7.992 7.992 0 0 1-7.996-7.998v-7.996c0-4.42 3.576-7.996 7.996-7.996s7.998 3.576 7.998 7.996v7.996a7.994 7.994 0 0 1-7.998 7.998zM823.866 639.95a7.992 7.992 0 0 1-7.996-7.998v-7.996a7.992 7.992 0 0 1 7.996-7.996 7.992 7.992 0 0 1 7.998 7.996v7.996a7.992 7.992 0 0 1-7.998 7.998zM855.854 639.95a7.992 7.992 0 0 1-7.998-7.998v-7.996a7.992 7.992 0 0 1 7.998-7.996 7.992 7.992 0 0 1 7.996 7.996v7.996a7.992 7.992 0 0 1-7.996 7.998z" fill=""/>
<path d="M871.846 863.854h-159.934c-4.418 0-7.996-3.576-7.996-7.996s3.578-7.996 7.996-7.996h159.934c4.42 0 7.996 3.576 7.996 7.996s-3.576 7.996-7.996 7.996z" fill=""/>
<path d="M855.854 871.852a7.992 7.992 0 0 1-7.998-7.998v-7.996a7.992 7.992 0 0 1 7.998-7.996 7.992 7.992 0 0 1 7.996 7.996v7.996a7.992 7.992 0 0 1-7.996 7.998zM823.866 871.852a7.992 7.992 0 0 1-7.996-7.998v-7.996a7.992 7.992 0 0 1 7.996-7.996 7.992 7.992 0 0 1 7.998 7.996v7.996a7.992 7.992 0 0 1-7.998 7.998zM791.878 871.852a7.992 7.992 0 0 1-7.996-7.998v-7.996c0-4.42 3.576-7.996 7.996-7.996s7.998 3.576 7.998 7.996v7.996a7.994 7.994 0 0 1-7.998 7.998zM759.892 871.852a7.992 7.992 0 0 1-7.996-7.998v-7.996c0-4.42 3.576-7.996 7.996-7.996s7.996 3.576 7.996 7.996v7.996a7.992 7.992 0 0 1-7.996 7.998zM727.906 871.852a7.992 7.992 0 0 1-7.996-7.998v-7.996c0-4.42 3.576-7.996 7.996-7.996s7.996 3.576 7.996 7.996v7.996a7.992 7.992 0 0 1-7.996 7.998z" fill=""/>
<path d="M408.042 639.95h-159.934a7.992 7.992 0 0 1-7.996-7.998 7.992 7.992 0 0 1 7.996-7.996h159.934a7.992 7.992 0 0 1 7.996 7.996 7.992 7.992 0 0 1-7.996 7.998z" fill=""/>
<path d="M264.102 639.95a7.994 7.994 0 0 1-7.998-7.998v-7.996c0-4.42 3.578-7.996 7.998-7.996s7.996 3.576 7.996 7.996v7.996a7.992 7.992 0 0 1-7.996 7.998zM296.088 639.95a7.992 7.992 0 0 1-7.996-7.998v-7.996c0-4.42 3.576-7.996 7.996-7.996s7.996 3.576 7.996 7.996v7.996a7.992 7.992 0 0 1-7.996 7.998zM328.076 639.95a7.992 7.992 0 0 1-7.996-7.998v-7.996c0-4.42 3.576-7.996 7.996-7.996s7.996 3.576 7.996 7.996v7.996a7.992 7.992 0 0 1-7.996 7.998zM360.062 639.95a7.992 7.992 0 0 1-7.996-7.998v-7.996c0-4.42 3.576-7.996 7.996-7.996s7.998 3.576 7.998 7.996v7.996a7.994 7.994 0 0 1-7.998 7.998zM392.048 639.95a7.992 7.992 0 0 1-7.996-7.998v-7.996c0-4.42 3.576-7.996 7.996-7.996s7.998 3.576 7.998 7.996v7.996a7.994 7.994 0 0 1-7.998 7.998z" fill=""/>
<path d="M408.042 863.854h-159.934c-4.42 0-7.996-3.576-7.996-7.996s3.576-7.996 7.996-7.996h159.934c4.42 0 7.996 3.576 7.996 7.996s-3.576 7.996-7.996 7.996z" fill=""/>
<path d="M392.048 871.852a7.992 7.992 0 0 1-7.996-7.998v-7.996c0-4.42 3.576-7.996 7.996-7.996s7.998 3.576 7.998 7.996v7.996a7.994 7.994 0 0 1-7.998 7.998zM360.062 871.852a7.992 7.992 0 0 1-7.996-7.998v-7.996c0-4.42 3.576-7.996 7.996-7.996s7.998 3.576 7.998 7.996v7.996a7.994 7.994 0 0 1-7.998 7.998zM328.076 871.852a7.992 7.992 0 0 1-7.996-7.998v-7.996c0-4.42 3.576-7.996 7.996-7.996s7.996 3.576 7.996 7.996v7.996a7.992 7.992 0 0 1-7.996 7.998zM296.088 871.852a7.992 7.992 0 0 1-7.996-7.998v-7.996c0-4.42 3.576-7.996 7.996-7.996s7.996 3.576 7.996 7.996v7.996a7.992 7.992 0 0 1-7.996 7.998zM264.102 871.852a7.994 7.994 0 0 1-7.998-7.998v-7.996c0-4.42 3.578-7.996 7.998-7.996s7.996 3.576 7.996 7.996v7.996a7.992 7.992 0 0 1-7.996 7.998z" fill=""/>
<path d="M559.976 575.974a7.99 7.99 0 0 1-7.996-7.996V488.02c0-4.42 3.576-7.998 7.996-7.998s7.998 3.578 7.998 7.998v79.958a7.992 7.992 0 0 1-7.998 7.996z" fill=""/>
<path d="M599.958 535.992h-79.964a7.99 7.99 0 0 1-7.996-7.996 7.99 7.99 0 0 1 7.996-7.99h79.964a7.992 7.992 0 1 1 0 15.986z" fill=""/>
<path d="M360.062 240.124h-191.92c-4.42 0-7.998-3.578-7.998-7.998s3.578-7.998 7.998-7.998h191.918c4.42 0 7.998 3.578 7.998 7.998s-3.576 7.998-7.996 7.998z" fill=""/>
<path d="M312.082 272.11h-31.986a7.994 7.994 0 0 1-7.998-7.998 7.994 7.994 0 0 1 7.998-7.998h31.986a7.994 7.994 0 0 1 7.998 7.998 7.994 7.994 0 0 1-7.998 7.998z" fill=""/>
<path d="M312.082 208.138H24.204a7.994 7.994 0 0 1-7.998-7.998 7.992 7.992 0 0 1 7.998-7.996h287.878a7.992 7.992 0 0 1 7.998 7.996 7.994 7.994 0 0 1-7.998 7.998z" fill=""/>
</g>
</svg>