<svg xmlns="http://www.w3.org/2000/svg" xmlns:xlink="http://www.w3.org/1999/xlink" width="192" zoomAndPan="magnify" viewBox="0 0 144 143.999998" height="192" preserveAspectRatio="xMidYMid meet" version="1.0"><defs><clipPath id="d0e91ec7fd"><path d="M 38 33 L 107 33 L 107 110.957031 L 38 110.957031 Z M 38 33 " clip-rule="nonzero"/></clipPath></defs><path fill="#183044" d="M 144 72 C 144 73.179688 143.972656 74.355469 143.914062 75.53125 C 143.855469 76.710938 143.769531 77.882812 143.652344 79.058594 C 143.539062 80.230469 143.394531 81.398438 143.21875 82.566406 C 143.046875 83.730469 142.847656 84.890625 142.617188 86.046875 C 142.386719 87.203125 142.128906 88.351562 141.84375 89.496094 C 141.554688 90.636719 141.242188 91.773438 140.898438 92.902344 C 140.558594 94.027344 140.1875 95.148438 139.792969 96.257812 C 139.394531 97.367188 138.96875 98.464844 138.519531 99.554688 C 138.070312 100.640625 137.589844 101.71875 137.085938 102.785156 C 136.582031 103.847656 136.054688 104.902344 135.5 105.941406 C 134.941406 106.980469 134.363281 108.003906 133.757812 109.015625 C 133.152344 110.027344 132.519531 111.019531 131.867188 112 C 131.210938 112.980469 130.53125 113.945312 129.832031 114.890625 C 129.128906 115.835938 128.402344 116.765625 127.65625 117.675781 C 126.910156 118.585938 126.140625 119.480469 125.347656 120.351562 C 124.558594 121.226562 123.746094 122.078125 122.910156 122.910156 C 122.078125 123.746094 121.226562 124.558594 120.351562 125.347656 C 119.480469 126.140625 118.585938 126.910156 117.675781 127.65625 C 116.765625 128.402344 115.835938 129.128906 114.890625 129.832031 C 113.945312 130.53125 112.980469 131.210938 112 131.867188 C 111.019531 132.519531 110.027344 133.152344 109.015625 133.757812 C 108.003906 134.363281 106.980469 134.941406 105.941406 135.5 C 104.902344 136.054688 103.847656 136.582031 102.785156 137.085938 C 101.71875 137.589844 100.640625 138.070312 99.554688 138.519531 C 98.464844 138.96875 97.367188 139.394531 96.257812 139.792969 C 95.148438 140.1875 94.027344 140.558594 92.902344 140.898438 C 91.773438 141.242188 90.636719 141.554688 89.496094 141.84375 C 88.351562 142.128906 87.203125 142.386719 86.046875 142.617188 C 84.890625 142.847656 83.730469 143.046875 82.566406 143.21875 C 81.398438 143.394531 80.230469 143.539062 79.058594 143.652344 C 77.882812 143.769531 76.710938 143.855469 75.53125 143.914062 C 74.355469 143.972656 73.179688 144 72 144 C 70.820312 144 69.644531 143.972656 68.46875 143.914062 C 67.289062 143.855469 66.117188 143.769531 64.941406 143.652344 C 63.769531 143.539062 62.601562 143.394531 61.433594 143.21875 C 60.269531 143.046875 59.109375 142.847656 57.953125 142.617188 C 56.796875 142.386719 55.648438 142.128906 54.503906 141.84375 C 53.363281 141.554688 52.226562 141.242188 51.097656 140.898438 C 49.972656 140.558594 48.851562 140.1875 47.742188 139.792969 C 46.632812 139.394531 45.535156 138.96875 44.445312 138.519531 C 43.359375 138.070312 42.28125 137.589844 41.214844 137.085938 C 40.152344 136.582031 39.097656 136.054688 38.058594 135.5 C 37.019531 134.941406 35.996094 134.363281 34.984375 133.757812 C 33.972656 133.152344 32.980469 132.519531 32 131.867188 C 31.019531 131.210938 30.054688 130.53125 29.109375 129.832031 C 28.164062 129.128906 27.234375 128.402344 26.324219 127.65625 C 25.414062 126.910156 24.519531 126.140625 23.648438 125.347656 C 22.773438 124.558594 21.921875 123.746094 21.089844 122.910156 C 20.253906 122.078125 19.441406 121.226562 18.652344 120.351562 C 17.859375 119.480469 17.089844 118.585938 16.34375 117.675781 C 15.597656 116.765625 14.871094 115.835938 14.167969 114.890625 C 13.46875 113.945312 12.789062 112.980469 12.132812 112 C 11.480469 111.019531 10.847656 110.027344 10.242188 109.015625 C 9.636719 108.003906 9.058594 106.980469 8.5 105.941406 C 7.945312 104.902344 7.417969 103.847656 6.914062 102.785156 C 6.410156 101.71875 5.929688 100.640625 5.480469 99.554688 C 5.03125 98.464844 4.605469 97.367188 4.207031 96.257812 C 3.8125 95.148438 3.441406 94.027344 3.101562 92.902344 C 2.757812 91.773438 2.445312 90.636719 2.15625 89.496094 C 1.871094 88.351562 1.613281 87.203125 1.382812 86.046875 C 1.152344 84.890625 0.953125 83.730469 0.777344 82.566406 C 0.605469 81.398438 0.460938 80.230469 0.347656 79.058594 C 0.230469 77.882812 0.144531 76.710938 0.0859375 75.53125 C 0.0273438 74.355469 0 73.179688 0 72 C 0 70.820312 0.0273438 69.644531 0.0859375 68.46875 C 0.144531 67.289062 0.230469 66.117188 0.347656 64.941406 C 0.460938 63.769531 0.605469 62.601562 0.777344 61.433594 C 0.953125 60.269531 1.152344 59.109375 1.382812 57.953125 C 1.613281 56.796875 1.871094 55.648438 2.15625 54.503906 C 2.445312 53.363281 2.757812 52.226562 3.101562 51.097656 C 3.441406 49.972656 3.8125 48.851562 4.207031 47.742188 C 4.605469 46.632812 5.03125 45.535156 5.480469 44.445312 C 5.929688 43.359375 6.410156 42.28125 6.914062 41.214844 C 7.417969 40.152344 7.945312 39.097656 8.5 38.058594 C 9.058594 37.019531 9.636719 35.996094 10.242188 34.984375 C 10.847656 33.972656 11.480469 32.980469 12.132812 32 C 12.789062 31.019531 13.46875 30.054688 14.167969 29.109375 C 14.871094 28.164062 15.597656 27.234375 16.34375 26.324219 C 17.089844 25.414062 17.859375 24.519531 18.652344 23.648438 C 19.441406 22.773438 20.253906 21.921875 21.089844 21.089844 C 21.921875 20.253906 22.773438 19.441406 23.648438 18.652344 C 24.519531 17.859375 25.414062 17.089844 26.324219 16.34375 C 27.234375 15.597656 28.164062 14.871094 29.109375 14.167969 C 30.054688 13.46875 31.019531 12.789062 32 12.132812 C 32.980469 11.480469 33.972656 10.847656 34.984375 10.242188 C 35.996094 9.636719 37.019531 9.058594 38.058594 8.5 C 39.097656 7.945312 40.152344 7.417969 41.214844 6.914062 C 42.28125 6.410156 43.359375 5.929688 44.445312 5.480469 C 45.535156 5.03125 46.632812 4.605469 47.742188 4.207031 C 48.851562 3.8125 49.972656 3.441406 51.097656 3.101562 C 52.226562 2.757812 53.363281 2.445312 54.503906 2.15625 C 55.648438 1.871094 56.796875 1.613281 57.953125 1.382812 C 59.109375 1.152344 60.269531 0.953125 61.433594 0.777344 C 62.601562 0.605469 63.769531 0.460938 64.941406 0.347656 C 66.117188 0.230469 67.289062 0.144531 68.46875 0.0859375 C 69.644531 0.0273438 70.820312 0 72 0 C 73.179688 0 74.355469 0.0273438 75.53125 0.0859375 C 76.710938 0.144531 77.882812 0.230469 79.058594 0.347656 C 80.230469 0.460938 81.398438 0.605469 82.566406 0.777344 C 83.730469 0.953125 84.890625 1.152344 86.046875 1.382812 C 87.203125 1.613281 88.351562 1.871094 89.496094 2.15625 C 90.636719 2.445312 91.773438 2.757812 92.902344 3.101562 C 94.027344 3.441406 95.148438 3.8125 96.257812 4.207031 C 97.367188 4.605469 98.464844 5.03125 99.554688 5.480469 C 100.640625 5.929688 101.71875 6.410156 102.785156 6.914062 C 103.847656 7.417969 104.902344 7.945312 105.941406 8.5 C 106.980469 9.058594 108.003906 9.636719 109.015625 10.242188 C 110.027344 10.847656 111.019531 11.480469 112 12.132812 C 112.980469 12.789062 113.945312 13.46875 114.890625 14.167969 C 115.835938 14.871094 116.765625 15.597656 117.675781 16.34375 C 118.585938 17.089844 119.480469 17.859375 120.351562 18.652344 C 121.226562 19.441406 122.078125 20.253906 122.910156 21.089844 C 123.746094 21.921875 124.558594 22.773438 125.347656 23.648438 C 126.140625 24.519531 126.910156 25.414062 127.65625 26.324219 C 128.402344 27.234375 129.128906 28.164062 129.832031 29.109375 C 130.53125 30.054688 131.210938 31.019531 131.867188 32 C 132.519531 32.980469 133.152344 33.972656 133.757812 34.984375 C 134.363281 35.996094 134.941406 37.019531 135.5 38.058594 C 136.054688 39.097656 136.582031 40.152344 137.085938 41.214844 C 137.589844 42.28125 138.070312 43.359375 138.519531 44.445312 C 138.96875 45.535156 139.394531 46.632812 139.792969 47.742188 C 140.1875 48.851562 140.558594 49.972656 140.898438 51.097656 C 141.242188 52.226562 141.554688 53.363281 141.84375 54.503906 C 142.128906 55.648438 142.386719 56.796875 142.617188 57.953125 C 142.847656 59.109375 143.046875 60.269531 143.21875 61.433594 C 143.394531 62.601562 143.539062 63.769531 143.652344 64.941406 C 143.769531 66.117188 143.855469 67.289062 143.914062 68.46875 C 143.972656 69.644531 144 70.820312 144 72 Z M 144 72 " fill-opacity="1" fill-rule="nonzero"/><g clip-path="url(#d0e91ec7fd)"><path fill="#ffffff" d="M 106.078125 58.5625 C 105.347656 63.042969 103.625 67.136719 100.90625 70.828125 C 98.199219 74.527344 94.519531 77.515625 89.867188 79.789062 C 85.207031 82.070312 79.71875 83.203125 73.414062 83.203125 L 61.757812 83.203125 L 56.824219 110.910156 L 38 110.910156 L 51.652344 33.707031 L 82.105469 33.707031 C 90.171875 33.707031 96.265625 35.488281 100.375 39.042969 C 104.480469 42.601562 106.535156 47.414062 106.535156 53.496094 C 106.535156 55.328125 106.378906 57.015625 106.078125 58.5625 Z M 74.53125 68.457031 C 81.550781 68.457031 85.691406 65.160156 86.960938 58.5625 C 87.097656 57.386719 87.171875 56.546875 87.171875 56.027344 C 87.171875 53.683594 86.414062 51.867188 84.90625 50.589844 C 83.414062 49.308594 81.121094 48.667969 78.027344 48.667969 L 67.8125 48.667969 L 64.398438 68.457031 Z M 74.53125 68.457031 " fill-opacity="1" fill-rule="nonzero"/></g></svg>