<svg width="1148" height="884" viewBox="0 0 1148 884" fill="none" xmlns="http://www.w3.org/2000/svg">
<path d="M1147.58 779.861H0V780.435H1147.58V779.861Z" fill="#EBEBEB"/>
<path d="M1032.59 816.79H956.574V817.364H1032.59V816.79Z" fill="#EBEBEB"/>
<path d="M760.201 823.033H740.256V823.606H760.201V823.033Z" fill="#EBEBEB"/>
<path d="M954.279 795.491H910.235V796.065H954.279V795.491Z" fill="#EBEBEB"/>
<path d="M219.531 799.347H120.404V799.92H219.531V799.347Z" fill="#EBEBEB"/>
<path d="M254.51 799.347H239.981V799.92H254.51V799.347Z" fill="#EBEBEB"/>
<path d="M516.754 809.032H301.744V809.606H516.754V809.032Z" fill="#EBEBEB"/>
<path d="M543.951 677.497H100.78C97.3084 677.491 93.9809 676.107 91.5281 673.65C89.0753 671.193 87.6977 667.863 87.6978 664.392V41.4182C87.728 37.9664 89.1189 34.6659 91.5684 32.2335C94.0179 29.8012 97.3281 28.4336 100.78 28.4277H543.951C547.427 28.4277 550.76 29.8084 553.218 32.2661C555.676 34.7239 557.057 38.0572 557.057 41.533V664.392C557.057 667.867 555.676 671.201 553.218 673.659C550.76 676.116 547.427 677.497 543.951 677.497ZM100.78 28.8867C97.4605 28.8928 94.279 30.2157 91.9338 32.5652C89.5887 34.9147 88.2715 38.0986 88.2715 41.4182V664.392C88.2715 667.711 89.5887 670.895 91.9338 673.245C94.279 675.594 97.4605 676.917 100.78 676.923H543.951C547.273 676.917 550.457 675.595 552.806 673.246C555.154 670.897 556.477 667.713 556.483 664.392V41.4182C556.477 38.0965 555.154 34.9126 552.806 32.5638C550.457 30.215 547.273 28.8928 543.951 28.8867H100.78Z" fill="#EBEBEB"/>
<path d="M1040.42 677.497H597.222C593.748 677.491 590.418 676.108 587.961 673.652C585.505 671.195 584.122 667.866 584.116 664.392V41.4182C584.152 37.9643 585.548 34.6638 588.002 32.2321C590.455 29.8004 593.767 28.4335 597.222 28.4277H1040.42C1043.86 28.4396 1047.17 29.8099 1049.61 32.2416C1052.06 34.6733 1053.44 37.9704 1053.48 41.4182V664.392C1053.48 667.859 1052.1 671.186 1049.65 673.642C1047.21 676.099 1043.88 677.485 1040.42 677.497ZM597.222 28.8867C593.9 28.8928 590.716 30.215 588.367 32.5638C586.018 34.9126 584.696 38.0965 584.69 41.4182V664.392C584.696 667.713 586.018 670.897 588.367 673.246C590.716 675.595 593.9 676.917 597.222 676.923H1040.42C1043.74 676.917 1046.92 675.595 1049.27 673.246C1051.62 670.897 1052.94 667.713 1052.95 664.392V41.4182C1052.94 38.0965 1051.62 34.9126 1049.27 32.5638C1046.92 30.215 1043.74 28.8928 1040.42 28.8867H597.222Z" fill="#EBEBEB"/>
<path d="M592.953 779.861H659.26V543.644H592.953V779.861Z" fill="#E6E6E6"/>
<path d="M605.53 779.861H592.93V757.965H618.727L605.53 779.861Z" fill="#F0F0F0"/>
<path d="M971.263 779.861H1037.57V543.644H971.263V779.861Z" fill="#E6E6E6"/>
<path d="M592.953 774.1H982.257V543.621H592.953V774.1Z" fill="#F0F0F0"/>
<path d="M853.889 557.323V761.316H969.289V557.323H853.889Z" fill="#E6E6E6"/>
<path d="M900.182 569.028H922.996C928.076 568.939 933.072 567.708 937.612 565.428C942.153 563.147 946.123 559.875 949.229 555.854H873.948C877.057 559.872 881.028 563.141 885.568 565.421C890.109 567.701 895.102 568.934 900.182 569.028Z" fill="#F0F0F0"/>
<path d="M729.882 557.346V761.339H845.282V557.346H729.882Z" fill="#E6E6E6"/>
<path d="M775.005 569.028H797.841C802.902 568.922 807.875 567.683 812.395 565.403C816.915 563.124 820.866 559.861 823.96 555.854H748.794C751.897 559.872 755.864 563.143 760.4 565.423C764.937 567.703 769.928 568.935 775.005 569.028Z" fill="#F0F0F0"/>
<path d="M605.875 557.346V761.339H721.275V557.346H605.875Z" fill="#E6E6E6"/>
<path d="M650.997 569.028H673.834C678.907 568.932 683.893 567.698 688.426 565.418C692.958 563.138 696.921 559.869 700.022 555.854H624.787C627.89 559.872 631.856 563.143 636.393 565.423C640.93 567.703 645.921 568.935 650.997 569.028Z" fill="#F0F0F0"/>
<path d="M969.656 779.861H982.234V757.965H956.436L969.656 779.861Z" fill="#F0F0F0"/>
<path d="M175.923 482.225L620.793 482.225V103.456L175.923 103.456L175.923 482.225Z" fill="#E6E6E6"/>
<path d="M165.917 482.225L616.432 482.225V103.456L165.917 103.456L165.917 482.225Z" fill="#F5F5F5"/>
<path d="M598.461 464.048V121.634L183.887 121.634V464.048H598.461Z" fill="#FAFAFA"/>
<path d="M547.601 464.048L384.438 121.634H329.01L492.173 464.048H547.601Z" fill="white"/>
<path d="M476.474 464.048L313.289 121.634H275.143L438.305 464.048H476.474Z" fill="white"/>
<path d="M337.847 464.025V121.611H316.41V464.025H337.847Z" fill="#E6E6E6"/>
<path d="M480.33 464.025V121.611H458.893V464.025H480.33Z" fill="#E6E6E6"/>
<path d="M333.968 475.592V108.115H306.862V475.592H333.968Z" fill="#F5F5F5"/>
<path d="M476.451 475.592V108.115H449.345V475.592H476.451Z" fill="#F5F5F5"/>
<path d="M185.793 464.048L185.793 121.634H183.888L183.888 464.048H185.793Z" fill="#E6E6E6"/>
<path d="M158.365 80.0686H640.348C640.956 80.0686 641.54 80.3104 641.971 80.7408C642.401 81.1713 642.643 81.755 642.643 82.3638C642.643 82.9725 642.401 83.5563 641.971 83.9867C641.54 84.4171 640.956 84.6589 640.348 84.6589H158.365C157.757 84.6589 157.173 84.4171 156.743 83.9867C156.312 83.5563 156.07 82.9725 156.07 82.3638C156.07 81.755 156.312 81.1713 156.743 80.7408C157.173 80.3104 157.757 80.0686 158.365 80.0686Z" fill="#E6E6E6"/>
<path d="M620.793 95.3773C621.623 95.3712 622.417 95.0373 623.001 94.4482C623.586 93.8592 623.914 93.0629 623.914 92.2329V85.5081C623.914 84.6803 623.585 83.8863 623 83.3009C622.415 82.7156 621.621 82.3867 620.793 82.3867C619.963 82.3867 619.167 82.7148 618.577 83.2995C617.988 83.8843 617.654 84.6782 617.648 85.5081V92.2329C617.654 93.065 617.988 93.8613 618.576 94.4497C619.164 95.0381 619.961 95.3713 620.793 95.3773Z" fill="#E6E6E6"/>
<path d="M193.321 95.3773C194.153 95.3713 194.949 95.0381 195.537 94.4497C196.126 93.8613 196.459 93.065 196.465 92.2329V85.5081C196.459 84.6782 196.125 83.8843 195.536 83.2995C194.947 82.7148 194.151 82.3867 193.321 82.3867C192.493 82.3867 191.699 82.7156 191.113 83.3009C190.528 83.8863 190.199 84.6803 190.199 85.5081V92.2329C190.199 93.0629 190.527 93.8592 191.112 94.4482C191.697 95.0373 192.491 95.3712 193.321 95.3773Z" fill="#E6E6E6"/>
<path opacity="0.6" d="M159.1 270.383L609.294 270.383V82.3867L159.1 82.3867V270.383Z" fill="#E0E0E0"/>
<path d="M165.274 779.861H176.842L176.842 590.189H165.274L165.274 779.861Z" fill="#E6E6E6"/>
<path d="M436.63 553.26H373.995V590.166H436.63V553.26Z" fill="#E6E6E6"/>
<path d="M125.223 590.189H373.995V553.283H125.223V590.189Z" fill="#F5F5F5"/>
<path d="M436.63 613.118H373.995V650.024H436.63V613.118Z" fill="#E6E6E6"/>
<path d="M125.223 650.047H373.995V613.141H125.223V650.047Z" fill="#F5F5F5"/>
<path d="M436.63 672.998H373.995V709.905H436.63V672.998Z" fill="#E6E6E6"/>
<path d="M125.223 709.905H373.995V672.998H125.223V709.905Z" fill="#F5F5F5"/>
<path d="M414.046 779.861H425.613V590.189H414.046V779.861Z" fill="#E6E6E6"/>
<path d="M362.428 779.861H373.995V590.189H362.428V779.861Z" fill="#F5F5F5"/>
<path d="M125.223 779.861H136.791L136.791 590.189H125.223L125.223 779.861Z" fill="#F5F5F5"/>
<path d="M573.788 883.51C819.559 883.51 1018.8 871.878 1018.8 857.529C1018.8 843.18 819.559 831.548 573.788 831.548C328.018 831.548 128.781 843.18 128.781 857.529C128.781 871.878 328.018 883.51 573.788 883.51Z" fill="#F5F5F5"/>
<path d="M908.88 753.329H536.148C532.484 753.373 528.852 752.647 525.486 751.199C522.121 749.75 519.097 747.61 516.611 744.919C514.125 742.227 512.232 739.044 511.055 735.574C509.877 732.104 509.442 728.426 509.776 724.777L555.427 126.27C556.138 118.559 559.669 111.382 565.344 106.113C571.02 100.844 578.439 97.8552 586.182 97.7184H958.915C962.58 97.6705 966.213 98.3939 969.581 99.8414C972.948 101.289 975.973 103.428 978.46 106.121C980.946 108.813 982.839 111.998 984.015 115.47C985.191 118.941 985.624 122.621 985.286 126.27L939.635 724.777C938.92 732.486 935.387 739.661 929.713 744.929C924.038 750.196 916.621 753.187 908.88 753.329Z" fill="#407BFF"/>
<path opacity="0.5" d="M908.88 753.329H536.148C532.484 753.373 528.852 752.647 525.486 751.199C522.121 749.75 519.097 747.61 516.611 744.919C514.125 742.227 512.232 739.044 511.055 735.574C509.877 732.104 509.442 728.426 509.776 724.777L555.427 126.27C556.138 118.559 559.669 111.382 565.344 106.113C571.02 100.844 578.439 97.8552 586.182 97.7184H958.915C962.58 97.6705 966.213 98.3939 969.581 99.8414C972.948 101.289 975.973 103.428 978.46 106.121C980.946 108.813 982.839 111.998 984.015 115.47C985.191 118.941 985.624 122.621 985.286 126.27L939.635 724.777C938.92 732.486 935.387 739.661 929.713 744.929C924.038 750.196 916.621 753.187 908.88 753.329Z" fill="white"/>
<path d="M903.349 753.329H530.593C526.93 753.373 523.297 752.647 519.932 751.199C516.567 749.75 513.543 747.61 511.057 744.919C508.571 742.227 506.678 739.044 505.5 735.574C504.323 732.104 503.888 728.426 504.222 724.777L549.896 126.27C550.607 118.555 554.142 111.374 559.822 106.105C565.502 100.836 572.927 97.8496 580.674 97.7184H953.406C957.071 97.6705 960.705 98.3939 964.072 99.8414C967.439 101.289 970.465 103.428 972.951 106.121C975.438 108.813 977.331 111.998 978.507 115.47C979.683 118.941 980.116 122.621 979.778 126.27L934.127 724.777C933.416 732.492 929.881 739.673 924.201 744.942C918.521 750.211 911.096 753.198 903.349 753.329Z" fill="#407BFF"/>
<path opacity="0.7" d="M903.349 753.329H530.593C526.93 753.373 523.297 752.647 519.932 751.199C516.567 749.75 513.543 747.61 511.057 744.919C508.571 742.227 506.678 739.044 505.5 735.574C504.323 732.104 503.888 728.426 504.222 724.777L549.896 126.27C550.607 118.555 554.142 111.374 559.822 106.105C565.502 100.836 572.927 97.8496 580.674 97.7184H953.406C957.071 97.6705 960.705 98.3939 964.072 99.8414C967.439 101.289 970.465 103.428 972.951 106.121C975.438 108.813 977.331 111.998 978.507 115.47C979.683 118.941 980.116 122.621 979.778 126.27L934.127 724.777C933.416 732.492 929.881 739.673 924.201 744.942C918.521 750.211 911.096 753.198 903.349 753.329Z" fill="white"/>
<path d="M531.328 743.804C528.884 743.841 526.46 743.362 524.214 742.399C521.967 741.436 519.949 740.01 518.29 738.215C516.631 736.42 515.369 734.296 514.587 731.98C513.804 729.665 513.518 727.211 513.747 724.777L558.801 134.211C559.265 129.069 561.616 124.28 565.4 120.767C569.184 117.254 574.134 115.266 579.297 115.185H952.03C954.473 115.148 956.898 115.627 959.144 116.59C961.39 117.553 963.409 118.978 965.068 120.773C966.726 122.568 967.988 124.693 968.771 127.008C969.554 129.324 969.84 131.778 969.61 134.211L924.557 724.777C924.093 729.916 921.746 734.701 917.966 738.214C914.187 741.726 909.243 743.717 904.084 743.804H531.328Z" fill="#407BFF"/>
<path opacity="0.2" d="M901.444 214.519H634.702C633.252 214.538 631.816 214.252 630.484 213.679C629.153 213.107 627.957 212.261 626.974 211.196C625.991 210.131 625.244 208.871 624.78 207.498C624.316 206.125 624.146 204.669 624.281 203.227C624.568 200.185 625.964 197.355 628.204 195.277C630.443 193.199 633.368 192.017 636.423 191.957H903.166C904.614 191.935 906.05 192.218 907.381 192.788C908.713 193.358 909.909 194.202 910.892 195.265C911.875 196.328 912.623 197.587 913.087 198.959C913.551 200.331 913.721 201.785 913.586 203.227C913.314 206.276 911.923 209.117 909.681 211.202C907.439 213.287 904.505 214.468 901.444 214.519Z" fill="black"/>
<path opacity="0.3" d="M787.65 109.355H744.57C744.214 109.359 743.86 109.289 743.532 109.148C743.204 109.008 742.91 108.8 742.667 108.538C742.425 108.276 742.24 107.966 742.125 107.629C742.01 107.291 741.967 106.933 742 106.578C742.072 105.83 742.416 105.135 742.965 104.624C743.515 104.112 744.233 103.819 744.983 103.8H788.086C788.441 103.799 788.792 103.872 789.117 104.014C789.442 104.156 789.734 104.364 789.974 104.626C790.214 104.887 790.396 105.196 790.51 105.532C790.624 105.868 790.666 106.224 790.634 106.578C790.571 107.329 790.231 108.029 789.679 108.543C789.127 109.057 788.404 109.346 787.65 109.355Z" fill="#407BFF"/>
<path d="M633.462 203.227C633.843 199.235 633.378 195.207 632.097 191.407C630.816 187.607 628.747 184.121 626.027 181.175C623.306 178.229 619.995 175.89 616.308 174.311C612.622 172.732 608.644 171.949 604.635 172.012H875.463C879.472 171.949 883.45 172.732 887.136 174.311C890.823 175.89 894.134 178.229 896.855 181.175C899.576 184.121 901.644 187.607 902.925 191.407C904.206 195.207 904.671 199.235 904.29 203.227H633.462Z" fill="#F0F0F0"/>
<path d="M604.704 172.012C596.233 172.143 588.111 175.404 581.903 181.168C575.694 186.931 571.839 194.789 571.08 203.227L543.332 566.939C542.578 575.375 538.728 583.232 532.523 588.996C526.318 594.761 518.198 598.023 509.73 598.154H780.559C789.029 598.023 797.151 594.762 803.36 588.998C809.568 583.235 813.424 575.377 814.183 566.939L841.931 203.227C842.684 194.791 846.535 186.934 852.74 181.17C858.944 175.405 867.064 172.143 875.532 172.012H604.704Z" fill="white"/>
<path d="M751.708 566.939C751.327 570.931 751.792 574.959 753.073 578.759C754.354 582.559 756.423 586.045 759.143 588.991C761.864 591.937 765.176 594.276 768.862 595.855C772.548 597.434 776.526 598.217 780.535 598.154H509.707C505.698 598.217 501.72 597.434 498.034 595.855C494.348 594.276 491.036 591.937 488.315 588.991C485.595 586.045 483.526 582.559 482.245 578.759C480.964 574.959 480.499 570.931 480.88 566.939H751.708Z" fill="#F0F0F0"/>
<path d="M593.182 559.756C594.215 546.467 590.038 535.725 576.772 535.725H785.31C798.576 535.725 808.559 547.867 801.743 559.756H593.182Z" fill="#E0E0E0"/>
<path d="M751.708 566.939C752.446 558.492 756.289 550.617 762.496 544.839C768.702 539.061 776.831 535.789 785.309 535.656H514.481C506.013 535.787 497.894 539.05 491.689 544.814C485.484 550.578 481.634 558.435 480.88 566.871L751.708 566.939Z" fill="#F0F0F0"/>
<path d="M879.755 657.116H568.876C567.824 657.13 566.781 656.923 565.814 656.508C564.847 656.092 563.979 655.479 563.264 654.706C562.55 653.933 562.006 653.019 561.668 652.023C561.33 651.026 561.206 649.97 561.302 648.922C561.505 646.711 562.517 644.653 564.143 643.141C565.769 641.629 567.896 640.77 570.116 640.729H881.017C882.067 640.718 883.108 640.927 884.072 641.344C885.036 641.761 885.902 642.375 886.614 643.147C887.325 643.92 887.867 644.833 888.204 645.827C888.54 646.822 888.665 647.877 888.568 648.922C888.365 651.133 887.354 653.192 885.728 654.704C884.101 656.216 881.975 657.074 879.755 657.116Z" fill="white"/>
<path d="M722.766 696.501H565.87C564.817 696.518 563.772 696.314 562.803 695.9C561.835 695.486 560.964 694.872 560.25 694.099C559.535 693.325 558.991 692.409 558.654 691.411C558.318 690.413 558.195 689.356 558.296 688.307C558.499 686.096 559.51 684.037 561.136 682.526C562.762 681.014 564.889 680.155 567.109 680.113H724.006C725.058 680.099 726.101 680.307 727.068 680.722C728.035 681.137 728.903 681.751 729.618 682.523C730.332 683.296 730.876 684.21 731.214 685.207C731.552 686.203 731.676 687.259 731.58 688.307C731.377 690.518 730.365 692.577 728.739 694.088C727.113 695.6 724.986 696.459 722.766 696.501Z" fill="white"/>
<path d="M831.396 696.501H767.843C766.79 696.519 765.745 696.314 764.777 695.9C763.808 695.486 762.938 694.872 762.223 694.099C761.508 693.325 760.965 692.409 760.628 691.411C760.291 690.413 760.169 689.356 760.269 688.307C760.472 686.096 761.484 684.038 763.11 682.526C764.736 681.014 766.863 680.155 769.083 680.113H832.636C833.687 680.103 834.728 680.313 835.693 680.729C836.658 681.145 837.526 681.759 838.239 682.531C838.953 683.303 839.496 684.216 839.836 685.211C840.175 686.205 840.302 687.26 840.21 688.307C840.007 690.518 838.995 692.577 837.369 694.089C835.743 695.6 833.616 696.459 831.396 696.501Z" fill="white"/>
<path d="M894.949 540.66L878.722 543.208C878.327 541.704 877.699 540.272 876.863 538.962C876.034 537.963 875.012 537.143 873.856 536.552L872.892 549.014C881.461 551.355 887.107 553.819 889.831 556.405C891.6 558.086 892.955 560.155 893.787 562.449C894.62 564.744 894.907 567.2 894.627 569.625C894.425 572.682 893.479 575.645 891.873 578.255C890.363 580.785 888.384 583.005 886.044 584.796C883.882 586.482 881.444 587.779 878.837 588.629C875.849 589.486 872.764 589.956 869.656 590.029L869.037 598.154H862.977L863.597 590.029C860.147 589.803 856.743 589.116 853.475 587.986C851.027 587.073 848.793 585.667 846.911 583.855C845.23 582.243 843.881 580.317 842.941 578.186C841.972 575.845 841.376 573.367 841.173 570.841L858.731 568.821C858.831 570.969 859.378 573.072 860.338 574.995C861.362 576.47 862.777 577.631 864.423 578.346L865.571 563.129C861.453 562.073 857.43 560.676 853.544 558.952C851.096 557.647 849.061 555.683 847.669 553.283C846.026 550.396 845.35 547.058 845.741 543.758C845.895 541.31 846.534 538.917 847.622 536.719C848.709 534.52 850.223 532.56 852.075 530.951C856.714 527.211 862.504 525.192 868.463 525.236L868.784 520.968H875.073L874.751 525.236C879.917 525.227 884.956 526.832 889.165 529.827C892.395 532.576 894.461 536.447 894.949 540.66ZM867.568 536.345C866.059 536.749 864.682 537.54 863.574 538.64C862.783 539.514 862.314 540.631 862.243 541.807C862.122 542.975 862.423 544.148 863.092 545.113C864.046 546.22 865.309 547.019 866.718 547.408L867.568 536.345ZM870.62 578.782C872.701 578.435 874.637 577.494 876.197 576.074C877.355 574.963 878.072 573.472 878.217 571.874C878.333 570.525 877.922 569.185 877.07 568.133C875.593 566.607 873.728 565.511 871.676 564.966L870.62 578.782Z" fill="white"/>
<path d="M589.212 273.252H596.946L595.041 298.177H587.33L589.212 273.252Z" fill="#407BFF"/>
<path d="M602.523 273.252H609.707L618.038 287.023L619.094 273.252H626.347L624.442 298.177H617.189L608.904 284.406L607.848 298.177H600.618L602.523 273.252Z" fill="#407BFF"/>
<path d="M629.009 273.252H637.065L641.311 291.2L648.197 273.252H656L644.938 298.177H636.606L629.009 273.252Z" fill="#407BFF"/>
<path d="M655.427 285.737C655.533 282.157 657.013 278.755 659.558 276.235C662.24 273.886 665.728 272.668 669.289 272.839C670.993 272.708 672.705 272.936 674.314 273.509C675.923 274.083 677.394 274.988 678.631 276.167C679.711 277.45 680.506 278.949 680.961 280.564C681.416 282.179 681.521 283.872 681.27 285.531C681.172 288.044 680.48 290.498 679.25 292.692C678.148 294.538 676.56 296.046 674.66 297.052C672.476 298.146 670.056 298.682 667.614 298.613C665.245 298.703 662.887 298.24 660.729 297.259C658.923 296.328 657.466 294.839 656.574 293.013C655.538 290.737 655.142 288.222 655.427 285.737ZM663.138 285.737C662.803 287.61 663.154 289.541 664.125 291.177C664.566 291.725 665.131 292.159 665.774 292.442C666.417 292.726 667.119 292.851 667.821 292.806C668.556 292.841 669.29 292.715 669.971 292.438C670.653 292.16 671.266 291.738 671.768 291.2C672.983 289.519 673.62 287.489 673.581 285.416C673.892 283.626 673.524 281.785 672.549 280.252C672.101 279.708 671.531 279.278 670.884 278.999C670.237 278.719 669.533 278.598 668.83 278.645C668.103 278.626 667.38 278.764 666.711 279.049C666.042 279.335 665.442 279.76 664.952 280.298C663.762 281.869 663.125 283.789 663.138 285.76V285.737Z" fill="#407BFF"/>
<path d="M686.664 273.252H694.375L692.493 298.177H684.759L686.664 273.252Z" fill="#407BFF"/>
<path d="M715.376 287.987L721.963 290.029C721.455 291.757 720.604 293.365 719.462 294.757C718.436 296.01 717.12 296.995 715.629 297.626C713.85 298.337 711.943 298.673 710.028 298.613C707.787 298.696 705.555 298.288 703.487 297.42C701.693 296.523 700.242 295.064 699.356 293.265C698.183 290.917 697.735 288.272 698.071 285.668C698.136 282.095 699.574 278.685 702.087 276.144C704.716 273.836 708.143 272.65 711.635 272.839C714.195 272.67 716.741 273.338 718.888 274.744C720.718 276.212 721.976 278.274 722.445 280.573L715.56 282.088C715.445 281.507 715.236 280.949 714.94 280.436C714.581 279.86 714.074 279.392 713.471 279.081C712.833 278.753 712.123 278.588 711.406 278.599C710.588 278.574 709.778 278.754 709.048 279.123C708.318 279.492 707.693 280.038 707.228 280.711C706.308 282.176 705.815 283.869 705.805 285.6C705.451 287.536 705.741 289.536 706.632 291.292C707.034 291.807 707.555 292.216 708.151 292.484C708.747 292.752 709.399 292.87 710.051 292.829C710.68 292.87 711.309 292.781 711.902 292.567C712.494 292.354 713.036 292.022 713.494 291.59C714.4 290.556 715.046 289.321 715.376 287.987Z" fill="#407BFF"/>
<path d="M726.966 273.252H747.623L747.233 278.576H734.311L734.013 282.547H745.924L745.534 287.619H733.554L733.163 292.531H746.475L746.039 298.177H725.016L726.966 273.252Z" fill="#407BFF"/>
<path d="M808.72 330.355H584.874L585.333 324.158H809.202L808.72 330.355Z" fill="#407BFF"/>
<path d="M808.72 330.355H584.874L583.405 349.382H807.274L808.72 330.355Z" fill="#F0F0F0"/>
<path d="M805.828 368.386H581.959L580.513 387.39H804.382L805.828 368.386Z" fill="#F0F0F0"/>
<path d="M802.913 406.393H579.067L577.621 425.42H801.467L802.913 406.393Z" fill="#F0F0F0"/>
<path d="M800.021 444.424H576.152L574.706 463.428H798.575L800.021 444.424Z" fill="#F0F0F0"/>
<path d="M796.648 488.652H572.778L573.26 482.432H797.13L796.648 488.652Z" fill="#407BFF"/>
<path d="M771.033 214.519H817.556L815.445 242.267H768.922L771.033 214.519Z" fill="#F0F0F0"/>
<path d="M314.849 391.062L323.158 394.39C326.19 395.609 328.85 397.603 330.869 400.174L334.679 404.993C335.909 406.541 336.556 408.472 336.505 410.448C336.455 412.425 335.711 414.32 334.404 415.804L330.364 420.394C329.625 421.236 328.726 421.923 327.72 422.415C326.713 422.908 325.618 423.195 324.5 423.261C323.381 423.327 322.26 423.171 321.203 422.801C320.145 422.431 319.171 421.854 318.338 421.105L314.436 417.663C314.436 417.663 302.501 409.285 298.99 398.2L301.285 395.905C303.003 394.084 305.128 392.696 307.486 391.855C309.843 391.013 312.367 390.741 314.849 391.062Z" fill="#FFB573"/>
<path d="M337.617 310.548L334.909 312.338L331.902 314.404C329.906 315.827 327.886 317.296 325.935 318.787C322.01 321.84 318.2 324.984 314.666 328.335C307.687 334.604 301.697 341.893 296.901 349.956C296.327 350.92 295.822 351.884 295.34 352.87L294.973 353.605C295.066 353.295 295.142 352.981 295.203 352.664C295.281 352.285 295.281 351.895 295.203 351.516C294.996 350.851 294.973 352.572 295.501 354.271C296.908 358.679 298.746 362.937 300.987 366.986C305.715 376.029 311.636 385.347 317.236 394.527L317.374 394.78C318.484 396.607 318.825 398.8 318.322 400.878C317.818 402.956 316.512 404.749 314.689 405.866C313.282 406.709 311.654 407.11 310.017 407.016C308.38 406.922 306.809 406.337 305.508 405.338C300.921 401.769 296.546 397.937 292.403 393.862C288.165 389.74 284.165 385.379 280.422 380.802C276.253 375.8 272.715 370.304 269.887 364.438C269.04 362.608 268.319 360.721 267.73 358.792C266.973 356.282 266.571 353.679 266.536 351.057C266.52 349.281 266.713 347.51 267.11 345.778C267.342 344.79 267.633 343.817 267.982 342.864L268.418 341.693C268.992 340.109 269.635 338.572 270.3 337.103C275.662 325.405 283.078 314.763 292.196 305.682C296.509 301.274 301.109 297.156 305.967 293.357C308.4 291.475 310.856 289.639 313.403 287.918C314.689 287.045 315.974 286.173 317.305 285.347L319.348 284.108L321.643 282.777C325.247 280.831 329.457 280.335 333.414 281.39C337.371 282.445 340.776 284.971 342.933 288.453C345.09 291.934 345.835 296.108 345.018 300.12C344.201 304.133 341.882 307.683 338.535 310.043L337.617 310.548Z" fill="#FFB573"/>
<path d="M337.892 274.124C324.489 274.124 309.8 279.931 290.979 303.272C290.979 317.204 320.38 335.726 320.38 335.726C320.38 335.726 368.579 274.009 337.892 274.124Z" fill="#263238"/>
<path d="M238.306 825.856C238.065 825.849 237.825 825.811 237.594 825.741C234.817 824.754 232.201 817.685 232.04 813.737C232.029 813.614 232.056 813.491 232.117 813.384C232.179 813.277 232.272 813.192 232.384 813.141C232.491 813.073 232.614 813.037 232.74 813.037C232.866 813.037 232.989 813.073 233.096 813.141C233.394 813.393 240.303 819.062 240.624 822.872C240.669 823.24 240.637 823.614 240.531 823.97C240.424 824.325 240.245 824.655 240.004 824.938C239.805 825.205 239.55 825.425 239.256 825.584C238.963 825.742 238.639 825.835 238.306 825.856ZM233.509 815.275C234.129 819.016 236.263 823.882 238.099 824.456C238.281 824.514 238.477 824.51 238.657 824.443C238.836 824.377 238.987 824.252 239.086 824.088C239.215 823.938 239.31 823.762 239.365 823.572C239.42 823.382 239.435 823.183 239.408 822.987C239.155 820.806 235.758 817.295 233.509 815.275Z" fill="#263238"/>
<path d="M242.621 817.432C238.979 817.233 235.441 816.146 232.315 814.265C232.214 814.194 232.135 814.096 232.087 813.983C232.038 813.869 232.022 813.745 232.04 813.622C232.062 813.498 232.119 813.382 232.204 813.288C232.289 813.195 232.4 813.128 232.522 813.095C232.889 813.095 241.542 810.799 244.801 812.727C245.128 812.906 245.414 813.151 245.64 813.448C245.865 813.745 246.025 814.086 246.109 814.449C246.226 814.87 246.209 815.317 246.061 815.728C245.913 816.139 245.641 816.494 245.283 816.744C244.483 817.232 243.557 817.472 242.621 817.432ZM234.427 813.967C237.801 815.665 243.011 816.813 244.549 815.757C244.778 815.596 244.985 815.367 244.847 814.747C244.805 814.55 244.72 814.365 244.597 814.206C244.473 814.047 244.316 813.918 244.135 813.829C242.23 812.658 237.388 813.37 234.427 813.967Z" fill="#263238"/>
<path d="M208.262 812.199C215.061 804.924 220.823 796.745 225.384 787.894C225.384 787.894 246.683 793.127 242.506 799.37C234.909 810.501 231.214 833.384 240.991 845.64C246.568 852.64 237.755 853.811 231.811 850.804C222.63 846.053 222.928 844.263 218.04 836.39C213.908 829.666 212.279 827.026 206.564 824.134C201.974 821.633 204.269 816.95 208.262 812.199Z" fill="#407BFF"/>
<path d="M388.891 412.476C388.891 412.476 358.044 563.038 335.414 627.463C311.682 694.986 246.155 799.209 243.608 803.684C234.289 801.183 225.981 797.924 220.449 792.53C220.449 792.53 251.205 679.494 281.179 606.164C292.655 453.077 317.649 412.59 317.649 412.59L388.891 412.476Z" fill="#263238"/>
<path opacity="0.2" d="M341.771 493.035C340.371 522.161 339.476 562.211 340.785 610.96C350.218 580.573 360.477 539.375 369.107 502.4C363.346 494.711 354.395 491.016 341.771 493.035Z" fill="black"/>
<path d="M343.63 227.853C346.867 240.959 350.034 262.281 344.87 273.757C344.87 273.757 364.195 274.629 388.891 294.413C400.527 277.337 387.055 273.986 387.055 273.986C376.795 271.691 377.3 257.92 377.323 248.166L343.63 227.853Z" fill="#FFB573"/>
<path d="M338.765 279.609C329.125 278.553 335.781 260.238 340.785 262.028C353.454 266.619 381.868 261.523 390.658 266.366C399.449 271.209 397.222 281.147 397.222 281.147C397.222 281.147 349.139 280.757 338.765 279.609Z" fill="#407BFF"/>
<path opacity="0.7" d="M338.765 279.609C329.125 278.553 335.781 260.238 340.785 262.028C353.454 266.619 381.868 261.523 390.658 266.366C399.449 271.209 397.222 281.147 397.222 281.147C397.222 281.147 349.139 280.757 338.765 279.609Z" fill="white"/>
<path d="M394.996 204.741C395.317 206.486 396.488 207.748 397.635 207.541C398.783 207.335 399.448 205.751 399.15 204.007C398.852 202.263 397.658 201 396.511 201.207C395.363 201.413 394.766 202.997 394.996 204.741Z" fill="#263238"/>
<path d="M396.029 201.39L400.022 199.439C400.022 199.439 398.439 203.112 396.029 201.39Z" fill="#263238"/>
<path d="M397.337 190.741C397.389 190.617 397.416 190.485 397.416 190.351C397.416 190.217 397.389 190.084 397.337 189.96C397.262 189.694 397.085 189.468 396.845 189.33C396.604 189.193 396.32 189.155 396.052 189.226C394.441 189.62 392.948 190.391 391.694 191.477C390.441 192.563 389.464 193.931 388.845 195.469C388.769 195.734 388.796 196.017 388.919 196.264C389.042 196.51 389.253 196.702 389.511 196.8C389.775 196.887 390.064 196.866 390.313 196.742C390.563 196.617 390.753 196.399 390.842 196.134C391.341 194.918 392.125 193.839 393.127 192.989C394.129 192.138 395.321 191.54 396.603 191.246C396.753 191.217 396.897 191.158 397.023 191.071C397.15 190.984 397.257 190.872 397.337 190.741Z" fill="#263238"/>
<path d="M397.062 209.01C399.065 212.879 401.59 216.455 404.567 219.637C403.731 220.378 402.743 220.927 401.673 221.245C400.602 221.562 399.474 221.64 398.37 221.473L397.062 209.01Z" fill="#ED893E"/>
<path d="M335.092 203.846C340.211 225.145 341.978 234.257 354.532 243.415C373.513 257.186 398.025 246.307 399.265 223.952C400.367 203.8 391.829 172.38 369.657 167.468C347.486 162.556 329.974 182.547 335.092 203.846Z" fill="#FFB573"/>
<path d="M376.405 207.771C388.937 191.2 397.062 177.796 390.934 163.13C385.769 150.874 371.471 154.455 369.474 160.583C331.466 157.346 317.81 171.117 325.659 193.885C330.663 208.414 311.246 200.771 315.974 219.316C319.577 233.454 306.793 238.847 313.288 246.972C322.653 258.7 341.978 243.415 364.034 252.205C382.028 259.412 409.157 248.51 376.405 207.771Z" fill="#263238"/>
<path d="M374.316 211.122C375.352 212.823 376.736 214.286 378.378 215.413C380.019 216.541 381.882 217.308 383.841 217.663C388.822 218.397 390.543 212.797 388.432 207.61C386.596 203.02 381.799 196.938 377.094 198.613C372.389 200.289 371.493 206.646 374.316 211.122Z" fill="#FFB573"/>
<path d="M381.73 839.902C377.725 839.412 373.951 837.761 370.874 835.151C370.785 835.067 370.721 834.961 370.689 834.844C370.657 834.726 370.657 834.602 370.69 834.485C370.729 834.364 370.801 834.257 370.899 834.175C370.996 834.094 371.115 834.042 371.241 834.026C371.608 834.026 380.422 833.039 383.451 835.472C383.753 835.694 384.002 835.98 384.18 836.309C384.359 836.639 384.463 837.003 384.484 837.377C384.58 837.833 384.518 838.308 384.31 838.725C384.102 839.141 383.759 839.475 383.337 839.672C382.824 839.864 382.276 839.942 381.73 839.902ZM372.985 835.174C376.107 837.354 381.087 839.259 382.763 838.433C383.015 838.295 383.245 838.089 383.199 837.469C383.184 837.269 383.125 837.074 383.026 836.899C382.926 836.725 382.79 836.574 382.625 836.459C380.996 835.036 376.015 834.99 372.985 835.174Z" fill="#263238"/>
<path d="M371.31 835.335C371.207 835.33 371.107 835.302 371.016 835.255C370.925 835.207 370.845 835.141 370.782 835.059C370.715 834.953 370.679 834.829 370.679 834.703C370.679 834.578 370.715 834.454 370.782 834.348C370.966 834.026 375.373 826.269 379.114 825.328C379.473 825.218 379.853 825.188 380.225 825.239C380.598 825.291 380.955 825.423 381.271 825.626C381.682 825.834 382.013 826.171 382.212 826.586C382.411 827.002 382.468 827.471 382.373 827.921C381.868 830.836 375.304 834.577 371.471 835.381L371.31 835.335ZM379.871 826.521H379.412C377.255 827.072 374.34 830.997 372.71 833.544C376.291 832.305 380.766 829.413 381.087 827.577C381.087 827.302 381.087 826.98 380.56 826.636C380.343 826.54 380.107 826.501 379.871 826.521Z" fill="#263238"/>
<path d="M398.783 847.958C380.192 846.512 367.661 833.751 368.946 820.233C369.658 812.773 345.834 812.108 345.834 812.108C349.598 835.22 344.87 838.525 343.309 844.492C341.748 850.46 342.139 857.07 347.073 857.184C352.972 857.345 355.726 856.221 363.139 856.496C371.723 856.84 380.996 857.162 396.258 857.184C402.295 857.207 407.046 848.601 398.783 847.958Z" fill="#407BFF"/>
<path d="M421.023 412.476C421.023 412.476 419.393 526.522 410.396 601.459C401.399 676.395 370.461 823.377 370.461 823.377C362.324 825.298 353.842 825.219 345.742 823.147C345.742 823.147 335.965 708.39 352.375 597.373C340.325 481.078 332.774 412.476 332.774 412.476H421.023Z" fill="#263238"/>
<path d="M425.246 306.99C424.856 315.804 438.765 336.185 421.597 347.982C424.81 355.166 427.518 403.8 421.023 412.476C411.544 419.361 360.247 418.099 317.741 412.476C315.928 394.895 325.613 358.471 313.748 301.689C313.098 298.58 313.109 295.369 313.78 292.264C314.451 289.16 315.768 286.232 317.644 283.669C319.521 281.107 321.915 278.967 324.672 277.39C327.429 275.813 330.486 274.833 333.646 274.514C337.227 274.17 341.014 273.848 344.893 273.665C358.44 272.711 372.038 272.711 385.586 273.665C389.97 274.078 394.514 274.629 398.852 275.248C406.409 276.314 413.299 280.155 418.178 286.023C423.058 291.891 425.577 299.366 425.246 306.99Z" fill="#407BFF"/>
<g opacity="0.3">
<path d="M314.803 298.613L313.862 299.141C313.778 299.166 313.7 299.21 313.635 299.27C313.569 299.329 313.518 299.402 313.484 299.483C313.45 299.565 313.435 299.653 313.439 299.741C313.443 299.829 313.467 299.915 313.508 299.993C313.55 300.071 313.608 300.139 313.679 300.191C313.75 300.244 313.832 300.28 313.918 300.297C314.005 300.315 314.094 300.313 314.179 300.291C314.265 300.27 314.345 300.23 314.413 300.174L315.469 299.6C320.059 301.275 324.948 305.085 327.771 305.476C323.181 301.459 319.944 298.59 316.295 299.095C317.374 298.452 318.43 297.81 319.485 297.121C323.663 298.682 328.207 302.171 330.801 302.515C326.577 298.797 323.548 296.134 320.22 296.639L322.515 295.056L323.8 294.115C327.587 295.744 331.581 299.21 333.968 299.692C330.158 295.928 327.473 293.265 324.259 293.793C325.269 293.036 326.256 292.278 327.22 291.498C330.686 293.013 334.358 296.088 336.538 296.616C333.05 293.151 330.594 290.718 327.633 291.177L330.112 289.111L330.709 288.606C333.761 290.213 336.791 293.38 338.788 293.954C335.896 290.488 333.876 288.078 330.846 288.469C331.627 287.803 332.407 287.114 333.142 286.403C335.965 287.895 338.742 290.81 340.578 291.337C337.916 288.147 335.988 285.944 333.279 286.288L335.712 283.993C338.168 285.508 340.509 288.262 342.139 288.836C339.843 285.806 338.375 283.718 335.873 283.832C336.309 283.396 336.745 282.983 337.158 282.547L337.893 281.79C340.188 283.19 342.322 285.737 343.814 286.265C341.794 283.488 340.348 281.537 338.053 281.675C338.719 280.986 339.384 280.275 340.027 279.563C342.093 280.688 344.044 282.822 345.421 283.236C343.608 280.94 342.322 279.242 340.119 279.472L340.486 279.081L341.863 277.475C343.442 278.669 345.081 279.779 346.775 280.803C345.122 278.668 343.952 277.176 341.978 277.337C342.506 276.694 343.034 276.006 343.493 275.317C343.512 275.3 343.528 275.279 343.539 275.255C343.549 275.231 343.555 275.206 343.555 275.18C343.555 275.154 343.549 275.128 343.539 275.104C343.528 275.08 343.512 275.059 343.493 275.042C343.457 275.014 343.412 274.999 343.367 274.999C343.321 274.999 343.276 275.014 343.24 275.042C342.781 275.684 342.299 276.304 341.794 276.901C341.9 275.82 341.597 274.739 340.945 273.871H340.165C340.654 274.977 341.076 276.111 341.427 277.268C341.014 277.75 340.578 278.209 340.165 278.668L339.866 278.99C340.302 277.314 339.43 275.868 338.099 274.032H337.663C338.03 275.455 339.109 277.406 339.545 279.288L337.709 281.147C338.306 279.035 336.837 277.176 334.794 274.537C334.794 276.121 336.722 278.852 337.457 281.422L336.814 282.065L335.552 283.259C336.125 280.963 334.565 278.967 332.338 276.144C332.338 277.842 334.427 280.734 335.23 283.557L332.935 285.554C333.417 283.259 331.879 280.963 329.791 277.98C329.791 279.793 331.65 283.006 332.407 286.013L330.594 287.55C331.122 285.072 329.469 282.639 327.197 279.311C327.197 281.285 329.217 284.773 330.02 288.032L329.538 288.423C328.712 289.111 327.863 289.777 327.014 290.442C327.679 287.895 326.096 285.026 323.915 281.124C323.754 283.236 325.636 287.367 326.21 291.016C325.246 291.751 324.282 292.439 323.295 293.151C324.397 290.259 322.607 287.023 320.128 282.524C319.922 284.819 322.079 289.547 322.699 293.564L321.827 294.16L319.095 295.928C320.358 293.013 318.82 289.57 316.571 284.888C316.456 285.049 316.341 285.209 316.249 285.37C316.41 288.124 318.017 292.531 318.361 296.364C317.351 297.006 316.295 297.603 315.262 298.177C316.456 295.744 315.767 292.99 314.298 289.547C313.961 290.522 313.693 291.519 313.495 292.531C314.088 294.522 314.525 296.555 314.803 298.613Z" fill="#263238"/>
<path d="M373.444 282.708C369.979 280.413 366.559 276.442 364.264 275.593C367.408 279.908 369.657 282.96 372.917 282.96C371.792 283.534 370.621 284.131 369.611 284.75C366.444 282.708 363.323 278.99 361.234 278.209C364.126 282.18 366.192 284.98 369.175 285.095C368.234 285.623 367.316 286.173 366.398 286.724L365.733 287.137C362.956 285.072 360.477 281.468 358.595 280.573C360.89 284.475 362.519 287.16 365.48 287.252C364.585 287.78 363.713 288.354 362.841 288.928C360.316 287.023 358.021 283.695 356.3 282.891C358.411 286.449 359.88 288.928 362.703 289.019L359.949 290.878C357.769 288.996 355.886 285.898 354.372 285.072C356.07 288.4 357.264 290.741 359.765 291.016L358.273 292.072L357.447 292.692C355.427 290.97 353.683 288.101 352.283 287.344C353.867 290.419 354.968 292.554 357.264 292.829C356.483 293.403 355.726 293.977 354.968 294.574C353.086 293.151 351.503 290.741 350.195 290.121C351.64 292.738 352.627 294.551 354.785 294.711L354.372 295.033L352.742 296.41C351.044 295.079 349.598 292.898 348.404 292.324C349.713 294.62 350.699 296.364 352.604 296.524C351.985 297.075 351.365 297.672 350.768 298.292C350.749 298.307 350.734 298.326 350.723 298.348C350.713 298.37 350.707 298.394 350.707 298.418C350.707 298.442 350.713 298.466 350.723 298.488C350.734 298.51 350.749 298.529 350.768 298.544C350.802 298.577 350.848 298.594 350.895 298.594C350.941 298.594 350.987 298.577 351.021 298.544C351.561 297.974 352.136 297.437 352.742 296.938C352.168 298.498 352.995 300.082 354.096 302.239C353.907 300.339 353.593 298.453 353.155 296.593C353.637 296.18 354.119 295.813 354.624 295.423L354.968 295.147C354.188 296.915 355.083 298.682 356.346 301.161C356.121 299.054 355.776 296.962 355.313 294.895C356.024 294.344 356.713 293.839 357.447 293.334C356.529 295.308 357.677 297.397 359.283 300.22C359.444 298.659 358.044 295.629 357.746 293.013L358.48 292.485L359.903 291.521C358.985 293.656 360.201 295.905 361.946 299.049C362.106 297.351 360.615 294.115 360.27 291.269L362.772 289.662C361.923 291.842 363.07 294.252 364.654 297.626C364.929 295.836 363.621 292.37 363.346 289.295L365.388 288.055C364.47 290.351 365.71 293.082 367.454 296.731C367.752 294.78 366.306 290.993 366.031 287.665L366.559 287.367L369.382 285.76C368.326 288.17 369.382 291.246 370.943 295.469C371.448 293.403 370.254 289.019 370.208 285.324C371.287 284.75 372.343 284.2 373.444 283.672C371.884 286.357 373.123 289.823 374.89 294.665C375.441 292.37 374.064 287.436 374.087 283.373L375.028 282.914L378.035 281.583C376.245 284.383 377.369 288.239 378.976 293.587C379.71 291.108 378.517 285.691 378.815 281.262C379.917 280.803 381.11 280.39 382.166 279.976C380.009 283.029 381.248 287.275 383.015 293.197C383.841 290.511 382.51 284.544 382.855 279.747L383.887 279.38C383.963 279.357 384.033 279.318 384.093 279.267C384.153 279.216 384.202 279.152 384.236 279.081C384.271 279.01 384.29 278.933 384.293 278.854C384.297 278.775 384.283 278.696 384.255 278.622C384.198 278.477 384.088 278.358 383.948 278.29C383.807 278.222 383.646 278.21 383.497 278.255L382.373 278.668C379.715 276.975 377.17 275.112 374.753 273.091H372.917C375.9 276.648 378.356 279.035 381.409 279.081C380.238 279.517 379.113 280.022 377.943 280.527C374.064 278.232 370.139 274.17 367.638 273.389C371.218 277.75 373.789 280.849 377.163 280.872L374.592 282.065L373.444 282.708Z" fill="#263238"/>
<path d="M344.778 325.627C342.253 322.873 340.486 321.037 338.007 321.335L339.155 319.935L339.798 319.109C342.093 320.233 344.617 322.529 346.178 322.873C343.883 320.348 342.208 318.558 339.912 318.925C340.509 318.168 341.083 317.41 341.657 316.63C343.837 317.502 346.017 319.407 347.44 319.66C345.352 317.525 343.906 316.033 341.726 316.515C341.845 316.38 341.953 316.234 342.047 316.079C342.46 315.505 342.85 314.932 343.24 314.335C344.95 315.353 346.712 316.28 348.519 317.112C346.614 315.161 345.306 313.807 343.355 314.197C343.814 313.486 344.25 312.751 344.64 311.902C344.662 311.856 344.664 311.804 344.647 311.757C344.63 311.709 344.594 311.671 344.549 311.65C344.503 311.628 344.451 311.626 344.403 311.643C344.356 311.66 344.317 311.696 344.296 311.741C343.927 312.433 343.513 313.1 343.057 313.738C343.194 312.086 341.978 310.777 340.325 308.987C341.021 310.775 341.834 312.516 342.758 314.197L341.657 315.712L341.381 316.056C341.68 314.151 340.325 312.682 338.466 310.64C339.235 312.62 340.124 314.552 341.129 316.423L339.499 318.489C339.843 316.309 338.191 314.633 335.85 312.223C336.125 313.784 338.145 316.309 339.27 318.765L338.696 319.476L337.571 320.784C337.893 318.489 336.125 316.653 333.601 314.082C333.899 315.758 336.194 318.489 337.296 321.129L335.322 323.424C335.552 321.129 333.784 319.04 331.351 316.24C331.581 318.053 333.784 321.037 334.863 323.929L333.233 325.673C333.486 323.148 331.558 320.922 328.919 317.869C329.148 319.82 331.535 323.079 332.706 326.201L332.269 326.66C331.535 327.44 330.755 328.198 329.974 328.955C330.365 326.361 328.482 323.699 325.889 320.05C325.889 322.161 328.184 326.063 329.309 329.621C328.437 330.447 327.541 331.273 326.646 332.053C327.427 329.07 325.292 326.063 322.308 321.863C322.308 324.158 325.04 328.611 326.096 332.535L325.292 333.224C324.466 333.935 323.617 334.624 322.768 335.313C323.754 332.122 321.62 328.725 318.659 323.997C318.659 326.568 321.207 331.48 322.102 335.817C321.169 336.552 320.205 337.263 319.21 337.952C319.514 336.875 319.594 335.746 319.444 334.637C319.294 333.527 318.917 332.461 318.338 331.503C318.613 334.234 318.843 336.896 319.026 339.513L319.348 339.283C324.053 340.454 329.378 343.667 332.224 343.736C327.266 340.247 323.686 337.768 320.174 338.686C321.184 337.929 322.171 337.149 323.135 336.391C327.473 337.47 332.315 340.431 334.978 340.5C330.387 337.263 327.059 334.945 323.8 335.909C324.535 335.29 325.246 334.693 325.958 334.05L327.128 332.972C331.076 334.188 335.437 337.195 337.847 337.378C333.67 334.073 330.686 331.732 327.541 332.604C328.46 331.755 329.355 330.883 330.25 329.988C333.853 331.112 337.87 333.867 340.073 334.05C336.217 330.998 333.486 328.84 330.594 329.644C331.351 328.863 332.109 328.106 332.889 327.348L333.417 326.775C336.63 328.037 340.004 330.837 342.047 331.204C338.788 328.083 336.516 325.902 333.555 326.614C334.243 325.857 334.955 325.076 335.62 324.319C338.581 325.489 341.68 328.06 343.562 328.381C340.578 325.512 338.489 323.538 335.758 324.181C336.493 323.355 337.204 322.506 337.893 321.656C340.463 322.758 343.103 325.237 344.778 325.627Z" fill="#263238"/>
<path d="M384.737 323.952C383.084 324.686 380.858 327.647 378.402 329.529L376.268 328.473C378.769 327.991 380.33 325.512 382.487 322.092C380.674 322.873 378.264 326.109 375.602 328.152L375.051 327.853C374.087 327.371 373.146 326.843 372.205 326.339C374.799 325.948 376.795 323.355 379.527 319.797C377.507 320.486 374.477 323.86 371.379 325.88C370.323 325.283 369.29 324.686 368.257 324.043C371.333 323.929 373.605 320.991 376.75 316.905C374.454 317.686 371.081 321.496 367.569 323.653L366.674 323.102L363.966 321.289C367.271 321.289 369.91 318.283 373.559 314.059C371.081 314.748 367.156 318.65 363.277 320.807C362.282 320.119 361.318 319.407 360.385 318.673C364.103 318.856 367.018 315.528 371.081 310.846C368.349 311.581 364.034 315.919 359.788 318.214L358.939 317.525C358.824 317.417 358.672 317.357 358.515 317.357C358.357 317.357 358.205 317.417 358.09 317.525C357.983 317.636 357.924 317.784 357.924 317.938C357.924 318.092 357.983 318.24 358.09 318.351L359.031 319.086C359.306 323.929 357.769 329.965 358.526 332.719C360.408 326.935 361.762 322.781 359.857 319.706C360.867 320.44 361.9 321.151 362.933 321.84C363.162 326.43 361.762 331.847 362.474 334.372C364.218 329.024 365.457 325.191 363.644 322.322L365.939 323.837L367.316 324.663C367.316 328.771 365.71 333.844 366.215 336.139C368.166 331.181 369.543 327.647 367.798 324.916C368.877 325.535 370.094 326.132 371.081 326.729C371.081 330.516 369.612 335.129 370.071 337.309C371.861 332.719 373.123 329.483 371.517 326.958L374.409 328.427L375.097 328.771C374.845 332.191 373.146 336.254 373.399 338.296C375.441 334.28 376.841 331.411 375.281 328.84L378.104 330.148C377.851 333.316 376.291 337.034 376.543 338.939C378.402 335.221 379.687 332.65 378.264 330.24C379.274 330.699 380.284 331.135 381.317 331.549C380.904 334.395 379.297 337.654 379.412 339.375C381.317 336.139 382.625 333.89 381.523 331.64L383.222 332.329L384.186 332.696C383.819 335.336 382.35 338.319 382.442 339.903C384.186 336.942 385.402 334.854 384.392 332.765C385.288 333.109 386.183 333.454 387.101 333.752C386.917 336.047 385.724 338.732 385.907 340.178C387.33 337.562 388.202 335.726 387.238 333.798L387.743 333.981C388.409 334.188 389.075 334.417 389.763 334.601C389.295 336.532 388.927 338.485 388.661 340.454C389.947 338.159 390.957 336.414 389.924 334.647C390.735 334.903 391.564 335.102 392.403 335.244C392.448 335.251 392.494 335.241 392.533 335.215C392.571 335.19 392.598 335.151 392.609 335.106C392.617 335.058 392.608 335.008 392.582 334.966C392.557 334.924 392.518 334.892 392.471 334.877C391.691 334.716 390.934 334.509 390.176 334.28C391.783 333.913 392.678 332.398 393.894 330.286C392.747 330.791 391.301 332.834 389.648 334.119L387.881 333.522L387.468 333.362C389.373 333.086 390.383 331.365 391.783 328.978C390.475 329.552 388.891 331.824 387.032 333.201C386.229 332.903 385.402 332.604 384.599 332.26C386.756 331.962 387.904 329.965 389.488 326.958C388.088 327.67 386.297 330.447 384.255 332.122L383.406 331.778L381.822 331.089C384.117 330.745 385.356 328.496 387.078 325.352C385.563 326.109 383.635 329.093 381.432 330.929C380.514 330.539 379.618 330.126 378.723 329.689C381.317 329.368 382.763 327.096 384.737 323.952Z" fill="#263238"/>
<path d="M371.494 354.546C373.256 355.45 375.064 356.262 376.91 356.979C374.913 355.166 373.49 353.903 371.585 354.385C371.998 353.651 372.389 352.916 372.733 352.09C372.743 352.068 372.749 352.043 372.751 352.018C372.752 351.993 372.748 351.968 372.739 351.945C372.731 351.921 372.718 351.9 372.701 351.882C372.684 351.863 372.664 351.848 372.641 351.838C372.618 351.827 372.594 351.821 372.569 351.82C372.544 351.819 372.519 351.823 372.496 351.831C372.472 351.84 372.451 351.853 372.432 351.87C372.414 351.887 372.399 351.907 372.389 351.93C372.044 352.641 371.677 353.33 371.287 354.018C371.287 352.366 370.002 351.126 368.257 349.428C369.057 351.161 369.969 352.84 370.989 354.454L370.002 356.038L369.749 356.405C369.91 354.477 368.487 353.1 366.49 351.195C367.386 353.11 368.389 354.972 369.497 356.772L368.028 358.953C368.234 356.772 366.467 355.166 363.988 352.939C364.356 354.477 366.651 356.864 367.798 359.251L367.27 359.986C366.949 360.445 366.582 360.904 366.238 361.363C366.421 359.067 364.539 357.323 361.854 354.936C362.267 356.589 364.723 359.159 365.985 361.822C365.388 362.625 364.769 363.405 364.149 364.117C364.149 361.822 362.359 359.848 359.742 357.231C360.087 358.999 362.474 361.822 363.713 364.668C363.223 365.295 362.718 365.915 362.198 366.527C362.198 363.979 360.247 361.936 357.424 358.999C357.768 360.927 360.362 364.025 361.739 367.078L361.326 367.559C360.614 368.386 359.903 369.189 359.169 369.969C359.398 367.376 357.332 364.805 354.578 361.34C354.762 363.451 357.355 367.192 358.595 370.681C357.769 371.553 356.942 372.425 356.093 373.274C356.667 370.268 354.349 367.376 351.113 363.382C351.342 365.677 354.28 369.946 355.565 373.802L354.831 374.537L352.421 376.832C353.201 373.596 350.86 370.337 347.624 365.815C347.624 368.386 350.631 373.137 351.801 377.291C350.906 378.094 349.988 378.875 349.047 379.586C350.08 376.006 347.532 372.402 343.906 367.376C343.906 370.199 347.211 375.386 348.496 380.045L347.624 380.734C347.562 380.782 347.51 380.842 347.472 380.91C347.433 380.978 347.408 381.053 347.399 381.131C347.389 381.209 347.395 381.288 347.416 381.363C347.437 381.439 347.472 381.51 347.521 381.571C347.569 381.633 347.629 381.685 347.697 381.724C347.765 381.762 347.84 381.787 347.918 381.797C347.996 381.806 348.075 381.8 348.15 381.779C348.226 381.759 348.297 381.723 348.358 381.675L349.276 380.917C354.05 381.767 359.582 384.658 362.428 384.544C357.241 381.376 353.522 379.104 350.08 380.252C351.021 379.448 351.962 378.599 352.88 377.75C357.264 378.553 362.336 381.193 364.952 381.101C360.155 378.163 356.69 376.075 353.477 377.176C354.165 376.511 354.854 375.868 355.519 375.179L356.644 374.032C360.637 374.996 365.182 377.704 367.592 377.75C363.208 374.72 360.11 372.563 357.011 373.642C357.883 372.724 358.709 371.806 359.536 370.865C363.231 371.737 367.385 374.238 369.611 374.284C365.572 371.484 362.726 369.51 359.88 370.474C360.592 369.671 361.28 368.845 361.969 368.019L362.451 367.399C365.756 368.455 369.336 371.048 371.356 371.278C367.89 368.363 365.503 366.343 362.588 367.261L364.516 364.828C367.546 365.792 370.782 368.156 372.687 368.363C369.52 365.7 367.316 363.773 364.631 364.668C365.297 363.795 365.962 362.9 366.605 362.005C369.29 363.061 372.09 365.379 373.789 365.655C371.08 363.084 369.198 361.271 366.743 361.822C367.11 361.34 367.454 360.835 367.798 360.353C368.143 359.871 368.188 359.756 368.395 359.481C370.851 360.445 373.421 362.579 375.005 362.831C372.503 360.536 370.759 358.792 368.51 359.297C369.061 358.501 369.589 357.698 370.093 356.887C372.389 357.621 374.684 359.389 376.061 359.549C373.766 357.553 372.297 356.153 370.162 356.772L370.461 356.313L371.494 354.546Z" fill="#263238"/>
<path d="M385.402 380.16C385.892 379.533 386.397 378.936 386.917 378.37C386.573 379.976 387.56 381.445 388.937 383.465C388.5 381.599 387.956 379.76 387.307 377.957L388.615 376.625L388.914 376.304C388.363 378.163 389.465 379.816 391.025 382.088C390.545 380.028 389.947 377.997 389.235 376.006L391.14 374.192C390.497 376.281 391.875 378.209 393.848 380.917C393.848 379.334 392.058 376.511 391.416 374.032L392.104 373.435L393.389 372.288C392.724 374.583 394.216 376.602 396.327 379.517C396.327 377.796 394.422 374.766 393.711 372.012C394.468 371.347 395.225 370.727 396.006 370.084C395.432 372.379 396.878 374.674 398.852 377.773C398.852 375.96 397.176 372.655 396.557 369.648L398.439 368.179C397.796 370.635 399.38 373.114 401.537 376.534C401.537 374.56 399.701 370.979 399.013 367.72L399.517 367.33L402.111 365.425C401.354 367.927 402.822 370.842 404.865 374.835C405.095 372.724 403.373 368.523 402.891 364.874C403.878 364.186 404.865 363.497 405.875 362.831C404.659 365.677 406.334 368.983 408.675 373.573C408.95 371.278 406.954 366.481 406.38 362.441L407.252 361.89C408.193 361.317 409.134 360.743 410.075 360.215C408.629 363.199 410.236 366.871 412.37 371.989C412.806 369.442 410.97 364.209 410.718 359.802C411.751 359.205 412.806 358.631 413.885 358.103C412.118 361.386 413.885 365.448 416.364 371.117C416.846 368.34 414.803 362.579 414.551 357.782L415.515 357.3C415.585 357.268 415.648 357.222 415.7 357.165C415.753 357.108 415.793 357.042 415.819 356.969C415.844 356.896 415.855 356.818 415.85 356.741C415.845 356.664 415.825 356.589 415.79 356.52C415.756 356.449 415.708 356.385 415.649 356.333C415.59 356.28 415.521 356.24 415.446 356.214C415.371 356.189 415.292 356.178 415.213 356.183C415.135 356.188 415.057 356.209 414.987 356.244L413.931 356.795C409.455 354.959 404.636 350.966 401.836 350.484C406.242 354.661 409.41 357.667 413.013 357.369C411.911 357.943 410.833 358.585 409.754 359.205C405.623 357.507 401.216 353.857 398.645 353.421C402.731 357.3 405.668 360.054 409.019 359.664L406.609 361.179L405.278 362.074C401.56 360.284 397.681 356.68 395.34 356.13C398.99 360.031 401.583 362.786 404.819 362.372C403.786 363.084 402.777 363.818 401.767 364.668C398.347 363.038 394.881 359.733 392.586 359.228C395.96 362.809 398.347 365.333 401.308 364.989C400.458 365.632 399.586 366.274 398.76 366.94L398.14 367.445C395.157 365.723 392.242 362.441 390.268 361.799C393.022 365.379 394.858 367.835 398.003 367.559L395.593 369.533C392.839 367.973 390.153 364.943 388.34 364.346C390.888 367.628 392.655 369.901 395.455 369.671C394.606 370.383 393.78 371.094 392.953 371.966C390.658 370.36 388.363 367.514 386.71 366.894C388.799 369.992 390.291 372.15 392.793 372.127L391.438 373.343L390.681 374.078C388.386 372.586 386.412 369.969 384.92 369.487C386.871 372.333 388.225 374.33 390.543 374.307C389.832 374.973 389.143 375.638 388.478 376.327C386.458 375.156 384.576 372.953 383.199 372.494C384.943 374.789 386.16 376.579 388.386 376.442L388.019 376.809C387.537 377.314 387.032 377.842 386.573 378.37C384.714 377.268 383.015 375.271 381.776 374.858C383.36 377.038 384.461 378.576 386.366 378.507C385.794 379.126 385.257 379.778 384.76 380.458C384.74 380.476 384.724 380.497 384.714 380.52C384.703 380.544 384.697 380.57 384.697 380.596C384.697 380.622 384.703 380.648 384.714 380.672C384.724 380.695 384.74 380.716 384.76 380.734C384.775 380.753 384.794 380.768 384.816 380.779C384.838 380.789 384.862 380.795 384.886 380.795C384.91 380.795 384.934 380.789 384.956 380.779C384.978 380.768 384.997 380.753 385.012 380.734L385.402 380.16Z" fill="#263238"/>
<path d="M358.503 412.866C359.421 412.009 360.316 411.137 361.188 410.249C364.815 411.374 368.808 414.128 371.034 414.312C367.179 411.259 364.447 409.102 361.555 409.882C362.313 409.125 363.07 408.344 363.851 407.587L364.378 407.013C367.592 408.276 370.943 411.076 373.008 411.443C369.749 408.298 367.477 406.141 364.493 406.853C365.205 406.095 365.893 405.315 366.582 404.557C369.543 405.728 372.641 408.298 374.523 408.62C371.516 405.751 369.428 403.754 366.72 404.42L368.854 401.895C371.47 403.111 374.11 405.59 375.739 405.98C373.215 403.249 371.425 401.39 368.854 401.711L370.002 400.311L370.644 399.485C373.054 400.61 375.487 402.882 377.048 403.249C374.753 400.702 373.077 398.934 370.782 399.301C371.379 398.544 371.952 397.787 372.503 397.006C374.798 397.878 376.864 399.783 378.287 400.036C376.221 397.901 374.775 396.41 372.595 396.892L372.916 396.456C373.307 395.882 373.72 395.308 374.11 394.711C375.814 395.718 377.568 396.637 379.366 397.465C377.484 395.537 376.153 394.183 374.202 394.551C374.67 393.848 375.1 393.12 375.487 392.37C375.499 392.349 375.507 392.326 375.51 392.302C375.513 392.278 375.511 392.253 375.505 392.23C375.498 392.206 375.488 392.184 375.473 392.165C375.458 392.146 375.439 392.13 375.418 392.118C375.397 392.106 375.374 392.098 375.35 392.095C375.326 392.092 375.301 392.093 375.278 392.1C375.254 392.106 375.232 392.117 375.213 392.132C375.194 392.147 375.178 392.165 375.166 392.187C374.783 392.875 374.37 393.541 373.926 394.183C373.926 392.531 372.848 391.223 371.195 389.432C371.858 391.212 372.624 392.952 373.49 394.642L372.411 396.157L372.136 396.501C372.434 394.596 371.08 393.128 369.198 391.085C369.982 393.051 370.871 394.974 371.861 396.846C371.333 397.557 370.805 398.246 370.254 398.911C370.598 396.754 368.946 395.055 366.605 392.668C366.88 394.229 369.015 396.754 370.025 399.21C369.818 399.439 369.634 399.692 369.451 399.921L368.326 401.229C368.647 398.934 366.88 397.098 364.355 394.528C364.654 396.203 366.949 398.911 368.051 401.574L366.077 403.869C366.306 401.574 364.539 399.485 362.106 396.685C362.313 398.475 364.401 401.482 365.595 404.374L363.965 406.118C364.218 403.57 362.313 401.367 359.673 398.315C359.903 400.265 362.29 403.525 363.46 406.646L363.024 407.105L360.729 409.4C361.119 406.807 359.214 404.121 356.621 400.495C356.621 402.607 359.031 406.508 360.041 410.066L357.401 412.499C358.159 409.515 356.047 406.508 353.04 402.308C353.04 404.603 355.795 409.056 356.85 412.981L356.047 413.669C355.221 414.381 354.372 415.069 353.522 415.735C354.509 412.567 352.375 409.171 349.414 404.443C349.414 406.99 351.893 411.81 352.811 416.102H354.578C355.29 415.505 356.001 414.909 356.69 414.289C357.378 413.669 357.493 413.577 357.883 413.21C360.597 414.233 363.248 415.413 365.824 416.745H367.569C364.126 414.013 361.372 412.063 358.503 412.866Z" fill="#263238"/>
<path d="M345.811 405.797C345.811 408.092 347.532 411.856 348.749 415.689L350.493 415.827C350.287 412.981 348.336 409.836 345.811 405.797Z" fill="#263238"/>
<path d="M354.923 416.148L358.389 416.354C357.276 415.958 356.074 415.886 354.923 416.148Z" fill="#263238"/>
<path d="M421.712 411.328C421.782 411.195 421.844 411.057 421.895 410.915L421.069 410.617L420.656 410.479C421.303 410.371 421.907 410.085 422.4 409.653C422.607 409.056 422.813 408.413 422.997 407.702C422.139 408.643 421.211 409.518 420.22 410.318L417.718 409.423C419.876 409.102 421.023 407.128 422.607 404.098C421.207 404.81 419.417 407.587 417.374 409.285L416.525 408.941L414.941 408.253C417.236 407.885 418.476 405.659 420.197 402.492C418.682 403.272 416.754 406.256 414.551 408.092L411.843 406.852C414.138 406.371 415.561 404.098 417.535 400.954C415.882 401.688 413.656 404.672 411.2 406.554L409.065 405.498C411.567 404.993 413.128 402.515 415.285 399.095C413.472 399.898 411.062 403.134 408.4 405.154L407.849 404.879L405.003 403.341C407.597 402.951 409.593 400.357 412.325 396.823C410.305 397.511 407.275 400.885 404.177 402.882C403.121 402.308 402.088 401.688 401.055 401.069C404.131 400.931 406.403 398.016 409.547 393.931C407.252 394.688 403.878 398.521 400.367 400.679L399.472 400.128C398.554 399.531 397.659 398.934 396.763 398.292C400.068 398.292 402.708 395.285 406.357 391.085C403.878 391.773 399.954 395.675 396.075 397.833L393.16 395.675C396.901 395.859 399.816 392.531 403.878 387.849C401.147 388.606 396.832 392.921 392.586 395.216L391.737 394.55C391.675 394.502 391.605 394.467 391.529 394.446C391.453 394.425 391.375 394.419 391.297 394.429C391.14 394.448 390.997 394.529 390.899 394.654C390.802 394.779 390.758 394.937 390.777 395.094C390.797 395.251 390.878 395.394 391.003 395.491L391.944 396.203C392.219 401.046 390.681 407.105 391.439 409.836C393.321 404.075 394.675 399.921 392.77 396.823C393.78 397.58 394.813 398.292 395.845 398.98C396.075 403.433 394.675 408.987 395.386 411.512C397.131 406.141 398.37 402.331 396.557 399.462C397.36 399.967 398.141 400.495 398.852 400.977L400.229 401.803C400.229 405.911 398.622 410.984 399.127 413.279C401.078 408.298 402.455 404.787 400.711 402.033C401.79 402.675 403.006 403.272 403.993 403.846C403.993 407.633 402.524 412.269 402.983 414.426C404.774 409.836 406.036 406.623 404.429 404.098L407.321 405.544L408.01 405.889C407.757 409.331 406.059 413.371 406.311 415.436C408.354 411.397 409.754 408.551 408.193 405.98L411.016 407.289C410.787 410.364 409.318 413.922 409.433 415.872H409.547C411.361 412.292 412.577 409.767 411.177 407.38L414.23 408.712C413.885 411.007 412.784 413.577 412.439 415.39L413.059 415.276C414.528 412.705 415.354 410.685 414.436 408.803L416.112 409.469L417.098 409.859C416.781 411.478 416.352 413.073 415.813 414.633L416.869 414.312C417.29 413.671 417.55 412.937 417.626 412.173C417.702 411.41 417.592 410.64 417.305 409.928L420.013 410.915C419.933 411.691 419.787 412.459 419.577 413.21C419.927 413.035 420.265 412.836 420.587 412.613C420.598 412.025 420.447 411.446 420.151 410.938L420.656 411.099L421.712 411.328Z" fill="#263238"/>
<path d="M333.394 363.52C333.543 363.472 333.668 363.37 333.745 363.234C333.821 363.098 333.844 362.938 333.807 362.786C333.764 362.634 333.663 362.505 333.525 362.427C333.388 362.35 333.225 362.33 333.073 362.372L331.925 362.717C327.863 360.077 323.892 355.257 321.23 354.248C324.764 359.182 327.312 362.717 330.938 363.015C329.745 363.382 328.643 363.795 327.381 364.232C324.626 362.418 321.918 359.641 319.692 357.805C319.692 358.333 319.692 358.838 319.692 359.366C321.987 362.349 323.984 364.346 326.577 364.53C325.682 364.851 324.81 365.195 323.938 365.563L322.446 366.182C321.466 365.444 320.538 364.639 319.669 363.772C319.669 364.415 319.669 365.035 319.669 365.677C320.369 366.092 321.153 366.343 321.964 366.412L319.669 367.491C319.669 367.812 319.669 368.133 319.669 368.455L322.767 367.123C321.046 369.694 322.079 373.251 323.502 378.186C324.213 375.891 323.135 370.91 323.502 366.848L324.466 366.458L327.541 365.333C325.568 368.019 326.44 371.943 327.702 377.36C328.597 374.95 327.702 369.464 328.322 365.081C329.469 364.691 330.617 364.323 331.764 364.002C329.469 366.917 330.387 371.209 331.764 377.268C332.751 374.629 331.764 368.592 332.476 363.818L333.394 363.52Z" fill="#263238"/>
<path d="M319.21 377.819C319.21 378.094 319.348 378.347 319.439 378.645C319.733 376.651 319.733 374.625 319.439 372.632C319.371 374.399 319.302 376.143 319.21 377.819Z" fill="#263238"/>
<path d="M327.335 411.397L326.486 410.043C328.345 406.371 332.063 402.584 332.66 400.242C328.666 403.8 325.774 406.325 326.187 409.561C325.499 408.505 324.787 407.495 324.076 406.462C325.797 403.088 329.194 399.577 329.768 397.488C326.096 400.747 323.502 403.066 323.777 406.049L321.873 403.433L321.413 402.813C323.181 399.875 326.532 397.029 327.243 395.078C323.594 397.741 321.069 399.669 321.299 402.675L319.371 400.22C321.023 397.511 324.099 394.895 324.741 393.105C321.391 395.56 319.072 397.259 319.256 399.99L317.833 398.292V399.256L318.659 400.265C318.373 400.197 318.081 400.151 317.787 400.128C317.787 400.472 317.787 400.793 317.787 401.138L319.118 400.816L320.564 402.744C319.635 402.47 318.647 402.47 317.718 402.744V404.167C318.811 403.784 319.931 403.484 321.069 403.272L321.436 403.754L323.295 406.416C321.398 406.003 319.415 406.271 317.695 407.174C317.695 407.587 317.695 408.023 317.695 408.436C319.722 407.913 321.775 407.499 323.846 407.197C324.512 408.207 325.155 409.217 325.774 410.249C323.594 409.239 321.184 409.997 317.856 411.42C317.856 411.718 317.856 412.063 317.856 412.338H318.361C320.909 411.685 323.491 411.171 326.096 410.8L326.646 411.695L327.633 413.463L328.919 413.623C328.322 413.004 327.84 412.2 327.335 411.397Z" fill="#263238"/>
<path d="M318.361 390.557V391.636C319.007 391.032 319.55 390.326 319.967 389.547L318.361 390.557Z" fill="#263238"/>
<path d="M331.856 414.151L333.899 414.381C335.622 412.09 337.019 409.572 338.053 406.898C335.666 409.021 333.581 411.462 331.856 414.151Z" fill="#263238"/>
<path d="M329.538 414.013C331.443 410.135 334.817 406.141 335.299 403.708C331.306 407.702 328.414 410.594 328.781 413.922L329.538 414.013Z" fill="#263238"/>
<path d="M318.063 394.665C318.063 395.285 318.063 395.882 317.948 396.478C319.576 394.933 321.051 393.234 322.354 391.406C320.786 392.298 319.342 393.394 318.063 394.665Z" fill="#263238"/>
</g>
<path d="M477.392 338.549L487.537 327.784L501.606 347.592C501.606 347.592 489.74 355.992 478.379 355.671L477.071 352.756C476.021 350.524 475.503 348.08 475.559 345.614C475.615 343.149 476.242 340.73 477.392 338.549Z" fill="#FFB573"/>
<path d="M503.901 328.84L507.872 336.299C508.743 337.938 508.93 339.855 508.392 341.631C507.855 343.407 506.636 344.898 505.003 345.778L501.698 347.592L487.628 327.784L495.684 325.489C497.23 325.017 498.892 325.092 500.389 325.703C501.886 326.313 503.126 327.421 503.901 328.84Z" fill="#FFB573"/>
<path d="M423.869 299.921L424.741 304.305L425.705 308.895C426.394 311.994 427.059 315.115 427.84 318.076C429.332 324.227 431.122 330.263 433.027 336.093C434.927 341.691 437.228 347.144 439.912 352.411C442.058 356.743 444.896 360.697 448.313 364.117L443.447 361.822C442.024 361.638 441.748 362.074 442.506 362.051C443.712 361.921 444.885 361.58 445.971 361.041C449.411 359.463 452.686 357.548 455.749 355.326C459.169 353.031 462.634 350.323 466.054 347.546C469.474 344.769 472.94 341.808 476.29 339.077L476.658 338.801C478.094 337.628 479.891 336.985 481.746 336.98C483.601 336.975 485.402 337.608 486.845 338.774C488.288 339.94 489.286 341.567 489.671 343.381C490.056 345.196 489.805 347.088 488.96 348.739C486.655 353.136 484.088 357.39 481.271 361.477C478.401 365.617 475.273 369.573 471.907 373.32C468.234 377.456 464.081 381.139 459.536 384.291C456.688 386.213 453.602 387.756 450.355 388.881C448.262 389.612 446.089 390.09 443.883 390.304C441.145 390.547 438.386 390.346 435.712 389.708C434.15 389.332 432.676 388.653 431.374 387.711L430.823 387.298C423.773 382.018 417.838 375.395 413.357 367.812C411.261 364.4 409.379 360.957 407.711 357.484C406.043 354.01 404.513 350.537 403.121 347.064C400.465 340.209 398.212 333.204 396.373 326.086C395.478 322.552 394.629 319.04 393.917 315.482C393.573 313.692 393.206 311.925 392.908 310.112C392.609 308.299 392.334 306.6 392.035 304.443C391.505 300.319 392.593 296.15 395.072 292.812C397.551 289.474 401.228 287.228 405.329 286.544C409.43 285.861 413.636 286.793 417.064 289.147C420.491 291.5 422.873 295.091 423.708 299.164L423.869 299.921Z" fill="#FFB573"/>
<path d="M401.859 275.822C415.216 277.199 425.889 286.059 433.348 314.266C427.61 322.207 391.462 339.627 391.462 339.627C391.462 339.627 371.333 272.678 401.859 275.822Z" fill="#263238"/>
</svg>
