<svg width="729" height="652" viewBox="0 0 729 652" fill="none" xmlns="http://www.w3.org/2000/svg">
<g clip-path="url(#clip0_166_912)">
<path d="M562.678 630.052L552.317 633.65L534.176 593.363L549.469 588.052L562.678 630.052Z" fill="#FFB8B8"/>
<path d="M543.938 633.11L563.92 626.169L568.079 639.391L535.515 650.703C534.969 648.966 534.754 647.134 534.881 645.31C535.009 643.486 535.477 641.707 536.259 640.073C537.042 638.44 538.122 636.984 539.44 635.789C540.757 634.594 542.286 633.684 543.938 633.11Z" fill="#2F2E41"/>
<path d="M494.323 640.054L483.411 640.053L478.219 595.818L494.325 595.819L494.323 640.054Z" fill="#FFB8B8"/>
<path d="M475.616 636.776H496.662V650.702H462.365C462.365 648.873 462.708 647.062 463.374 645.373C464.04 643.683 465.016 642.148 466.246 640.855C467.477 639.562 468.937 638.536 470.545 637.836C472.153 637.136 473.876 636.776 475.616 636.776Z" fill="#2F2E41"/>
<path d="M484.237 475.847L483.681 478.435C476.162 513.43 473.484 564.347 475.73 600.145L477.465 627.797C477.524 628.745 477.924 629.633 478.584 630.282C479.244 630.932 480.114 631.293 481.017 631.293H494.1C494.972 631.293 495.814 630.956 496.466 630.347C497.118 629.738 497.534 628.898 497.636 627.988L507.79 537.284C507.885 536.434 508.255 535.643 508.838 535.045C509.42 534.447 510.18 534.076 510.991 533.996C511.802 533.915 512.614 534.129 513.293 534.602C513.972 535.075 514.476 535.778 514.722 536.594L541.038 618.561C541.254 619.28 541.672 619.914 542.237 620.379C542.802 620.844 543.488 621.119 544.204 621.168L564.188 622.523C564.765 622.562 565.342 622.453 565.87 622.205C566.398 621.957 566.86 621.578 567.217 621.1C567.574 620.623 567.815 620.061 567.919 619.463C568.023 618.866 567.988 618.25 567.815 617.671L555.786 582.911C546.491 551.716 541.495 504.317 540.949 471.634C540.941 471.118 540.831 470.61 540.626 470.141C540.422 469.672 540.127 469.253 539.761 468.909C539.395 468.565 538.966 468.305 538.5 468.144C538.033 467.983 537.54 467.926 537.052 467.974L487.372 472.947C486.625 473.022 485.92 473.342 485.357 473.863C484.794 474.384 484.402 475.079 484.237 475.847Z" fill="#2F2E41"/>
<path d="M513.327 330.544C525.401 330.544 535.189 320.258 535.189 307.569C535.189 294.88 525.401 284.593 513.327 284.593C501.253 284.593 491.465 294.88 491.465 307.569C491.465 320.258 501.253 330.544 513.327 330.544Z" fill="#A0616A"/>
<path d="M498.976 483.375C494.622 483.365 490.271 483.124 485.94 482.652C484.549 482.493 483.273 481.768 482.383 480.633C481.494 479.498 481.062 478.042 481.18 476.576L488.634 400.894C490.432 379.486 493.209 358.822 507.259 341.321C507.737 340.727 508.325 340.244 508.989 339.902C509.653 339.559 510.376 339.365 511.115 339.331L511.643 339.31C517.186 339.067 519.74 339.279 520.458 340.035L524.324 344.038C547.897 362.36 548.877 478.425 543.069 476.138C541.945 475.697 528.529 476.14 527.595 476.809C520.023 482.234 507.852 483.374 498.976 483.375Z" fill="#0099FF"/>
<path d="M413.2 441.366C413.757 440.121 414.566 439.02 415.572 438.139C416.577 437.259 417.754 436.621 419.019 436.271C420.284 435.92 421.607 435.865 422.895 436.11C424.182 436.355 425.403 436.893 426.471 437.688L452.341 418.239L452.969 435.597L428.306 451.405C426.917 453.202 424.95 454.402 422.776 454.776C420.601 455.151 418.372 454.674 416.51 453.437C414.648 452.199 413.283 450.287 412.673 448.062C412.063 445.837 412.25 443.455 413.2 441.366Z" fill="#A0616A"/>
<path d="M438.893 446.497L430.131 430.287L509.944 369.807C511.745 368.442 513.795 367.483 515.965 366.988C518.135 366.493 520.378 366.474 522.556 366.931C524.733 367.389 526.797 368.314 528.619 369.647C530.441 370.981 531.982 372.696 533.145 374.684C534.308 376.671 535.069 378.89 535.379 381.201C535.689 383.511 535.543 385.864 534.949 388.113C534.355 390.361 533.326 392.457 531.927 394.269C530.527 396.08 528.787 397.569 526.815 398.643L438.893 446.497Z" fill="#0099FF"/>
<path d="M523.149 326.994C523.89 327.761 524.869 328.222 525.906 328.292C526.944 328.361 527.971 328.036 528.798 327.374C533.95 323.36 538.474 318.364 541.151 312.27C544.218 305.287 544.56 296.718 540.862 290.081C537.736 284.47 532.215 280.85 526.713 277.877C524.577 276.61 522.275 275.678 519.882 275.11C517.464 274.55 514.933 274.979 512.805 276.311C511.764 276.997 510.943 277.996 510.451 279.18C509.959 280.363 509.817 281.675 510.045 282.944C507.402 279.775 504.017 277.387 500.225 276.016C497.838 275.035 495.223 274.835 492.726 275.445C489.234 276.486 486.685 279.746 485.291 283.267C484.164 285.946 483.774 288.903 484.167 291.803C484.374 293.246 484.867 294.627 485.614 295.857C486.361 297.088 487.345 298.139 488.503 298.945C491.39 300.822 495.072 300.686 498.387 299.92C501.703 299.153 504.912 297.819 508.291 297.482C511.671 297.144 515.434 298.03 517.49 300.868C518.939 302.867 519.311 305.478 519.636 307.967L521.327 320.913C521.465 322.785 521.92 324.617 522.671 326.322C522.801 326.567 522.962 326.793 523.149 326.994Z" fill="#2F2E41"/>
<path d="M570.319 487.974C569.258 487.168 568.378 486.128 567.741 484.927C567.105 483.726 566.726 482.392 566.633 481.021C566.539 479.649 566.733 478.272 567.2 476.988C567.668 475.704 568.398 474.543 569.339 473.587L555.945 443.267L572.293 445.834L582.505 474.233C583.928 476 584.685 478.255 584.633 480.569C584.58 482.884 583.721 485.098 582.219 486.792C580.717 488.485 578.676 489.541 576.483 489.759C574.289 489.977 572.096 489.342 570.319 487.974Z" fill="#A0616A"/>
<path d="M579.275 455.765L563.85 464.974L506.301 381.096C505.002 379.203 504.089 377.049 503.618 374.769C503.147 372.488 503.129 370.13 503.564 367.842C504 365.554 504.88 363.384 506.149 361.47C507.418 359.555 509.049 357.936 510.941 356.714C512.832 355.491 514.943 354.692 517.142 354.366C519.341 354.04 521.58 354.193 523.719 354.818C525.859 355.442 527.853 356.523 529.577 357.994C531.301 359.465 532.718 361.293 533.739 363.365L579.275 455.765Z" fill="#0099FF"/>
<path d="M438.783 154.612H435.382V56.6816C435.382 41.6487 429.699 27.2315 419.584 16.6017C409.47 5.9718 395.751 7.4428e-06 381.447 0H184.015C169.711 0 155.992 5.9718 145.877 16.6017C135.762 27.2315 130.08 41.6487 130.08 56.6816V593.944C130.08 608.977 135.762 623.394 145.877 634.024C155.992 644.654 169.711 650.626 184.015 650.626H381.447C395.751 650.625 409.469 644.654 419.584 634.024C429.698 623.394 435.381 608.977 435.381 593.944V224.321H438.782L438.783 154.612Z" fill="#E6E6E6"/>
<path d="M383.623 14.7411H357.854C359.039 17.7948 359.491 21.108 359.171 24.3888C358.85 27.6696 357.767 30.8172 356.017 33.5544C354.266 36.2915 351.902 38.5342 349.132 40.0849C346.362 41.6355 343.272 42.4465 340.134 42.4464H227.028C223.89 42.4462 220.8 41.635 218.031 40.0843C215.261 38.5335 212.897 36.2908 211.147 33.5536C209.396 30.8165 208.313 27.669 207.993 24.3884C207.673 21.1077 208.125 17.7947 209.31 14.7411H185.24C174.558 14.7411 164.313 19.2008 156.759 27.139C149.206 35.0773 144.962 45.8439 144.962 57.0704V593.553C144.962 604.779 149.206 615.546 156.759 623.484C164.313 631.422 174.558 635.882 185.24 635.882H383.623C394.305 635.882 404.55 631.422 412.104 623.484C419.657 615.546 423.901 604.779 423.901 593.553V57.0695C423.901 45.8432 419.657 35.0768 412.103 27.1387C404.55 19.2006 394.305 14.7411 383.623 14.7411Z" fill="white"/>
<path d="M284.432 332.08C265.947 332.08 247.877 326.32 232.507 315.527C217.137 304.734 205.158 289.394 198.084 271.447C191.01 253.499 189.16 233.75 192.766 214.697C196.372 195.644 205.273 178.143 218.344 164.407C231.415 150.67 248.068 141.316 266.198 137.526C284.328 133.736 303.12 135.681 320.198 143.115C337.276 150.549 351.872 163.138 362.142 179.291C372.412 195.443 377.893 214.433 377.893 233.859C377.865 259.9 368.009 284.866 350.488 303.28C332.967 321.693 309.21 332.051 284.432 332.08ZM284.432 137.509C266.299 137.509 248.573 143.16 233.496 153.747C218.419 164.334 206.668 179.382 199.729 196.988C192.79 214.594 190.974 233.966 194.512 252.656C198.049 271.346 206.781 288.514 219.603 301.989C232.425 315.464 248.761 324.64 266.545 328.358C284.33 332.076 302.764 330.168 319.516 322.875C336.269 315.583 350.588 303.233 360.662 287.389C370.736 271.544 376.113 252.916 376.113 233.859C376.085 208.315 366.417 183.824 349.23 165.762C332.042 147.699 308.739 137.538 284.432 137.509Z" fill="#3F3D56"/>
<path d="M318.758 205.327C326.763 198.218 331.625 186.99 330.35 176.059C329.074 165.128 321.177 155.078 310.933 152.757C300.689 150.436 289.012 156.862 285.901 167.378C284.188 147.103 282.215 125.978 271.958 108.712C262.67 93.0778 246.584 81.8911 229.15 79.8897C211.716 77.8884 193.36 85.4472 182.487 99.9083C171.614 114.37 168.952 135.393 176.567 151.996C182.177 164.226 192.512 173.329 203.341 180.734C237.888 204.358 280.744 212.34 321.523 206.034L318.758 205.327Z" fill="#E6E6E6"/>
<path d="M199.727 85.8662C214.112 98.1798 227.309 111.952 239.127 126.983C257.622 150.425 272.588 176.709 283.504 204.918C284.303 206.975 281.124 207.871 280.333 205.836C262.473 159.991 233.96 119.584 197.402 88.3098C195.76 86.9049 198.099 84.4729 199.727 85.8662Z" fill="white"/>
<path d="M204.622 428.43C210.03 428.43 214.413 423.824 214.413 418.141C214.413 412.458 210.03 407.851 204.622 407.851C199.215 407.851 194.831 412.458 194.831 418.141C194.831 423.824 199.215 428.43 204.622 428.43Z" fill="#3F3D56"/>
<path d="M366.911 425.624H242.296C240.407 425.624 238.596 424.836 237.261 423.432C235.925 422.029 235.175 420.125 235.175 418.141C235.175 416.156 235.925 414.252 237.261 412.849C238.596 411.446 240.407 410.657 242.296 410.657H366.911C368.8 410.657 370.611 411.446 371.947 412.849C373.282 414.252 374.032 416.156 374.032 418.141C374.032 420.125 373.282 422.029 371.947 423.432C370.611 424.836 368.8 425.624 366.911 425.624Z" fill="#CCCCCC"/>
<path d="M328.262 425.714H241.781C239.869 425.714 238.036 424.916 236.685 423.496C235.333 422.076 234.574 420.149 234.574 418.141C234.574 416.132 235.333 414.206 236.685 412.785C238.036 411.365 239.869 410.567 241.781 410.567H328.262C330.173 410.567 332.006 411.365 333.358 412.785C334.709 414.206 335.468 416.132 335.468 418.141C335.468 420.149 334.709 422.076 333.358 423.496C332.006 424.916 330.173 425.714 328.262 425.714Z" fill="#0099FF"/>
<path d="M204.622 473.331C210.03 473.331 214.413 468.725 214.413 463.042C214.413 457.359 210.03 452.752 204.622 452.752C199.215 452.752 194.831 457.359 194.831 463.042C194.831 468.725 199.215 473.331 204.622 473.331Z" fill="#3F3D56"/>
<path d="M366.911 470.525H242.296C240.407 470.525 238.596 469.737 237.261 468.333C235.925 466.93 235.175 465.026 235.175 463.042C235.175 461.057 235.925 459.153 237.261 457.75C238.596 456.347 240.407 455.558 242.296 455.558H366.911C368.8 455.558 370.611 456.347 371.947 457.75C373.282 459.153 374.032 461.057 374.032 463.042C374.032 465.026 373.282 466.93 371.947 468.333C370.611 469.737 368.8 470.525 366.911 470.525Z" fill="#CCCCCC"/>
<path d="M204.622 518.232C210.03 518.232 214.413 513.626 214.413 507.943C214.413 502.26 210.03 497.653 204.622 497.653C199.215 497.653 194.831 502.26 194.831 507.943C194.831 513.626 199.215 518.232 204.622 518.232Z" fill="#3F3D56"/>
<path d="M366.911 515.426H242.296C240.407 515.426 238.596 514.638 237.261 513.234C235.925 511.831 235.175 509.927 235.175 507.943C235.175 505.958 235.925 504.054 237.261 502.651C238.596 501.248 240.407 500.459 242.296 500.459H366.911C368.8 500.459 370.611 501.248 371.947 502.651C373.282 504.054 374.032 505.958 374.032 507.943C374.032 509.927 373.282 511.831 371.947 513.234C370.611 514.638 368.8 515.426 366.911 515.426Z" fill="#CCCCCC"/>
<path d="M299.778 470.615H241.781C239.869 470.615 238.036 469.817 236.685 468.397C235.333 466.977 234.574 465.05 234.574 463.042C234.574 461.033 235.333 459.107 236.685 457.686C238.036 456.266 239.869 455.468 241.781 455.468H299.778C301.689 455.468 303.523 456.266 304.874 457.686C306.226 459.107 306.985 461.033 306.985 463.042C306.985 465.05 306.226 466.977 304.874 468.397C303.523 469.817 301.689 470.615 299.778 470.615Z" fill="#0099FF"/>
<path d="M351.404 515.516H241.781C239.869 515.516 238.036 514.718 236.685 513.298C235.333 511.878 234.574 509.951 234.574 507.943C234.574 505.934 235.333 504.008 236.685 502.587C238.036 501.167 239.869 500.369 241.781 500.369H351.404C353.316 500.369 355.149 501.167 356.5 502.587C357.852 504.008 358.611 505.934 358.611 507.943C358.611 509.951 357.852 511.878 356.5 513.298C355.149 514.718 353.316 515.516 351.404 515.516Z" fill="#0099FF"/>
<path d="M333.915 218.587H321.682V180.595C321.683 179.479 322.105 178.409 322.856 177.62C323.607 176.83 324.625 176.387 325.687 176.385H329.91C330.972 176.387 331.99 176.83 332.741 177.62C333.492 178.409 333.914 179.479 333.915 180.595V218.587Z" fill="#3F3D56"/>
<path d="M341.332 283.238H224.39L223.97 213.972C223.966 212.902 224.166 211.842 224.559 210.855C224.952 209.867 225.529 208.973 226.257 208.225L255.634 178.154C257.027 176.723 258.895 175.914 260.844 175.899L310.011 175.427C311.126 175.42 312.229 175.67 313.242 176.16C314.254 176.649 315.152 177.367 315.872 178.262L315.876 178.267L339.229 208.365C340.588 210.119 341.33 212.311 341.332 214.572L341.332 283.238Z" fill="#3F3D56"/>
<path d="M341.332 283.238H278.488V221.161C278.489 219.27 279.13 217.44 280.298 216.001L307.603 182.359C308.312 181.483 309.195 180.78 310.189 180.298C311.182 179.816 312.264 179.567 313.359 179.567H313.388C314.487 179.571 315.572 179.827 316.568 180.317C317.564 180.807 318.446 181.519 319.152 182.404L339.56 207.936C340.704 209.369 341.331 211.18 341.332 213.05V283.238Z" fill="#0099FF"/>
<path d="M314.675 259.395H305.582C304.992 259.394 304.427 259.147 304.01 258.709C303.593 258.271 303.358 257.676 303.357 257.056V249.045C303.358 248.425 303.593 247.83 304.01 247.392C304.427 246.953 304.992 246.707 305.582 246.706H314.675C315.265 246.707 315.83 246.953 316.248 247.392C316.665 247.83 316.899 248.425 316.9 249.045V257.056C316.899 257.676 316.665 258.271 316.248 258.709C315.83 259.147 315.265 259.394 314.675 259.395Z" fill="white"/>
<path d="M314.675 238.865H305.582C304.992 238.865 304.427 238.618 304.01 238.18C303.593 237.741 303.358 237.147 303.357 236.527V228.702C303.358 228.082 303.593 227.487 304.01 227.049C304.427 226.61 304.992 226.364 305.582 226.363H314.675C315.265 226.364 315.83 226.61 316.248 227.049C316.665 227.487 316.899 228.082 316.9 228.702V236.527C316.899 237.147 316.665 237.741 316.248 238.18C315.83 238.618 315.265 238.865 314.675 238.865Z" fill="white"/>
<path d="M258.445 256.276H249.353C248.763 256.275 248.198 256.029 247.78 255.59C247.363 255.152 247.129 254.558 247.128 253.938V245.926C247.129 245.306 247.363 244.712 247.78 244.274C248.198 243.835 248.763 243.589 249.353 243.588H258.445C259.035 243.589 259.601 243.835 260.018 244.274C260.435 244.712 260.67 245.306 260.671 245.926V253.938C260.67 254.558 260.435 255.152 260.018 255.59C259.601 256.029 259.035 256.275 258.445 256.276Z" fill="white"/>
<path d="M258.445 235.747H249.353C248.763 235.746 248.198 235.499 247.78 235.061C247.363 234.623 247.129 234.028 247.128 233.408V225.583C247.129 224.963 247.363 224.369 247.78 223.931C248.198 223.492 248.763 223.246 249.353 223.245H258.445C259.035 223.246 259.601 223.492 260.018 223.931C260.435 224.369 260.67 224.963 260.671 225.583V233.408C260.67 234.028 260.435 234.623 260.018 235.061C259.601 235.499 259.035 235.746 258.445 235.747Z" fill="white"/>
<path d="M363.964 284.048H204.899C204.663 284.048 204.436 283.949 204.269 283.774C204.102 283.598 204.009 283.36 204.009 283.112C204.009 282.864 204.102 282.626 204.269 282.451C204.436 282.275 204.663 282.177 204.899 282.177H363.964C364.2 282.177 364.427 282.275 364.594 282.451C364.761 282.626 364.854 282.864 364.854 283.112C364.854 283.36 364.761 283.598 364.594 283.774C364.427 283.949 364.2 284.048 363.964 284.048Z" fill="#3F3D56"/>
<path d="M728.11 652H0.89011C0.654038 652 0.427634 651.901 0.260706 651.726C0.0937785 651.551 0 651.313 0 651.065C0 650.816 0.0937785 650.579 0.260706 650.403C0.427634 650.228 0.654038 650.129 0.89011 650.129H728.11C728.346 650.129 728.572 650.228 728.739 650.403C728.906 650.579 729 650.816 729 651.065C729 651.313 728.906 651.551 728.739 651.726C728.572 651.901 728.346 652 728.11 652Z" fill="#3F3D56"/>
</g>
<defs>
<clipPath id="clip0_166_912">
<rect width="729" height="652" fill="white"/>
</clipPath>
</defs>
</svg>
