<svg width="476" height="92" viewBox="0 0 476 92" fill="none" xmlns="http://www.w3.org/2000/svg">
<g clip-path="url(#clip0_1864_1302)">
<path d="M46.2005 28.0809C46.2005 31.5809 45.3932 34.7788 43.7839 37.6642C42.1849 40.5548 39.7266 42.8881 36.4089 44.6642C33.0859 46.4454 28.9609 47.3309 24.0339 47.3309H14.9297V68.9767H0.242188V8.66418H24.0339C28.8359 8.66418 32.8984 9.49752 36.2214 11.1642C39.5547 12.8204 42.0443 15.1121 43.7005 18.0392C45.3672 20.9559 46.2005 24.3048 46.2005 28.0809ZM22.9089 35.6434C25.7109 35.6434 27.8047 34.9871 29.1797 33.6642C30.5547 32.3465 31.2422 30.4871 31.2422 28.0809C31.2422 25.6798 30.5547 23.8204 29.1797 22.4975C27.8047 21.1798 25.7109 20.5184 22.9089 20.5184H14.9297V35.6434H22.9089Z" fill="#183044"/>
<path d="M61.2233 16.06C58.6503 16.06 56.5462 15.3048 54.9108 13.7892C53.2858 12.2631 52.4733 10.3829 52.4733 8.14335C52.4733 5.85168 53.2858 3.95064 54.9108 2.43502C56.5462 0.924602 58.6503 0.164185 61.2233 0.164185C63.7493 0.164185 65.8274 0.924602 67.4524 2.43502C69.0879 3.95064 69.9108 5.85168 69.9108 8.14335C69.9108 10.3829 69.0879 12.2631 67.4524 13.7892C65.8274 15.3048 63.7493 16.06 61.2233 16.06ZM68.5358 21.0392V68.9767H53.8483V21.0392H68.5358Z" fill="#183044"/>
<path d="M108.399 20.5184C114.009 20.5184 118.488 22.3413 121.837 25.9767C125.196 29.6173 126.878 34.6173 126.878 40.9767V68.9767H112.253V42.935C112.253 39.7267 111.42 37.2423 109.753 35.4767C108.097 33.7006 105.868 32.81 103.066 32.81C100.259 32.81 98.0243 33.7006 96.3576 35.4767C94.7013 37.2423 93.8784 39.7267 93.8784 42.935V68.9767H79.1909V21.0392H93.8784V27.3934C95.3628 25.2684 97.3628 23.5965 99.8784 22.3725C102.404 21.1381 105.243 20.5184 108.399 20.5184Z" fill="#183044"/>
<path d="M134.155 44.9142C134.155 39.9975 135.082 35.6798 136.946 31.9559C138.821 28.2215 141.353 25.3517 144.551 23.3517C147.759 21.3517 151.342 20.3517 155.301 20.3517C158.676 20.3517 161.634 21.0392 164.176 22.4142C166.728 23.7892 168.696 25.5965 170.071 27.8309V21.0392H184.78V68.9767H170.071V62.185C168.639 64.4246 166.644 66.2267 164.092 67.6017C161.551 68.9767 158.592 69.6642 155.217 69.6642C151.311 69.6642 147.759 68.6538 144.551 66.6225C141.353 64.5809 138.821 61.685 136.946 57.935C135.082 54.185 134.155 49.8465 134.155 44.9142ZM170.071 44.9975C170.071 41.3309 169.051 38.4454 167.009 36.3309C164.978 34.2059 162.509 33.1434 159.592 33.1434C156.676 33.1434 154.196 34.1954 152.155 36.2892C150.124 38.3725 149.113 41.2475 149.113 44.9142C149.113 48.5809 150.124 51.4923 152.155 53.6434C154.196 55.7996 156.676 56.8725 159.592 56.8725C162.509 56.8725 164.978 55.81 167.009 53.685C169.051 51.56 170.071 48.6642 170.071 44.9975Z" fill="#183044"/>
<path d="M242.757 21.0392V68.9767H228.069V62.4559C226.58 64.5704 224.559 66.2684 222.007 67.56C219.465 68.8517 216.642 69.4975 213.548 69.4975C209.882 69.4975 206.642 68.685 203.84 67.06C201.033 65.4246 198.85 63.0548 197.298 59.9559C195.757 56.8621 194.986 53.2215 194.986 49.0392V21.0392H209.59V47.06C209.59 50.2684 210.413 52.7631 212.069 54.5392C213.736 56.3204 215.97 57.2059 218.778 57.2059C221.653 57.2059 223.913 56.3204 225.569 54.5392C227.236 52.7631 228.069 50.2684 228.069 47.06V21.0392H242.757Z" fill="#183044"/>
<path d="M268.012 27.8309C269.439 25.5965 271.413 23.7892 273.929 22.4142C276.455 21.0392 279.408 20.3517 282.783 20.3517C286.741 20.3517 290.325 21.3517 293.533 23.3517C296.741 25.3517 299.273 28.2215 301.137 31.9559C302.997 35.6798 303.929 39.9975 303.929 44.9142C303.929 49.8465 302.997 54.185 301.137 57.935C299.273 61.685 296.741 64.5809 293.533 66.6225C290.325 68.6538 286.741 69.6642 282.783 69.6642C279.46 69.6642 276.523 68.9767 273.971 67.6017C271.429 66.2267 269.439 64.4506 268.012 62.2684V91.8309H253.325V21.0392H268.012V27.8309ZM288.971 44.9142C288.971 41.2475 287.95 38.3725 285.908 36.2892C283.877 34.1954 281.377 33.1434 278.408 33.1434C275.491 33.1434 273.012 34.2059 270.971 36.3309C268.939 38.4454 267.929 41.3309 267.929 44.9975C267.929 48.6642 268.939 51.56 270.971 53.685C273.012 55.81 275.491 56.8725 278.408 56.8725C281.325 56.8725 283.809 55.7996 285.866 53.6434C287.934 51.4923 288.971 48.5809 288.971 44.9142Z" fill="#183044"/>
<path d="M308.718 44.9142C308.718 39.9975 309.645 35.6798 311.51 31.9559C313.385 28.2215 315.916 25.3517 319.114 23.3517C322.322 21.3517 325.906 20.3517 329.864 20.3517C333.239 20.3517 336.197 21.0392 338.739 22.4142C341.291 23.7892 343.26 25.5965 344.635 27.8309V21.0392H359.343V68.9767H344.635V62.185C343.203 64.4246 341.208 66.2267 338.656 67.6017C336.114 68.9767 333.156 69.6642 329.781 69.6642C325.875 69.6642 322.322 68.6538 319.114 66.6225C315.916 64.5809 313.385 61.685 311.51 57.935C309.645 54.185 308.718 49.8465 308.718 44.9142ZM344.635 44.9975C344.635 41.3309 343.614 38.4454 341.572 36.3309C339.541 34.2059 337.072 33.1434 334.156 33.1434C331.239 33.1434 328.76 34.1954 326.718 36.2892C324.687 38.3725 323.677 41.2475 323.677 44.9142C323.677 48.5809 324.687 51.4923 326.718 53.6434C328.76 55.7996 331.239 56.8725 334.156 56.8725C337.072 56.8725 339.541 55.81 341.572 53.685C343.614 51.56 344.635 48.6642 344.635 44.9975Z" fill="#183044"/>
<path d="M415.945 28.0809C415.945 31.5809 415.138 34.7788 413.528 37.6642C411.93 40.5548 409.471 42.8881 406.153 44.6642C402.831 46.4454 398.706 47.3309 393.778 47.3309H384.674V68.9767H369.987V8.66418H393.778C398.581 8.66418 402.643 9.49752 405.966 11.1642C409.299 12.8204 411.789 15.1121 413.445 18.0392C415.112 20.9559 415.945 24.3048 415.945 28.0809ZM392.653 35.6434C395.456 35.6434 397.549 34.9871 398.924 33.6642C400.299 32.3465 400.987 30.4871 400.987 28.0809C400.987 25.6798 400.299 23.8204 398.924 22.4975C397.549 21.1798 395.456 20.5184 392.653 20.5184H384.674V35.6434H392.653Z" fill="#183044"/>
<path d="M475.822 8.66418V68.9767H461.135V44.1434H438.28V68.9767H423.593V8.66418H438.28V32.2892H461.135V8.66418H475.822Z" fill="#183044"/>
</g>
<defs>
<clipPath id="clip0_1864_1302">
<rect width="476" height="92" fill="white"/>
</clipPath>
</defs>
</svg>
