<svg width="55" height="61" viewBox="0 0 55 61" fill="none" xmlns="http://www.w3.org/2000/svg">
<path d="M54.125 20.0043C53.5521 23.5043 52.2083 26.7023 50.0833 29.5877C47.9688 32.4783 45.0938 34.8116 41.4583 36.5877C37.8177 38.3689 33.5313 39.2543 28.6042 39.2543H19.5L15.6458 60.9002H0.9375L11.6042 0.587677H35.3958C41.6979 0.587677 46.4583 1.9783 49.6667 4.75434C52.875 7.53559 54.4792 11.296 54.4792 16.046C54.4792 17.4783 54.3594 18.796 54.125 20.0043ZM29.4792 27.7335C34.9635 27.7335 38.1979 25.1606 39.1875 20.0043C39.2969 19.0877 39.3542 18.4314 39.3542 18.0252C39.3542 16.1918 38.7604 14.7752 37.5833 13.7752C36.4167 12.7752 34.625 12.2752 32.2083 12.2752H24.2292L21.5625 27.7335H29.4792Z" fill="#183044"/>
</svg>
