<svg width="30" height="30" viewBox="0 0 30 30" fill="none" xmlns="http://www.w3.org/2000/svg">
<path d="M19.8122 0C21.9366 0 23.7676 0.307796 25.3052 0.902873C26.831 1.50821 27.993 2.3803 28.7793 3.52941C29.5892 4.658 30 5.99179 30 7.5513C30 8.35157 29.9061 9.17237 29.7183 10.0137C28.9671 12.9685 27.4883 15.1744 25.3052 16.6211C23.1103 18.078 20 18.7962 15.9624 18.7962H9.48357L6.76056 30H0L7.277 0H19.8122ZM23.0047 9.5212C23.1221 8.97743 23.1925 8.49521 23.1925 8.08482C23.1925 6.96648 22.77 6.11491 21.9249 5.54036C21.1033 4.9658 19.9061 4.67852 18.3099 4.67852H12.9108L10.6103 14.1176H16.1972C18.1338 14.1176 19.6479 13.738 20.7512 12.9685C21.8779 12.2093 22.6291 11.0602 23.0047 9.5212Z" fill="#183044"/>
</svg>
