<svg xmlns="http://www.w3.org/2000/svg" xmlns:xlink="http://www.w3.org/1999/xlink" width="500" zoomAndPan="magnify" viewBox="0 0 375 374.999991" height="500" preserveAspectRatio="xMidYMid meet" version="1.0"><defs><g/></defs><g fill="#183044" fill-opacity="1"><g transform="translate(182.279289, 193.124987)"><g><path d="M 7.171875 -11.421875 C 7.878906 -11.421875 8.488281 -11.304688 9 -11.078125 C 9.507812 -10.847656 9.894531 -10.515625 10.15625 -10.078125 C 10.425781 -9.648438 10.5625 -9.140625 10.5625 -8.546875 C 10.5625 -8.242188 10.53125 -7.929688 10.46875 -7.609375 C 10.21875 -6.484375 9.726562 -5.644531 9 -5.09375 C 8.269531 -4.539062 7.234375 -4.265625 5.890625 -4.265625 L 3.734375 -4.265625 L 2.828125 0 L 0.578125 0 L 3 -11.421875 Z M 8.234375 -7.796875 C 8.273438 -8.003906 8.296875 -8.1875 8.296875 -8.34375 C 8.296875 -8.769531 8.15625 -9.09375 7.875 -9.3125 C 7.601562 -9.53125 7.203125 -9.640625 6.671875 -9.640625 L 4.875 -9.640625 L 4.109375 -6.046875 L 5.96875 -6.046875 C 6.613281 -6.046875 7.117188 -6.191406 7.484375 -6.484375 C 7.859375 -6.773438 8.109375 -7.210938 8.234375 -7.796875 Z M 8.234375 -7.796875 "/></g></g></g></svg>