<!DOCTYPE svg PUBLIC "-//W3C//DTD SVG 1.1//EN" "http://www.w3.org/Graphics/SVG/1.1/DTD/svg11.dtd">
<!-- Uploaded to: SVG Repo, www.svgrepo.com, Transformed by: SVG Repo Mixer Tools -->
<svg fill="#ffffff" version="1.1" id="Capa_1" xmlns="http://www.w3.org/2000/svg" xmlns:xlink="http://www.w3.org/1999/xlink" width="800px" height="800px" viewBox="0 0 83.973 83.974" xml:space="preserve" stroke="#ffffff">
<g id="SVGRepo_bgCarrier" stroke-width="0"/>
<g id="SVGRepo_tracerCarrier" stroke-linecap="round" stroke-linejoin="round"/>
<g id="SVGRepo_iconCarrier"> <g> <g> <g> <path d="M22.968,83.974c-3.694,0-6.699-3.005-6.699-6.698v-6.549c0-0.051,0.005-0.125,0.012-0.193V36.791H8.133 c-2.16,0-3.918-1.758-3.918-3.918c0-2.16,1.758-3.918,3.918-3.918h8.148v-5.06H8.133c-2.16,0-3.918-1.758-3.918-3.919 c0-2.16,1.758-3.918,3.918-3.918h8.148V9.056c-0.009-0.09-0.25-4.444,2.234-7.089C19.742,0.662,21.369,0,23.354,0h17.516 c3.593,0,7.12,0.374,10.485,1.112c3.461,0.759,6.563,2.105,9.223,4c2.688,1.919,4.869,4.506,6.48,7.69 c0.499,0.987,0.93,2.079,1.28,3.256h7.502c2.16,0,3.918,1.758,3.918,3.918c0,2.161-1.758,3.919-3.918,3.919h-6.37 c0.008,0.281,0.012,0.556,0.012,0.828c0,1.463-0.08,2.88-0.236,4.231h6.596c2.16,0,3.918,1.758,3.918,3.918 c0,2.16-1.758,3.918-3.918,3.918h-8.691c-1.34,2.967-3.264,5.498-5.729,7.531c-5.26,4.342-13.111,6.543-23.336,6.543h-8.398 v24.598c0,0.083-0.007,0.164-0.02,0.242v1.572C29.667,80.969,26.662,83.974,22.968,83.974z M19.27,70.801v6.475 c0,2.039,1.659,3.698,3.699,3.698c2.039,0,3.697-1.659,3.697-3.698v-1.813c0-0.083,0.007-0.164,0.02-0.243V49.365 c0-0.83,0.672-1.5,1.5-1.5h9.898c9.509,0,16.718-1.971,21.426-5.857c2.329-1.922,4.097-4.369,5.253-7.272 c0.229-0.57,0.779-0.945,1.395-0.945h9.684c0.506,0,0.918-0.412,0.918-0.918c0-0.506-0.412-0.918-0.918-0.918h-8.328 c-0.443,0-0.863-0.196-1.148-0.535c-0.285-0.339-0.404-0.787-0.328-1.224c0.296-1.691,0.445-3.533,0.445-5.473 c0-0.691-0.024-1.4-0.078-2.231c-0.026-0.414,0.119-0.82,0.401-1.123c0.284-0.302,0.681-0.474,1.095-0.474h7.941 c0.506,0,0.918-0.412,0.918-0.919c0-0.506-0.412-0.918-0.918-0.918h-8.648c-0.689,0-1.291-0.472-1.457-1.142 c-0.343-1.398-0.799-2.663-1.354-3.759c-1.391-2.747-3.256-4.968-5.547-6.602c-2.327-1.659-5.061-2.841-8.122-3.513 C47.558,3.35,44.247,3,40.869,3H23.354c-1.139,0-2.006,0.334-2.651,1.021c-1.58,1.682-1.426,4.909-1.424,4.941l0.003,8.596 c0,0.829-0.672,1.5-1.5,1.5H8.133c-0.506,0-0.918,0.412-0.918,0.918c0,0.507,0.412,0.919,0.918,0.919h9.648 c0.828,0,1.5,0.671,1.5,1.5v8.06c0,0.829-0.672,1.5-1.5,1.5H8.133c-0.506,0-0.918,0.412-0.918,0.918 c0,0.506,0.412,0.918,0.918,0.918h9.648c0.828,0,1.5,0.671,1.5,1.5v35.318C19.281,70.658,19.276,70.734,19.27,70.801z M38.136,41.302h-9.951c-0.828,0-1.5-0.671-1.5-1.5V35.29c0-0.829,0.672-1.5,1.5-1.5h25.305c0.604,0,1.15,0.364,1.385,0.923 c0.232,0.559,0.105,1.203-0.32,1.633c-0.281,0.285-0.568,0.569-0.886,0.83c-1.642,1.354-3.782,2.397-6.362,3.101 C44.808,40.958,41.723,41.302,38.136,41.302z M29.686,38.302h8.451c3.32,0,6.142-0.309,8.382-0.919 c0.643-0.175,1.249-0.373,1.819-0.593H29.686V38.302z M56.265,31.955h-28.08c-0.828,0-1.5-0.671-1.5-1.5v-8.06 c0-0.829,0.672-1.5,1.5-1.5h28.635c0.752,0,1.39,0.559,1.486,1.305c0.131,1.001,0.192,1.886,0.192,2.786 c0,2.111-0.269,4.093-0.796,5.891C57.517,31.516,56.931,31.955,56.265,31.955z M29.686,28.955h25.414 c0.267-1.233,0.4-2.562,0.4-3.969c0-0.361-0.013-0.72-0.036-1.091H29.686V28.955z M55.274,19.058H28.186 c-0.828,0-1.5-0.671-1.5-1.5v-6.653c0-0.829,0.672-1.5,1.5-1.5h10.791c2.57,0,5.032,0.221,7.319,0.656 c2.391,0.456,4.509,1.28,6.298,2.452c1.612,1.058,2.951,2.504,3.979,4.298c0.268,0.464,0.267,1.035-0.002,1.499 C56.303,18.773,55.808,19.058,55.274,19.058z M29.686,16.058h22.562c-0.4-0.386-0.832-0.73-1.3-1.036 c-1.457-0.955-3.211-1.632-5.213-2.014c-2.103-0.4-4.376-0.604-6.758-0.604h-9.291V16.058z"/> </g> </g> </g> </g>
</svg>