<svg width="20" height="20" viewBox="0 0 20 20" fill="none" xmlns="http://www.w3.org/2000/svg">
<path fill-rule="evenodd" clip-rule="evenodd" d="M17.9428 9.65481L17.2915 9.13381V17.7084H18.3332C18.6783 17.7084 18.9582 17.9882 18.9582 18.3334C18.9582 18.6786 18.6783 18.9584 18.3332 18.9584H1.66653C1.32134 18.9584 1.04153 18.6786 1.04153 18.3334C1.04153 17.9882 1.32134 17.7084 1.66653 17.7084H2.70819V9.13381L2.05696 9.65481C1.78742 9.87048 1.39411 9.82673 1.17849 9.55723C0.962853 9.28765 1.00655 8.89431 1.27609 8.67873L8.04769 3.26145C9.189 2.3484 10.8108 2.3484 11.952 3.26145L18.7236 8.67873C18.9932 8.89431 19.0368 9.28765 18.8212 9.55723C18.6056 9.82673 18.2123 9.87048 17.9428 9.65481ZM9.99983 5.6251C8.73417 5.6251 7.70819 6.65111 7.70819 7.91676C7.70819 9.1824 8.73417 10.2084 9.99983 10.2084C11.2655 10.2084 12.2915 9.1824 12.2915 7.91676C12.2915 6.65111 11.2655 5.6251 9.99983 5.6251ZM11.4548 11.0931C11.0724 11.0417 10.5951 11.0417 10.041 11.0417H9.95875C9.40467 11.0417 8.92725 11.0417 8.545 11.0931C8.13529 11.1481 7.74257 11.2724 7.42404 11.591C7.10549 11.9095 6.98128 12.3022 6.92619 12.7119C6.8748 13.0941 6.87483 13.5716 6.87486 14.1256V17.7084H8.12486H11.8748H13.1248V14.1256V14.0226C13.1247 13.5122 13.1217 13.0703 13.0735 12.7119C13.0184 12.3022 12.8943 11.9095 12.5757 11.591C12.2572 11.2724 11.8644 11.1481 11.4548 11.0931Z" fill="#1C274C"/>
<g opacity="0.5">
<path fill-rule="evenodd" clip-rule="evenodd" d="M8.9585 7.91667C8.9585 7.34137 9.42483 6.875 10.0002 6.875C10.5755 6.875 11.0418 7.34137 11.0418 7.91667C11.0418 8.492 10.5755 8.95833 10.0002 8.95833C9.42483 8.95833 8.9585 8.492 8.9585 7.91667Z" fill="#1C274C"/>
<path fill-rule="evenodd" clip-rule="evenodd" d="M8.9585 7.91667C8.9585 7.34137 9.42483 6.875 10.0002 6.875C10.5755 6.875 11.0418 7.34137 11.0418 7.91667C11.0418 8.492 10.5755 8.95833 10.0002 8.95833C9.42483 8.95833 8.9585 8.492 8.9585 7.91667Z" fill="#1C274C"/>
</g>
<path opacity="0.5" d="M10.0412 11.0415C10.5952 11.0415 11.0726 11.0414 11.4548 11.0928C11.8646 11.1479 12.2573 11.2722 12.5758 11.5907C12.8943 11.9093 13.0186 12.3019 13.0737 12.7117C13.1218 13.07 13.1248 13.512 13.125 14.0223V17.7082H6.875V14.1253C6.87498 13.5713 6.87494 13.0939 6.92634 12.7117C6.98143 12.3019 7.10564 11.9093 7.42418 11.5907C7.74272 11.2722 8.13543 11.1479 8.54517 11.0928C8.92742 11.0414 9.40483 11.0415 9.95883 11.0415H10.0412Z" fill="#1C274C"/>
<path opacity="0.5" d="M13.3332 2.5H15.4165C15.6466 2.5 15.8332 2.68655 15.8332 2.91667V6.36629L12.9165 4.03296V2.91667C12.9165 2.68655 13.1031 2.5 13.3332 2.5Z" fill="#1C274C"/>
</svg>
