<svg width="374" height="268" viewBox="0 0 374 268" fill="none" xmlns="http://www.w3.org/2000/svg">
<path fill-rule="evenodd" clip-rule="evenodd" d="M65.7495 92.1882C58.892 89.9991 43.8912 86.7352 31.7389 94.8521C22.3296 101.136 13.8435 114.548 13.8171 142.406H7.375C3.73525 142.406 0.78125 145.36 0.78125 149V261.094C0.78125 264.734 3.73525 267.688 7.375 267.688H20.5625C25.8111 267.688 30.8422 265.604 34.5478 261.892C38.2601 258.186 40.3438 253.155 40.3438 247.906V224.828H70.0156C76.2401 224.828 81.8053 221.947 85.4252 217.443C85.7681 217.212 86.0912 216.942 86.3945 216.639L159.275 143.758L276.426 175.151C279.941 176.094 283.554 174.003 284.497 170.489L287.299 160.045L310.226 166.183C320.783 169.012 331.629 162.755 334.451 152.198L341.817 124.728L369.036 99.3688C372.557 96.0851 374.027 91.1464 372.86 86.4781C371.699 81.8031 368.093 78.1238 363.438 76.8776L79.9392 0.72633C76.5632 -0.183608 72.963 0.291145 69.9299 2.03849C66.8968 3.78583 64.6879 6.6673 63.7845 10.0433L47.465 70.93C46.5287 74.4511 48.6123 78.0644 52.1268 79.0073L68.3672 83.3592L65.7495 92.1882ZM20.5229 155.594H13.9688V254.5H20.5625C22.3098 254.5 23.9912 253.808 25.2243 252.568C26.4639 251.335 27.1562 249.654 27.1562 247.906V162.188C27.1562 160.44 26.4639 158.759 25.2243 157.526C23.9912 156.293 22.3164 155.594 20.5757 155.594C20.5559 155.594 20.5361 155.594 20.5229 155.594ZM40.3438 198.453V211.641H51.3619C50.63 209.577 50.2344 207.361 50.2344 205.047C50.2344 202.732 50.63 200.517 51.3619 198.453H40.3438ZM70.0156 198.453C73.6554 198.453 76.6094 201.407 76.6094 205.047C76.6094 208.687 73.6554 211.641 70.0156 211.641C66.3759 211.641 63.4219 208.687 63.4219 205.047C63.4219 201.407 66.3759 198.453 70.0156 198.453ZM87.8649 196.521L144.565 139.822L129.861 135.878L78.5413 187.198C82.6163 189.143 85.9198 192.446 87.8649 196.521ZM62.0306 104.736C57.8106 103.16 47.4123 100.246 39.058 105.824C31.7323 110.717 26.754 121.669 26.998 143.481C29.8135 144.45 32.4049 146.053 34.5478 148.202C38.2601 151.908 40.3438 156.939 40.3438 162.188V185.266H61.8196L115.15 131.935L65.011 118.504C63.2966 118.042 61.8328 116.908 60.9624 115.359C60.0986 113.803 59.8942 111.969 60.3953 110.262L62.0306 104.736ZM81.1063 86.7748L74.9609 107.519L273.466 160.704L285.822 114.594L266.701 109.47L250.038 128.263C248.383 130.129 245.812 130.907 243.398 130.261L81.1063 86.7748ZM327.858 125.856L321.719 148.782C320.776 152.303 317.156 154.394 313.642 153.451L290.708 147.305L298.562 118.003L327.858 125.856ZM334.115 113.882L360.048 89.7222C360.061 89.7024 360.068 89.6826 360.068 89.6562C360.061 89.6365 360.042 89.6167 360.022 89.6101L76.5237 13.4589L61.9119 67.976L69.62 70.0464C69.6925 70.0596 69.7651 70.0794 69.8376 70.0992L242.877 116.466L259.54 97.6676C261.195 95.8016 263.766 95.0302 266.18 95.6763L334.115 113.882ZM165.988 57.637C170.63 58.8766 173.386 63.6571 172.146 68.2925C170.9 72.9345 166.126 75.6907 161.484 74.4511C156.842 73.2048 154.086 68.431 155.332 63.789C156.572 59.147 161.346 56.3908 165.988 57.637ZM132.36 48.6233C137.002 49.8696 139.758 54.6434 138.512 59.2854C137.272 63.9208 132.491 66.6836 127.856 65.4374C123.214 64.1978 120.458 59.4173 121.697 54.7753C122.944 50.1399 127.718 47.3771 132.36 48.6233ZM98.7314 39.6097C103.373 40.8559 106.13 45.6298 104.883 50.2718C103.644 54.9138 98.8633 57.67 94.2279 56.4303C89.5859 55.1841 86.8297 50.4102 88.0693 45.7682C89.3155 41.1262 94.0894 38.3701 98.7314 39.6097Z" fill="white"/>
</svg>
