<svg width="356" height="256" viewBox="0 0 356 256" fill="none" xmlns="http://www.w3.org/2000/svg">
<path fill-rule="evenodd" clip-rule="evenodd" d="M62.7329 87.8808C56.2004 85.7954 41.9106 82.6862 30.3342 90.4184C21.3709 96.4044 13.2869 109.18 13.2618 135.719H7.125C3.65775 135.719 0.84375 138.533 0.84375 142V248.781C0.84375 252.248 3.65775 255.062 7.125 255.062H19.6875C24.6874 255.062 29.48 253.078 33.01 249.541C36.5464 246.011 38.5312 241.219 38.5312 236.219V214.234H66.7969C72.7264 214.234 78.0277 211.489 81.4762 207.199C81.8028 206.98 82.1106 206.722 82.3995 206.433L151.826 137.006L263.425 166.911C266.773 167.81 270.215 165.818 271.113 162.471L273.783 152.521L295.623 158.369C305.679 161.064 316.012 155.103 318.7 145.046L325.716 118.879L351.645 94.721C354.999 91.593 356.4 86.8883 355.288 82.4412C354.183 77.9878 350.747 74.4828 346.312 73.2957L76.2502 0.753528C73.0342 -0.113284 69.6046 0.338968 66.7152 2.0035C63.8258 3.66803 61.7216 6.41294 60.8611 9.62894L45.315 67.63C44.4231 70.9842 46.4079 74.4263 49.7558 75.3245L65.2266 79.4702L62.7329 87.8808ZM19.6498 148.281H13.4062V242.5H19.6875C21.352 242.5 22.9537 241.84 24.1283 240.66C25.3092 239.485 25.9688 237.883 25.9688 236.219V154.562C25.9688 152.898 25.3092 151.296 24.1283 150.122C22.9537 148.947 21.3583 148.281 19.7001 148.281C19.6812 148.281 19.6624 148.281 19.6498 148.281ZM38.5312 189.109V201.672H49.0272C48.33 199.706 47.9531 197.595 47.9531 195.391C47.9531 193.186 48.33 191.075 49.0272 189.109H38.5312ZM66.7969 189.109C70.2641 189.109 73.0781 191.923 73.0781 195.391C73.0781 198.858 70.2641 201.672 66.7969 201.672C63.3296 201.672 60.5156 198.858 60.5156 195.391C60.5156 191.923 63.3296 189.109 66.7969 189.109ZM83.8002 187.269L137.813 133.256L123.806 129.5L74.9185 178.387C78.8003 180.24 81.9473 183.387 83.8002 187.269ZM59.1903 99.834C55.1703 98.3328 45.2648 95.5564 37.3064 100.87C30.3279 105.531 25.5856 115.964 25.818 136.743C28.5001 137.666 30.9686 139.192 33.01 141.24C36.5464 144.77 38.5312 149.563 38.5312 154.562V176.547H58.9893L109.792 125.744L62.0294 112.949C60.3963 112.51 59.0018 111.429 58.1727 109.953C57.3499 108.471 57.1552 106.724 57.6325 105.098L59.1903 99.834ZM77.3619 82.7238L71.5078 102.485L260.605 153.149L272.376 109.224L254.16 104.344L238.288 122.245C236.711 124.023 234.261 124.764 231.962 124.149L77.3619 82.7238ZM312.419 119.953L306.571 141.793C305.673 145.147 302.224 147.138 298.877 146.24L277.03 140.386L284.511 112.472L312.419 119.953ZM318.38 108.546L343.084 85.5316C343.097 85.5127 343.103 85.4939 343.103 85.4687C343.096 85.4499 343.078 85.4311 343.059 85.4248L72.9965 12.8826L59.0772 64.816L66.42 66.7883C66.4891 66.8009 66.5582 66.8197 66.6273 66.8386L231.466 111.008L247.339 93.1005C248.915 91.3229 251.365 90.588 253.664 91.2035L318.38 108.546ZM158.22 54.967C162.642 56.1479 165.268 60.7018 164.087 65.1175C162.9 69.5395 158.352 72.1651 153.93 70.9842C149.508 69.797 146.883 65.2494 148.07 60.8274C149.251 56.4054 153.798 53.7798 158.22 54.967ZM126.186 46.3805C130.608 47.5677 133.234 52.1153 132.047 56.5373C130.866 60.953 126.312 63.5849 121.896 62.3977C117.474 61.2168 114.848 56.6629 116.029 52.2409C117.216 47.8252 121.764 45.1934 126.186 46.3805ZM94.1517 37.7941C98.5737 38.9812 101.199 43.5288 100.012 47.9508C98.8313 52.3728 94.2773 54.9984 89.8616 53.8175C85.4396 52.6304 82.8141 48.0828 83.9949 43.6608C85.1821 39.2388 89.7297 36.6132 94.1517 37.7941Z" fill="black"/>
</svg>
