<!DOCTYPE svg PUBLIC "-//W3C//DTD SVG 1.1//EN" "http://www.w3.org/Graphics/SVG/1.1/DTD/svg11.dtd">
<!-- Uploaded to: SVG Repo, www.svgrepo.com, Transformed by: SVG Repo Mixer Tools -->
<svg width="800px" height="800px" viewBox="0 0 24 24" fill="none" xmlns="http://www.w3.org/2000/svg">
<g id="SVGRepo_bgCarrier" stroke-width="0"/>
<g id="SVGRepo_tracerCarrier" stroke-linecap="round" stroke-linejoin="round"/>
<g id="SVGRepo_iconCarrier"> <path fill-rule="evenodd" clip-rule="evenodd" d="M1.265 4.42619C1.04293 2.87167 2.6169 1.67931 4.05323 2.31397L21.8341 10.1706C23.423 10.8727 23.423 13.1273 21.8341 13.8294L4.05323 21.686C2.6169 22.3207 1.04293 21.1283 1.265 19.5738L1.99102 14.4917C2.06002 14.0087 2.41458 13.6156 2.88791 13.4972L8.87688 12L2.88791 10.5028C2.41458 10.3844 2.06002 9.99129 1.99102 9.50829L1.265 4.42619ZM21.0257 12L3.2449 4.14335L3.89484 8.69294L12.8545 10.9328C13.9654 11.2106 13.9654 12.7894 12.8545 13.0672L3.89484 15.3071L3.2449 19.8566L21.0257 12Z" fill="#ffffff"/> </g>
</svg>