<!DOCTYPE svg PUBLIC "-//W3C//DTD SVG 1.1//EN" "http://www.w3.org/Graphics/SVG/1.1/DTD/svg11.dtd">
<!-- Uploaded to: SVG Repo, www.svgrepo.com, Transformed by: SVG Repo Mixer Tools -->
<svg width="800px" height="800px" viewBox="0 0 24 24" fill="none" xmlns="http://www.w3.org/2000/svg">
<g id="SVGRepo_bgCarrier" stroke-width="0"/>
<g id="SVGRepo_tracerCarrier" stroke-linecap="round" stroke-linejoin="round"/>
<g id="SVGRepo_iconCarrier"> <path d="M12.25 12.5C12.25 13.6046 11.3546 14.5 10.25 14.5C9.14543 14.5 8.25 13.6046 8.25 12.5C8.25 11.3954 9.14543 10.5 10.25 10.5C11.3546 10.5 12.25 11.3954 12.25 12.5Z" fill="#1F2328"/> <path fill-rule="evenodd" clip-rule="evenodd" d="M14.25 4.5L20 10.1893V18H16.5V20H4V11.9393L10.25 5.68933L11.625 7.06433L14.25 4.5ZM18.5 10.8107V16.5H16.5V11.9393L12.6857 8.12499L14.25 6.56065L18.5 10.8107ZM5.5 12.5607V18.5H6.78545C7.02806 16.8038 8.48677 15.5 10.25 15.5C12.0132 15.5 13.4719 16.8038 13.7146 18.5H15V12.5607L10.25 7.81065L5.5 12.5607Z" fill="#1F2328"/> </g>
</svg>